<svg width="325" height="200" viewBox="0 0 325 200" fill="none" xmlns="http://www.w3.org/2000/svg">
<path d="M59.8598 105.964C58.3107 105.188 57.1298 104.495 55.4174 104.495C54.9373 104.495 54.5882 104.421 54.1298 104.266C53.1682 103.941 52.0214 103.613 51.0073 103.613C48.9464 103.613 47.3565 103.253 45.3094 103.972C41.1503 105.433 39 109.462 39 113.9C39 117.395 39.8226 120.482 40.1589 123.894C40.3354 125.684 41.7922 127.309 42.1708 129.037C43.4293 134.783 48.6005 134.425 53.2606 135.879C55.5477 136.593 58.225 135.571 59.715 133.724C59.8642 133.539 60.1495 132.661 60.1495 133.005C60.1495 133.781 60.1147 134.566 60.1656 135.34C60.2574 136.737 60.4393 138.054 60.4393 139.472C60.4393 142.116 61.0404 144.52 61.3245 147.114C61.4059 147.857 62.2465 148.877 61.3084 148.877C59.858 148.877 58.6027 147.859 57.2684 147.408C56.3068 147.083 56.5865 148.144 56.8339 149.041C57.4656 151.33 58.1283 153.709 58.6366 156.03C59.3983 159.507 59.4473 162.412 57.7674 165.631C56.0578 168.907 51.598 168.625 48.8505 167.231C45.7013 165.634 43.4054 161.423 42.0582 158.299C41.8657 157.853 41.3178 156.034 41.3178 156.683C41.3178 158.431 41.8524 160.084 41.8972 161.81C41.9777 164.914 43.2873 168.158 44.6495 170.922C45.7571 173.169 47.3744 175.891 49.1402 177.682C50.8658 179.433 51.9543 178.977 54.0654 178.858C55.7518 178.763 57.9772 177.787 59.6989 178.286C60.3831 178.485 62.1469 173.548 63.0467 172.685C64.4294 171.361 65.5952 171.005 67.3925 171.657C68.1695 171.938 69.1161 171.807 69.7747 172.326C69.9741 172.484 68.7312 169.069 68.5514 168.717C67.5921 166.84 67.217 164.757 66.8131 162.708C66.5522 161.385 65.9928 159.85 65.9439 158.512C65.9133 157.673 65.7625 156.693 65.4289 155.932C64.8356 154.577 66.689 154.525 67.6822 154.021C68.2723 153.722 70 153.264 70 152.519C70 150.48 69.6748 148.494 69.4849 146.461C68.924 140.454 67.8412 134.579 67.1672 128.596C66.5633 123.236 65.7564 117.937 65.0748 112.577C64.5553 108.493 63.82 104.451 63.3204 100.396C63.1525 99.0336 63.2779 98.6332 62.1776 99.3508C61.5749 99.7438 60.1196 100.346 59.7954 100.967C59.2008 102.107 59.8598 103.691 59.8598 104.935C59.8598 105.806 60.1623 106.911 59.8598 105.376" stroke="white" stroke-width="2" stroke-linecap="round"/>
<path d="M71.1877 101.346C70.632 104.086 70 106.928 70 109.735C70 110.749 70.2969 111.732 70.2969 112.671C70.2969 115.398 70.6207 118.663 71.6331 121.237C73.4431 125.839 73.5205 131.852 77.8685 135.159C80.1835 136.92 82.8618 135.535 85.1432 134.45C87.0359 133.549 88.4328 132.823 89.729 131.094C90.7353 129.752 91.7943 127.99 92.4178 126.432C93.0343 124.891 93.1602 123.366 93.1602 121.737C93.1602 119.858 93.0086 123.354 93.0942 123.996C93.4413 126.599 93.6628 129.292 94.4798 131.804C94.8149 132.834 95.2804 134.125 95.5191 135.176C95.8173 136.488 96.4513 135.296 97.0202 134.74C97.5463 134.225 99.3179 133.047 98.9502 132.256C98.0174 130.249 98.3844 127.262 97.9769 125.093C97.5488 122.813 97.1079 120.215 97.0202 117.898C96.9239 115.355 95.9989 112.84 95.5356 110.348C95.0691 107.839 94.4209 104.965 93.3251 102.669C92.8648 101.704 92.978 100.538 92.5003 99.6035C91.9494 98.526 90.611 99.0454 90.2569 99.9584C88.2778 105.061 89.1598 110.877 87.0732 115.865C85.8145 118.874 84.4582 123.955 80.5573 124.802C78.2777 125.298 76.9623 122.579 76.4004 120.931C75.2988 117.699 74.6627 114.546 74.0085 111.219C73.6165 109.225 73.9087 107.198 73.4971 105.185C73.2024 103.744 72.8361 102.407 72.3754 101.055" stroke="white" stroke-width="2" stroke-linecap="round"/>
<path d="M50.6595 114.367C49.6912 117.073 47.7683 120.807 50.1295 123.317C51.447 124.718 53.0536 123.735 54.0899 122.422C55.4376 120.715 55.0317 118.644 54.5022 116.737C54.0923 115.261 53.1726 113.14 51.7195 114.367" stroke="white" stroke-width="2" stroke-linecap="round"/>
<path d="M109.971 88.3558C111.423 87.644 114.81 85.6837 116.789 86.0437C117.717 86.2127 118.599 86.6096 119.567 86.6096C122.038 86.6096 123.847 89.9313 124.963 91.6864C126.394 93.9376 128 97.4749 128 100.223C128 103.988 126.178 106.305 124.22 109.245C123.277 110.66 122.435 112.083 121.312 113.368C120.295 114.531 119.282 114.576 120.86 115.437C123.189 116.709 124.371 122.412 124.947 124.718C125.439 126.687 125.311 128.442 124.947 130.409C124.636 132.088 124.556 134.55 123.477 135.939C121.159 138.921 116.796 138.006 113.768 137.248C110.355 136.394 108.328 134.692 105.965 132.236C105.151 131.39 104.379 130.534 103.574 129.682C102.688 128.743 103.891 129.1 104.673 129.1C106.925 129.1 104.968 125.795 104.447 124.621C103.946 123.493 104.839 124.068 105.755 123.716C107.565 123.019 106.743 122.637 106.046 121.242C105.256 119.66 104.781 117.751 104.22 116.068C103.695 114.492 106.187 117.293 106.353 117.458C108.238 119.345 110.205 121.078 112.007 122.988C113.1 124.146 112.23 123.972 110.908 124.378C109.606 124.78 109.783 124.969 110.553 126.125C111.09 126.931 112.176 127.865 110.844 127.935C110.384 127.96 108.12 128.78 108.873 129.617C109.974 130.841 111.507 131.72 112.75 132.737C114.537 134.2 115.67 134.813 117.806 133.61C119.995 132.378 120.379 127.424 120.44 125.187C120.499 123.002 120.223 122.363 118.921 120.66C117.793 119.183 116.453 117.672 115.141 116.359C114.393 115.61 113.662 114.919 112.734 114.403C112.282 114.152 112.231 114.129 112.734 114.241C113.439 114.398 114.362 113.587 114.899 113.239C118.043 111.193 120.55 107.815 121.021 104.039C121.461 100.519 121.532 96.4998 119.422 93.4487C118.043 91.4549 116.327 91.266 114.059 91.266C112.937 91.266 111.822 91.3618 110.844 91.9128C110.266 92.2378 112.969 94.428 113.235 94.6937C114.429 95.8893 114.227 96.2135 112.588 96.2135C112.292 96.2135 109.73 96.1333 110.553 96.5692C111.134 96.8771 113.138 97.6798 113.138 98.4124C113.138 99.0916 109.486 101.057 108.938 101.452C107.356 102.591 105.595 103.409 104.01 104.508C103.551 104.826 103.088 105.144 102.573 105.365C102.339 105.465 102.935 104.403 102.993 104.217C103.467 102.673 104.922 102.181 105.965 101.096C107.586 99.4086 105.271 100.344 104.22 99.7705C103.536 99.3969 102.679 99.1008 102.12 98.5417C101.698 98.1192 102.502 98.271 102.766 98.186C104.382 97.6664 106.278 96.595 107.225 95.1141C107.534 94.6311 104.694 93.8295 104.22 93.6589C103.146 93.2717 104.838 92.6206 105.319 92.1391C106.172 91.2857 106.899 90.0654 107.936 89.4552C108.447 89.1542 109.604 88.6468 108.808 88.6468" stroke="white" stroke-width="2" stroke-linecap="round"/>
<path d="M152.386 105.145C148.431 104.09 146.106 103.344 142.386 104.855C140.182 105.749 139.007 107.717 137.827 109.657C136.617 111.646 137.092 114.935 137.092 117.167C137.092 119.734 137.848 122.093 138.268 124.58C138.876 128.175 139.816 133.199 143.562 134.959C149.109 137.563 154.222 131.622 155.85 126.965C156.936 123.858 156.951 126.635 157.549 128.351C158.33 130.589 159.491 132.483 160.768 134.443C161.424 135.449 163.412 137.239 162.827 134.701C162.208 132.013 163.212 129.108 162.958 126.353C162.726 123.835 162.816 121.21 162.321 118.714C161.78 115.987 160.909 113.446 159.87 110.882C158.48 107.455 157.09 106.014 153.562 104.855" stroke="white" stroke-width="2" stroke-linecap="round"/>
<path d="M147.55 115C146.261 117.213 143.409 120.916 146.151 123.307C147.754 124.704 149.21 123.755 150.452 122.515C151.901 121.069 152.139 119.037 151.938 117.106C151.677 114.585 149.445 115.148 147.865 115.91" stroke="white" stroke-width="2" stroke-linecap="round"/>
<path d="M167.035 100.584C166.271 106.062 165.429 111.659 166.526 117.137C167.486 121.93 168.202 126.211 170.328 130.68C171.528 133.202 173.118 135.488 175.403 137C178.723 139.197 183.197 137.544 185.218 134.275C187.685 130.286 190.949 125.644 189.879 120.447C189.438 118.3 189.568 120.517 189.72 121.417C190.139 123.891 190.674 126.295 191.375 128.69C191.853 130.324 192.635 132.082 193.507 133.522C194.112 134.523 194.208 136.028 195.034 134.291C196.572 131.058 195.992 126.898 195.225 123.44C194.122 118.473 192.941 113.418 191.534 108.56C190.541 105.131 190.413 101.469 189.307 98.1098C188.888 96.8391 188.117 96.555 187.366 97.8088C186.572 99.1345 186.749 100.931 186.364 102.39C185.856 104.313 185.874 106.3 185.505 108.242C185.048 110.641 184.38 113.01 183.643 115.331C182.614 118.576 181.293 122.075 178.775 124.343C178.093 124.957 176.49 125.083 175.769 124.494C174.374 123.354 174.276 120.915 173.907 119.244C173.343 116.685 173.188 114.074 172.539 111.553C172.067 109.716 171.409 107.963 170.885 106.152C170.465 104.702 170.239 103.212 169.755 101.788C169.434 100.843 168.78 100.641 168.467 99.9824" stroke="white" stroke-width="2" stroke-linecap="round"/>
<path d="M170.613 69.2559C173.652 69.2559 176.971 69 179.932 69C180.103 69 178.474 72.5352 178.334 72.9983C178.116 73.7144 177.716 74.3276 177.415 75.0135C177.14 75.6425 179.143 75.0576 179.337 75.0295C180.004 74.933 181.143 74.4399 181.752 74.8856C182.296 75.2836 180.915 77.8316 180.782 78.4041C180.506 79.5988 178.961 82.6249 180.868 82.2265C181.485 82.0974 185 81.3234 185 82.4984C185 84.9259 182.22 87.8827 181.038 89.9673C180.276 91.3106 179.505 92.7843 178.555 94.0136C177.876 94.8913 177.545 96.1303 176.735 96.8924C176.426 97.1826 175.89 97.8122 175.511 97.9799C174.894 98.2529 175.478 95.6509 175.511 95.469C175.92 93.1576 176.781 90.8643 177.041 88.5439C177.126 87.7833 177.585 87.9261 176.735 87.9681C176.287 87.9903 173.402 88.4225 173.402 88.0961C173.402 87.7298 174.283 86.4992 174.473 86.0809C174.975 84.9807 175.384 84.0081 175.749 82.8502C175.913 82.3296 175.882 81.8115 176.055 81.2829C176.417 80.1763 175.645 80.6507 175.034 80.7551C174.176 80.9018 169.943 81.2222 170.001 80.1953C170.054 79.2341 170.659 77.8807 170.919 76.9327C171.304 75.5302 171.36 74.1437 171.548 72.7265C171.63 72.1122 172.466 68.9528 171.225 70.1195" stroke="white" stroke-width="2" stroke-linecap="round"/>
<path d="M198.835 100.015C198.2 102.915 197.109 106.079 197.109 109.101C197.109 109.606 196.826 111.32 197.173 111.674C197.874 112.388 201.405 111.597 202.224 111.381C203.473 111.051 202.598 117.262 202.575 118.48C202.538 120.475 201.466 123.097 202.016 125.059C202.104 125.371 205.651 122.335 205.436 123.316C205.157 124.598 204.34 125.736 203.998 127.013C203.502 128.865 202.889 130.617 202.575 132.533C202.366 133.814 202 135.19 202 136.489C202 137.406 202.219 136.886 202.719 136.489C203.908 135.548 205.003 133.298 205.74 131.963C206.538 130.518 207.389 128.337 208.681 127.273C209.645 126.48 209.967 125.098 210.983 124.342C211.814 123.723 212.492 122.626 212.997 121.769C213.086 121.618 211.222 120.977 210.983 120.89C209.689 120.419 208.66 119.949 207.53 119.197C207.025 118.86 206.108 119.021 206.38 118.122C206.768 116.836 206.915 115.328 207.53 114.149C208.195 112.876 209.193 110.669 209.193 109.247C209.193 108.289 208.746 108.612 208.042 108.971C207.06 109.471 206.117 109.394 205.037 109.394C203.906 109.394 205.629 108.009 205.868 107.766C206.988 106.624 207.455 104.452 207.882 102.962C208.214 101.803 208.617 100.507 208.617 99.2984C208.617 98.5283 206.332 99.481 205.74 99.5752C204.051 99.844 202.378 99.6138 200.705 100.015C200.377 100.093 197.888 100.727 199.123 100.308" stroke="white" stroke-width="2" stroke-linecap="round"/>
<path d="M210.344 115.276C213.755 117.809 216.517 121.178 220.31 123.206C221.349 123.762 222.338 124.332 223.367 124.876C224.368 125.405 224.26 124.125 224.456 123.284C224.545 122.904 224.739 120.324 225.042 120.068C225.295 119.854 228.227 121.888 228.635 122.093C229.115 122.335 232 124.016 232 122.789C232 121.237 230.456 119.06 229.659 117.796C228.74 116.34 227.454 115.058 226.586 113.591C226.028 112.648 225.466 111.521 224.391 111.04C223.205 110.509 222.101 115.404 221.904 116.08C221.745 116.622 221.847 117.78 221.026 117.78C218.951 117.78 216.846 116.674 215.027 115.832C213.528 115.139 208.677 114.163 210.344 114.163" stroke="white" stroke-width="2" stroke-linecap="round"/>
<path d="M232.036 99C231.736 102.218 231.415 105.457 231.166 108.672C231.148 108.91 230.913 111.043 231.035 111.163C231.446 111.571 232.195 110.99 232.693 111.082C233.706 111.268 234.466 111.603 235.517 111.603C236.766 111.603 235.397 114.966 235.287 115.869C235.106 117.351 234.4 118.913 234.4 120.395C234.4 120.871 235.33 120.688 235.648 120.688C236.812 120.688 238.926 120.409 238.094 121.877C236.711 124.315 235.849 127.122 234.991 129.774C234.596 130.997 234.526 132.316 234.384 133.584C234.362 133.777 233.859 135.725 234.564 134.707C237.079 131.08 239.947 127.728 242.379 124.042C243.423 122.461 244.344 120.842 245.499 119.369C246.875 117.614 245.149 117.686 243.561 117.171C242.174 116.721 239.226 116.989 240.179 115.234C240.502 114.64 242.774 109.281 242.379 109.258C241.322 109.196 238.268 109.302 237.963 107.939C237.797 107.197 238.665 106.086 238.899 105.415C239.523 103.623 240.902 101.228 240.902 99.2931C240.902 98.6883 235.986 100.172 235.303 100.172C234.711 100.172 234.105 100.207 233.514 100.172C233.247 100.157 232.955 99.5862 233.218 99.5862" stroke="white" stroke-width="2" stroke-linecap="round"/>
<path d="M251 112.714C251.103 112.649 260.592 105.771 261.037 107.194C261.462 108.55 261.056 110.509 261.056 111.906C261.056 112.846 263.211 111 263.83 110.745C265.661 109.993 264.87 114.875 264.87 115.914C264.87 117.509 264.506 117.787 266.084 116.987C267.874 116.08 267.527 117.743 267.664 118.745C267.773 119.543 269.531 131 268.839 131C268.471 131 266.53 127.004 266.335 126.64C265.882 125.797 265.817 124.822 265.391 123.967C265.023 123.229 264.895 124.399 264.716 124.811C264.46 125.402 263.249 128.82 262.27 128.82C261.907 128.82 261.13 123.136 261.056 122.684C260.886 121.636 260.509 120.535 260.17 119.519C260.012 119.047 259.756 118.607 259.688 118.112C259.679 118.044 259.725 117.286 259.592 117.286C259.076 117.286 256.661 120.428 256.124 120.873C255.128 121.699 254.155 117.538 253.851 116.899C253.455 116.064 251.584 113.448 252.387 112.714" stroke="white" stroke-width="2" stroke-linecap="round"/>
<path d="M273.309 108.643C272.568 112.194 272.139 116.066 271.177 119.573C270.944 120.425 270.812 121.073 271.888 120.865C272.737 120.701 276.837 119.836 275.276 121.604C274.402 122.594 273.941 123.941 273.363 125.111C272.111 127.651 270.623 130.038 269.374 132.57C268.307 134.733 266.935 136.629 265.767 138.699C265.482 139.206 264.94 139.216 265.84 139.216C267.124 139.216 268.3 138.256 269.538 138.256C270.837 138.256 268.591 140.902 268.463 141.062C267.117 142.752 265.753 144.507 264.638 146.361C262.497 149.92 259.875 153.567 258.226 157.327C257.883 158.109 257.884 158.151 258.554 157.752C259.135 157.405 259.471 156.712 259.938 156.238C261.109 155.051 262.437 153.964 263.727 152.915C268.759 148.823 272.417 143.785 276.442 138.773C277.221 137.803 280.323 135.35 278.081 134.564C277.173 134.245 276.217 134.024 275.294 133.752C274.955 133.651 273.645 133.923 273.527 133.844C273.387 133.749 274.549 132.827 274.62 132.755C275.443 131.921 276.282 131.086 277.098 130.244C278.758 128.529 279.837 126.092 280.832 123.948C281.639 122.21 283.3 120.393 283.801 118.613C284.486 116.184 280.815 119.076 281.342 118.114C282.694 115.647 284.732 113.16 285.441 110.286C285.552 109.837 286.4 108.322 285.769 108.053C285.319 107.861 284.576 108.253 284.111 108.293C282.928 108.392 281.709 108.311 280.522 108.311C279.06 108.311 277.292 107.995 275.932 108.643C275.156 109.014 274.473 108.976 273.637 108.976" stroke="white" stroke-width="2" stroke-linecap="round"/>
<path d="M64.3998 59C63.9264 51.2829 64.0049 43.5037 64.0049 35.9686C64.0049 35.4071 64.0049 34.8455 64.0049 34.284C64.0049 33.5363 66.2865 34.5148 67.1648 34.3994C70.3039 33.9867 73.1226 34.9071 76.2496 34.9071C77.44 34.9071 79.6188 34.4551 80.7481 34.9301C80.8258 34.9629 80.5945 41.1205 80.5945 41.5996C80.5945 45.4785 80.4877 49.1733 80.5945 53.046C80.6133 53.7303 81.4974 58.2286 80.5945 57.7538" stroke="white" stroke-width="3" stroke-linecap="round"/>
<path d="M90 42C87.75 48.5505 90 68.2402 90 61.6802" stroke="white" stroke-width="3" stroke-linecap="round"/>
<path d="M89.4278 47.3287C91.9566 43.2983 94.5798 39.687 99.9321 41.4655C103.599 42.6839 104.144 45.1974 103.972 48.5013C103.852 50.8059 101.914 55.4271 99.029 55.9064C94.1405 56.7185 92.4312 52.0234 89 50.4557" stroke="white" stroke-width="3" stroke-linecap="round"/>
<path d="M114.135 43.7778C112.298 46.2492 110.023 49.4431 111.446 52.8573C112.048 54.2998 113.734 55.4999 115.139 55.8277C118.539 56.6207 124.325 54.6553 124.952 50.3715C125.371 47.5146 122.956 42.3219 120.457 41.3131C117.123 39.9671 115.033 43.2255 114.135 46.053" stroke="white" stroke-width="3" stroke-linecap="round"/>
<path d="M133.079 49.3346C136.137 48.904 139.954 48.1583 143.045 48.1583C144.123 48.1583 145.479 47.7644 145.889 46.59C146.731 44.1755 142.56 42.8052 141.112 42.277C139.312 41.6203 136.665 42.205 135.033 43.2572C131.804 45.3399 130.849 51.4097 133.666 54.2356C135.184 55.7592 137.266 56 139.332 56C140.789 56 144.27 53.0063 143.24 54.0396" stroke="white" stroke-width="3" stroke-linecap="round"/>
<path d="M153 42C153.39 44.9425 154.264 47.9583 153.923 50.8466C153.812 51.7792 153.762 52.6693 153.889 53.5771C154.005 54.4049 153.604 55.6614 153.604 54.5819" stroke="white" stroke-width="3" stroke-linecap="round"/>
<path d="M154 51C156.718 48.7267 159.378 46.4291 161.975 44.0448C162.418 43.6388 165.039 40.7758 163.544 42.6051" stroke="white" stroke-width="3" stroke-linecap="round"/>
<path d="M157 48C159.652 50.509 163.063 52.8182 165 56" stroke="white" stroke-width="3" stroke-linecap="round"/>
<path d="M176 42C176 45.5714 176 49.2004 176 52.7006C176 53.6317 176 56.6971 176 53.7497" stroke="white" stroke-width="3" stroke-linecap="round"/>
<path d="M168 42C171.775 42 175.487 42 179.101 42C180.007 42 180.723 42 181.663 42C182.495 42 183.674 42 182.517 42" stroke="white" stroke-width="3" stroke-linecap="round"/>
<path d="M189 41C189 44.9209 189 48.8417 189 52.7626C189 53.5517 189 57.8948 189 55.0392" stroke="white" stroke-width="3" stroke-linecap="round"/>
<path d="M189.381 46C190.889 46.0196 200.79 46.402 197.235 51.4365C196.289 52.7757 194.527 54.8283 192.949 54.896C192.112 54.9319 191.266 54.896 190.428 54.896C189.728 54.896 188.324 55.3081 189.381 54.4916" stroke="white" stroke-width="3" stroke-linecap="round"/>
<path d="M203 41C203.379 43.9878 204.338 47.6235 203.877 50.7145C203.686 51.9967 203.632 53.2034 203.632 54.5019C203.632 55.907 203.632 60.1223 203.632 58.7172" stroke="white" stroke-width="3" stroke-linecap="round"/>
<path d="M227.165 56.2183C226.834 52.5302 226.02 48.7215 226.02 45.0133C226.02 44.2671 225.886 43.5722 226.317 42.9893C226.49 42.7554 226.262 42.1074 226.614 42.0086C227.017 41.8953 227.849 42.936 228.332 43.031C230.138 43.3865 232.351 43.4484 234.207 43.4484C236.792 43.4484 237.617 41.6768 237.876 44.9924C238.095 47.7944 238.567 50.6081 238.618 53.4223C238.632 54.1746 238.24 57.3432 239 56.9695" stroke="white" stroke-width="3" stroke-linecap="round"/>
<path d="M249.114 44.9983C246.168 49.8496 245.688 53.4712 251.696 55.7046C254.62 56.7918 258.621 54.685 260.198 52.525C261.915 50.1742 260.82 43.3639 257.427 42.3016C254.091 41.2572 251.884 43.1428 249.541 44.6361" stroke="white" stroke-width="3" stroke-linecap="round"/>
</svg>
