<svg width="344" height="125" viewBox="0 0 344 125" fill="none" xmlns="http://www.w3.org/2000/svg">
<path d="M93.9118 83.6136C99.4429 78.0826 104.999 72.6401 110.185 66.7847C112.499 64.1725 115.282 60.5732 116.392 57.2432C118.39 51.248 113.333 54.8591 111.451 57.7681C107.441 63.965 106.885 72.2907 103.361 78.7348C99.5762 85.655 97.2871 93.4493 93.9118 100.597C93.4236 101.631 92.486 103.079 93.356 101.122C94.7982 97.8769 96.0213 94.4447 97.8334 91.3642C102.283 83.7993 106.829 76.1352 112.532 69.4403C115.732 65.6835 122.683 56.3289 128.373 58.1695C131.177 59.077 129.37 62.6574 129.484 64.7158C129.49 64.8282 130.272 63.1186 129.484 61.9367" stroke="white" stroke-width="2" stroke-linecap="round"/>
<path d="M101.693 83.6137C101.989 83.4476 117.818 73.8764 116.947 81.4213C116.277 87.2303 111.142 91.7881 111.142 97.7253C111.142 102.406 119.628 94.1819 120.591 93.3096C122.085 91.9559 126.008 88.6461 126.149 86.3927C126.164 86.1504 124.496 89.3712 124.204 90.0673C122.137 94.9948 120.621 104.123 129.052 101.276C137.183 98.5308 143.379 90.8318 143.379 82.1932C143.379 75.1607 135.621 75.3625 131.707 79.1671C127.729 83.0345 124.743 87.0145 123.37 92.5067" stroke="white" stroke-width="2" stroke-linecap="round"/>
<path d="M151.717 76.9438C149.109 84.1496 140.947 105.624 144.059 98.6207C145.121 96.2317 145.92 93.7464 146.992 91.3642C147.522 90.1863 148.093 87.6675 149.247 89.4806C151.555 93.1082 155.232 91.7771 158.263 89.1718C161.075 86.7558 164.207 82.2125 165.18 78.6113C166.508 73.6976 161.891 83.3335 161.413 84.54C160.412 87.0649 156.898 92.9362 158.726 95.7799C160.429 98.4285 164.771 95.4016 166.292 94.2977C170.434 91.2911 174.421 87.4234 177.284 83.1813C178.323 81.6425 179.629 80.0134 180.002 78.1481C180.179 77.2598 179.875 76.6095 179.199 77.5923C176.187 81.9729 176.363 88.6023 174.505 93.5566C173.959 95.0125 172.529 97.2256 172.529 98.806C172.529 100.462 174.379 96.0534 175.185 94.6065C177.711 90.0698 180.085 85.0686 183.954 81.5139C187.595 78.1692 191.115 75.5818 190.562 82.3476C190.173 87.1188 188.913 92.1444 186.486 96.3048C184.815 99.1693 188.391 89.857 190.192 87.0721C192.607 83.3355 197.259 77.1341 202.049 76.2027C204.086 75.8066 201.642 88.315 201.463 89.1409C200.632 92.9732 198.548 97.3354 198.992 101.338C199.327 104.354 206.14 98.946 206.866 97.8179C210.05 92.8731 211.131 86.9677 215.636 82.8725C217.778 80.9248 223.383 75.8997 224.776 80.2787C224.982 80.9244 225.085 85.4709 225.085 83.6136C225.085 81.3442 224.773 78.157 221.997 77.6231C213.727 76.0327 207.279 101.594 212.641 102.388C217.334 103.083 222.577 94.4528 224.467 91.0863C225.987 88.3798 226.888 85.431 227.864 82.502C228.309 81.1655 228.774 79.8333 229.192 78.4877C229.322 78.0692 229.838 77.1049 229.408 77.1908C226.559 77.7606 225.732 87.1703 225.394 89.2336C225.067 91.2287 222.091 99.778 225.425 101.06C228.808 102.362 232.561 97.1999 234.101 95.0388C237.566 90.1769 240.92 85.2976 242.562 79.4759C242.854 78.4406 243.586 76.7601 243.427 75.6469C243.218 74.184 242.402 78.4226 242.006 79.8464C240.138 86.5715 238.531 93.5868 236.201 100.165C236.055 100.578 233.428 106.701 234.101 103.932C235.317 98.934 238.729 94.0574 241.79 90.0055C244.746 86.0931 247.957 83.5413 252.166 81.1742C252.853 80.7878 248.601 82.1336 247.75 82.6255C244.234 84.657 237.974 89.2613 241.759 93.5875C243.401 95.4636 249.685 99.5802 251.888 97.8179C257.834 93.0604 264.881 70.366 262.572 77.6231C260.729 83.4154 260.282 89.6198 258.434 95.4711C257.961 96.9672 255.781 101.027 256.89 99.9176C257.846 98.962 258.084 96.789 258.681 95.5946C260.928 91.1009 264.077 86.7808 267.204 82.8725C268.503 81.2476 275.047 75.6019 275.047 80.9581C275.047 85.8267 273.232 90.9127 271.527 95.4093C270.167 98.9932 271.535 92.3199 271.897 91.3951C273.785 86.5698 277.625 81.8975 281.655 78.7348C285.666 75.5871 286.58 77.523 285.916 81.7918C285.39 85.1738 284.559 88.4295 283.569 91.7039C282.975 93.669 281.658 96.4021 281.871 98.5281C282.237 102.19 289.444 96.5261 290.239 95.7181C294.392 91.4991 296.715 84.976 299.564 79.8464C300.51 78.1445 301.531 76.1467 302.807 74.6588C304.305 72.9109 301.821 79.157 301.263 81.3904C300.282 85.3133 298.297 91.3875 299.04 95.4711C299.258 96.6745 303.208 95.8629 303.208 94.0507C303.208 91.8306 301.212 89.4816 299.564 88.1837C296.934 86.1109 302.767 86.8045 304.289 86.331C308.723 84.9514 312.007 81.7514 314.263 77.7775C314.837 76.7652 316.287 73.6263 315.56 74.5353C314.259 76.161 314.304 79.7023 313.769 81.6374C313.184 83.7528 309.241 94.5393 313.367 95.4711C320.175 97.0082 326.383 90.2517 329.579 85.2811" stroke="white" stroke-width="2" stroke-linecap="round"/>
<path d="M17.9058 104.162C17.2826 97.7399 16.2244 89.2332 17.906 82.9657C18.7405 79.8552 20.0583 76.7412 21.4924 73.873C24.561 67.7359 27.9539 61.7762 31.9353 56.1729C36.2474 50.104 40.484 44.3929 45.5637 38.9369C49.2756 34.95 52.4674 30.5621 56.8083 27.2493C60.5299 24.4091 64.1176 21.3779 68.0317 18.7684C71.8305 16.2359 75.3136 14.351 79.5927 12.9246C85.3608 11.0019 89.0787 10.7665 95.0115 11.162C97.8445 11.3509 101.69 11.7726 104.011 13.662C106.333 15.5514 108.011 17.662 108.011 17.662" stroke="white" stroke-width="2" stroke-linecap="round"/>
<path d="M18.0115 104.231C23.4298 104.713 28.1667 105.293 33.4752 104.231C36.9824 103.53 43.9722 102.548 47.0115 100.662C51.8752 97.6431 55.4202 94.6776 58.9178 90.1807C61.6894 86.6172 61.6139 82.3445 60.0992 78.3455C59.2468 76.0953 57.5111 73.2823 54.9094 73.2823" stroke="white" stroke-width="2" stroke-linecap="round"/>
<path d="M108.012 17.662C109.754 20.2583 111.947 21.7511 110.267 24.7599C108.879 27.2479 107.791 29.7683 106.153 32.1227C102.698 37.09 99.3082 44.1753 93.8329 47.2701C90.7815 48.9948 87.4827 49.91 83.9174 49.7173C81.3492 49.5785 77.7403 49.5443 75.4999 48.0507C73.4267 46.6685 72.9816 45.2747 72.7784 42.7343C72.6311 40.8929 72.5115 35.3147 72.5115 37.162" stroke="white" stroke-width="2" stroke-linecap="round"/>
<path d="M72.5115 36.662C66.5115 39.162 62.5293 42.1442 55.5115 49.162C52.5115 52.162 51.0995 54.494 49.0115 57.162C47.3274 59.3139 45.6819 62.4803 45.0115 65.162C44.6031 66.7957 43.5115 68.662 43.5115 72.162" stroke="white" stroke-width="2" stroke-linecap="round"/>
<path d="M44.2766 71.7633C47.8532 72.1101 51.9237 71.84 55.2891 73.2823" stroke="white" stroke-width="2" stroke-linecap="round"/>
<path d="M155.334 20.0829C154.424 22.4053 151.52 26.7185 154.893 28.0219C156.248 28.5453 157.74 28.7639 159.178 28.463C161.659 27.9437 163.073 25.606 163.966 23.4853C166.372 17.7724 157.7 17.15 154.767 20.0829" stroke="white" stroke-width="2" stroke-linecap="round"/>
<path d="M208.639 18.3816C205.013 22.109 201.311 25.2979 207.505 27.7068C209.177 28.357 212.629 28.4718 214.184 27.4548C216.051 26.2343 216.241 24.409 215.98 22.3196C215.543 18.8288 211.257 18.6869 208.639 18.9487" stroke="white" stroke-width="2" stroke-linecap="round"/>
<path d="M258.542 17.2475C256.6 20.9248 253.778 24.0251 258.542 25.9742C260.615 26.822 263.007 26.2237 264.496 24.6195C268.604 20.1957 260.624 14.4547 257.408 20.0829" stroke="white" stroke-width="2" stroke-linecap="round"/>
<path d="M144.996 43.0526C196.163 43.2685 349.66 41.7735 298.493 41.7735" stroke="white" stroke-width="2" stroke-linecap="round"/>
</svg>
