<svg width="160" height="160" viewBox="0 0 160 160" fill="none" xmlns="http://www.w3.org/2000/svg">
<path d="M36.1848 70.7788C34.9857 66.7069 33.3618 62.2967 33.3618 57.9634C33.3618 56.3845 34.3497 57.6518 34.9749 58.277C36.7092 60.0112 38.7951 61.5841 40.7105 63.1164C42.6173 64.6418 43.1064 65.0427 44.5641 63.1164C46.0305 61.1787 47.3677 58.9685 49.0899 57.2464C49.8633 56.473 50.4549 55.1684 50.7926 56.3502C51.5418 58.9723 52.3501 61.6114 52.9434 64.2815C53.0945 64.9612 53.9488 69.5494 54.3325 69.1657" stroke="white" stroke-width="2" stroke-linecap="round"/>
<path d="M70.4639 57.4704C68.0412 55.6615 65.0395 53.4143 61.995 55.2748C60.0644 56.4546 58.9091 58.6088 58.1862 60.6743C57.4043 62.9084 58.7797 66.4392 60.6955 67.6421C63.3721 69.3228 66.0545 68.9597 68.3579 66.6563C70.2319 64.7824 71.2705 61.8638 71.2705 59.2628C71.2705 58.6249 71.1122 53.8727 71.2929 55.4988C71.6468 58.6834 73.3197 61.9239 74.5864 64.8192C74.9342 65.6143 77.5014 69.2765 76.9165 69.5689" stroke="white" stroke-width="2" stroke-linecap="round"/>
<path d="M81.3525 54.2442C81.3932 59.5733 81.3507 65.2332 86.8193 67.8662C90.846 69.805 93.615 65.4753 95.0418 62.2651C95.8003 60.5582 96.2394 58.5329 96.274 56.6639C96.2835 56.153 96.3394 53.9278 95.9603 55.6333C95.0925 59.5384 97.712 63.4057 99.8812 66.2979C102.365 69.61 105.641 69.5567 107.902 65.9394C109.797 62.9071 110.058 58.8434 109.089 55.4541C108.8 54.4398 108.397 54.6853 108.171 55.4989C107.681 57.264 108.624 59.3516 108.977 61.0776C109.734 64.7756 112.335 67.6752 113.212 71.1821" stroke="white" stroke-width="2" stroke-linecap="round"/>
<path d="M60.3818 86.9101C59.2637 90.2305 58.1022 92.3435 59.2616 95.6927C60.1042 98.127 62.1277 100.038 64.4146 101.182C68.0337 102.991 72.2098 100.352 73.6005 96.9026C75.0127 93.4003 73.7979 88.9281 71.0464 86.5068C67.1617 83.0882 63.5239 82.4549 59.9785 86.5068" stroke="white" stroke-width="2" stroke-linecap="round"/>
<path d="M79.3362 83.2806C80.8615 87.9101 81.7533 93.3473 83.8619 97.7988C84.4982 99.1421 84.1596 98.6399 83.7723 97.5747C83.3764 96.486 82.6449 91.9145 82.9657 92.5561" stroke="white" stroke-width="2" stroke-linecap="round"/>
<path d="M82.1592 92.556C83.5374 89.4431 85.0835 86.4833 86.5953 83.4598C87.0158 82.6187 87.1403 82.2342 87.4019 83.2805" stroke="white" stroke-width="2" stroke-linecap="round"/>
<path d="M81.7559 91.7495C87.6709 93.0387 93.0174 93.7052 95.8708 99.4119" stroke="white" stroke-width="2" stroke-linecap="round"/>
<path d="M91.4122 17.7919C83.1887 21.7568 75.2779 31.9657 72.077 40.5326C71.9154 40.6943 68.5843 33.9183 68.1338 33.0495C66.5968 30.0853 64.646 27.4363 62.1966 25.1854C59.6255 22.8228 57.6774 19.8251 54.0637 18.9794C49.2319 17.8485 44.1212 19.2204 39.3215 19.9652C34.0471 20.7836 29.5314 22.5686 25.5202 26.2385C18.1411 32.9896 13.9836 44.726 15.2141 54.6475C16.7856 67.3173 22.6602 78.6372 28.7913 89.6883C31.7816 95.0781 34.7603 100.577 39.075 105.058C42.9465 109.078 47.5319 112.372 51.4872 116.327C58.9498 123.79 66.6842 131.33 73.5109 139.382C75.5347 141.769 78.1488 144.045 79.829 146.686L79.8471 146.714C80.2036 147.275 81.3564 149.089 82.0695 147.806C87.6895 137.69 95.8384 129.69 103.981 121.548L104.585 120.944C112.078 113.451 119.549 105.981 126.744 98.2021C133.131 91.298 138.402 84.2954 141.442 75.2598C145.396 63.5023 144.682 51.4411 140.725 39.8157C137.086 29.1272 130.083 15.0643 117.894 12.5492C108.827 10.6782 99.5346 13.8758 91.4122 17.7919Z" stroke="white" stroke-width="2" stroke-linecap="round"/>
</svg>
