<svg width="345" height="275" viewBox="0 0 345 275" fill="none" xmlns="http://www.w3.org/2000/svg">
<g clip-path="url(#clip0_233_17)">
<path d="M153.5 45C144 51.5 146.274 49.7834 138.487 56.583C135.079 59.5596 132.265 63.5318 129.615 67.158C127.458 70.1093 124.138 74.9984 123 78.5C120.745 85.4391 119.533 90.2313 119.533 97.5834C119.533 99.8178 120 102.254 120 104.5C120 105.392 119 107 118 109" stroke="white" stroke-width="2" stroke-linecap="round"/>
<path d="M117.92 109.323C115.791 114.125 113.399 118.309 109.877 122.184C107.862 124.4 105.443 125.985 103.312 127.964C100.814 130.284 98.0329 130.643 97 134C95.9815 137.31 98.9819 139.209 101.385 140.376C103.296 141.304 105.091 142.429 106.852 143.603C108.179 144.487 109 146 110 148" stroke="white" stroke-width="2" stroke-linecap="round"/>
<path d="M109.854 147.635C113.722 155.371 116.542 164.113 116.71 172.863C116.818 178.494 116.247 184.877 121.729 188.165C124.498 189.827 127.978 189.567 131.027 189.174C135.73 188.567 140.55 188.218 145.209 187.336C153.5 185.5 147 186.836 155.5 185" stroke="white" stroke-width="2" stroke-linecap="round"/>
<path d="M154.5 185.5C157.926 187.815 161.849 190.673 163.917 194.327C166.088 198.163 167.201 202.552 168.51 206.739C170.221 212.214 171.96 218.054 171.96 223.856" stroke="white" stroke-width="2" stroke-linecap="round"/>
<path d="M167.5 203.5C164.198 207.697 159.586 212.605 154.708 214.894C150.607 216.819 146.562 218.9 142.52 220.943C137.342 223.561 129.852 225.061 125.986 229.479C122.119 233.899 119.064 238.831 116.733 244.222C115.256 247.636 114.25 250.5 112.5 254C111.5 256 111.666 257.668 111 259" stroke="white" stroke-width="2" stroke-linecap="round"/>
<path d="M216.321 201.675C217.553 203.474 218.805 205.606 220.78 206.716M234.67 214.782C243.501 219.034 251.763 224.375 260.458 228.897C264.05 230.765 267.351 233.274 270.966 235.148C274.189 236.819 276.5 238.5 280.129 241.197C281.5 242.216 284 244.5 285 245.5C285.8 246.3 286.919 247.442 288.89 250.293C291.78 254.477 292.794 259.264 293.751 264.184C295.089 271.057 298.95 276.732 301.414 283.138" stroke="white" stroke-width="2" stroke-linecap="round"/>
<path d="M162.281 209.741C162.281 213.669 162.201 217.526 161.967 221.436C161.781 224.556 161.59 227.952 162.684 230.936C163.875 234.183 166.213 235.578 169.338 236.761C174.5 238 175 238 180.5 238" stroke="white" stroke-width="2" stroke-linecap="round"/>
<path d="M132.438 106.501C132.181 107.034 130.553 110.925 132.035 111.337C132.985 111.601 133.327 110.704 133.961 110.04C134.822 109.14 135.102 105.358 133.155 106.68C131.659 107.695 131.446 111.447 133.648 110.04C135.353 108.951 135.698 106.245 133.446 105.56C131.238 104.887 130.189 108.545 130.937 110.04C132.248 112.663 135.437 110.531 135.437 108.648C135.437 106.929 133.692 103.205 132.281 105.918C131.449 107.517 130.982 114.079 134.365 111.385C135.79 110.25 136.095 106.965 133.558 107.083C132.208 107.146 130.953 110.167 131.811 111.25C132.994 112.745 134.982 108.708 134.051 107.486C133.339 106.552 132.696 108.979 133.469 109.682C134.63 110.738 135.1 108.309 134.634 107.576C134.012 106.6 132.65 109.491 133.446 110.287C133.605 110.446 134.773 106.711 133.222 107.195C131.778 107.646 132.035 109.379 132.035 110.533" stroke="white" stroke-width="2" stroke-linecap="round"/>
<path d="M128.405 102.064C128.644 102.503 131.117 107.932 131.632 106.904" stroke="white" stroke-width="2" stroke-linecap="round"/>
<path d="M132.841 100.854L133.648 106.904" stroke="white" stroke-width="2" stroke-linecap="round"/>
<path d="M124 94C130.792 91.8181 136.072 91.5661 143 92.5488" stroke="white" stroke-width="2" stroke-linecap="round"/>
<path d="M131.228 105.694C134.352 103.982 139.484 101.788 142.923 104.081" stroke="white" stroke-width="2" stroke-linecap="round"/>
<path d="M154.619 185.141C158.821 183.859 162.512 182.412 165.955 179.674C166.865 178.951 167.5 178.5 168.734 177.478" stroke="white" stroke-width="2" stroke-linecap="round"/>
<path d="M178.412 106.904C180.304 106.063 182.76 104.238 184.865 105.291C186.827 106.272 187.717 107.715 188.472 109.727C189.903 113.544 190.217 118.294 189.48 122.296C188.604 127.049 186.83 133.508 182.355 136.254C180.031 137.68 175.379 137.325 174.379 134.327" stroke="white" stroke-width="2" stroke-linecap="round"/>
<path d="M181.639 112.146C181.517 112.355 176.831 120.72 177.404 120.593C178.95 120.25 179.834 120.056 181.056 121.422C182.118 122.608 180.855 126.004 179.802 126.866C179.08 127.457 174.95 128.602 176.396 129.084" stroke="white" stroke-width="2" stroke-linecap="round"/>
<path d="M151.796 45.2015C145.503 45.8378 141.142 47.7846 137.053 52.5951C134.341 55.7861 129.454 58.9555 130.825 63.7526" stroke="white" stroke-width="2" stroke-linecap="round"/>
<path d="M155.5 43.5C151.312 46.174 143.12 53.4889 144.223 59.3164C144.91 62.9478 145.415 66.5942 147.046 69.981C150.787 77.7501 158.134 81.4684 166.314 83.5134" stroke="white" stroke-width="2" stroke-linecap="round"/>
<path d="M166 83.5C168.41 86.2068 170.167 87.9039 171.064 91.3998C171.521 93.1837 171.513 95.0965 172.184 96.8217C172.8 98.4048 172.896 100.308 173.819 101.728C175.473 104.272 177.235 104.994 180 106" stroke="white" stroke-width="2" stroke-linecap="round"/>
<path d="M177.606 137.15C176.828 142.593 175.492 147.992 174.828 153.438C174.074 159.616 175.119 165.77 176.396 171.788C177.485 176.922 177.768 182.164 178.614 187.336C179.551 193.06 180.388 198.826 181.034 204.588C182.53 217.936 181.935 231.216 179.555 244.423C178 253.053 174.637 260.781 170.436 268.441C168.347 272.25 166.164 276.075 165.104 280.315" stroke="white" stroke-width="2" stroke-linecap="round"/>
<path d="M152 45C158.917 42.5244 164.377 39.0486 170.996 35.8363C175.154 33.8189 179.551 31.6787 184.036 30.504C194.775 27.6915 204.3 29.9459 214.708 33.5063" stroke="white" stroke-width="2" stroke-linecap="round"/>
<path d="M214.5 33.5C221.405 37.2182 227.368 39.7061 233.5 44.5C239.059 48.846 240 50.5 246.5 56.5C250.5 61.5 252.398 66.1406 253.602 70.0706C255.057 74.8207 256.518 79.5665 257.949 84.3199C260.1 91.4653 261.385 98.1946 261.982 105.649C262.64 113.876 265.295 121.987 267.135 130.003C269.042 138.314 269.512 146.679 270.787 155.074C271.969 162.857 273.754 170.537 274.573 178.374C275.107 183.489 275.069 188.693 275.828 193.789C276.804 200.343 279.002 206.28 281.653 212.317C285.943 222.089 292.243 230.774 297.56 239.942C301.013 245.896 305.166 251.047 307.665 257.575C310.99 266.264 312.894 274.676 313.512 283.945" stroke="white" stroke-width="2" stroke-linecap="round"/>
<path d="M216.5 202C221.35 217.139 220.686 238.18 214.327 252.489C212.124 257.445 210.139 263.214 209.286 268.575C208.811 271.561 208.579 274.718 208.681 277.739C208.785 280.816 209.242 283.406 208.255 286.365" stroke="white" stroke-width="2" stroke-linecap="round"/>
<path d="M213.095 239.181C212.401 245.217 211.915 251.363 209.936 257.149C208.277 261.997 206.066 266.634 204.424 271.488C202.245 277.93 201.158 284.028 201.803 290.801" stroke="white" stroke-width="2" stroke-linecap="round"/>
<path d="M187.688 248.053C187.619 252.562 187.641 257.085 186.568 261.496C185.462 266.037 183.323 270.241 181.258 274.401C179.611 277.716 177.687 281.049 176.687 284.64C175.66 288.332 175.871 291.881 175.993 295.64" stroke="white" stroke-width="2" stroke-linecap="round"/>
<path d="M192.527 256.925C189.663 267.556 185.712 278.171 184.865 289.188" stroke="white" stroke-width="2" stroke-linecap="round"/>
<path d="M221 207C226.168 217.852 232.342 226.874 232.452 239.45C232.491 243.862 231.988 247.544 230.436 251.682C228.865 255.871 226.5 261.5 224 264.5" stroke="white" stroke-width="2" stroke-linecap="round"/>
<path d="M235 215C236.801 218.362 238.5 225 238.5 227C238.5 229 239.5 233.5 239 237C238.5 240.5 237.5 251 224.5 264.5" stroke="white" stroke-width="2" stroke-linecap="round"/>
<path d="M137.277 189.174C135.606 192.6 134.617 196.438 132.572 199.681C129.47 204.603 126.165 209.382 122.938 214.222C117.014 223.108 111.5 231 107 240.5" stroke="white" stroke-width="2" stroke-linecap="round"/>
<path d="M111.5 257.5C108.322 267.195 105.814 275.188 102.864 284.953C102.137 287.36 101.032 289.94 101.385 292.414" stroke="white" stroke-width="2" stroke-linecap="round"/>
<path d="M107.5 239.5C103.236 247.602 101.975 258.215 96.9491 265.887C96.0149 267.313 94.8164 268.545 93.3196 269.337C92.8455 269.588 92.9234 270.189 93.5436 270.189C94.5714 270.189 95.9989 269.048 96.7251 268.419C98.7042 266.703 100.357 264.809 102.192 262.974C102.991 262.175 103.889 260.371 104.791 259.77C105.261 259.457 104.375 260.822 104.208 261.361C103.586 263.376 103.438 265.421 103.178 267.5C102.492 272.986 101.368 278.177 100.175 283.542" stroke="white" stroke-width="2" stroke-linecap="round"/>
<path d="M116 154.016C120.758 154.537 124.581 154.8 128.502 152" stroke="white" stroke-width="2" stroke-linecap="round"/>
<path d="M173.08 112.46C174.5 110.5 174.313 110.687 175.5 109.5C177.5 107.5 178.071 106.903 180 106" stroke="white" stroke-width="2" stroke-linecap="round"/>
<path d="M106.041 139.805C107.323 140.37 108.934 140.847 110.04 141.752C110.165 141.854 110.289 141.848 110.442 141.848" stroke="white" stroke-width="2" stroke-linecap="round"/>
<path d="M122.543 120.945C123.483 122.159 122.976 120.363 122.77 120.325C122.239 120.229 121.91 121.417 122.543 121.417" stroke="white" stroke-width="2" stroke-linecap="round"/>
<path d="M150.361 138.705C148.945 139.855 150.853 139.502 150.448 138.617C150.14 137.942 149.489 139.177 149.767 139.456C150.062 139.751 150.89 139.263 150.326 139.054C149.624 138.794 149.418 139.046 149.418 139.648" stroke="white" stroke-width="2" stroke-linecap="round"/>
<path d="M127.665 150.313C128.448 151 129.514 151.65 130.096 152.523" stroke="white" stroke-width="2" stroke-linecap="round"/>
<path d="M79.4986 91.6988C77.3576 95.4867 70.7659 105.598 79.2909 107.451C84.8536 108.66 88.5692 101.105 89.0804 96.5046C89.4739 92.9625 88.7004 89.2315 84.9569 88.0797C81.1639 86.9126 79.7247 91.2465 78.4306 93.8347" stroke="white" stroke-width="2" stroke-linecap="round"/>
<path d="M27.1693 64.4662C21.9836 71.6716 14.2266 84.8212 19.8124 93.8346C22.5608 98.2695 28.4735 99.6194 33.3693 99.0853C44.103 97.9144 51.1003 85.9084 49.5961 75.6796C48.577 68.7501 46.0203 58.5395 37.0774 59.1562C31.1504 59.565 26.2812 64.2547 23.9655 69.272" stroke="white" stroke-width="2" stroke-linecap="round"/>
</g>
<defs>
<clipPath id="clip0_233_17">
<rect width="345" height="275" fill="white"/>
</clipPath>
</defs>
</svg>
