<svg width="60" height="60" viewBox="0 0 60 60" fill="none" xmlns="http://www.w3.org/2000/svg">
<path d="M13.9956 30.6363C14.9853 16.3571 20.238 11 29.6015 11C38.965 11 43.3235 16 44.7059 30.6363C45.3995 35 46.5946 41.5454 49.7157 43.7273C52.931 45.9749 53.2993 49.1818 52.8369 51H6.36608C5.55689 49.6667 5.88059 46.3455 9.48728 43.7273C13.094 41.1091 13.302 34.6363 13.9956 30.6363Z" stroke="white" stroke-width="4"/>
<path d="M23 51C23.1204 53 24.5889 57 29.5 57C34.4111 57 35.8796 53 36 51" stroke="white" stroke-width="4"/>
<path d="M26 7.49998C26 5.04999 27.9163 3.99992 29.5 4C31.25 4.00009 33 5.39995 33 7.49998C33 9.60001 31.3607 11 29.5 11C27.6393 11 26 9.60001 26 7.49998Z" stroke="white" stroke-width="4"/>
</svg>