<svg width="590" height="200" viewBox="0 0 590 200" fill="none" xmlns="http://www.w3.org/2000/svg">
<path d="M544.792 35.6319C540.883 45.3082 536.75 55.9231 541.707 66.0682C544.117 70.9991 548.392 76.6246 553.9 78.0825C558.862 79.3961 564.733 77.8153 568.525 74.2854C573.206 69.9269 573.602 62.647 573.212 56.694C572.572 46.9412 569.107 33.6883 558.112 31.1228C551.702 29.627 546.613 30.9229 543.725 36.6998" stroke="white" stroke-width="2" stroke-linecap="round"/>
<path d="M460.718 44.0467C474.962 38.1516 494.626 36.6829 507.676 46.6385C518.586 54.9608 519.873 70.8517 510.777 80.6617C510.206 81.2783 500.615 90.3952 500.766 90.5354C501.781 91.4787 506.939 91 508.607 91.8519C517.719 96.5061 519.522 106.95 518.884 115.837C517.788 131.101 501.541 142.635 486.235 143.853C478.362 144.48 469.073 144.785 461.339 143.277C459.591 142.937 452.872 139.729 452.7 140.768C451.885 145.687 451.941 151.075 449.112 155.455C445.724 160.698 440.288 165.134 434.582 168.126C422.475 174.473 402.155 175.776 390.016 168.867C385.902 166.525 382.267 161.162 381.776 156.607C381.51 154.133 377.764 158.364 376.992 159.281C373.441 163.494 370.483 167.802 366.581 171.788C360.135 178.372 351.02 181.953 341.906 184.006C325.477 187.708 297.118 188.878 293.265 169.196C292.908 167.373 291.416 161.409 289.278 160.474C287.619 159.749 283.91 168.012 282.854 169.237C272.449 181.316 246.921 195.791 230.802 185.487C223.555 180.855 227.549 174.757 229.473 168.702C231.087 163.624 229.926 163.517 226.594 167.015C221.544 172.316 214.851 176.046 208.342 179.563C198.617 184.818 189.299 188.989 177.642 188.285C169.904 187.818 157.924 184.425 153.012 178.411C148.592 173.001 149.823 168.177 152.746 162.531C156.618 155.051 139.658 164.505 138.127 165.082C120.533 171.706 87.3587 178.965 78.3219 157.101C74.9074 148.839 75.9194 139.296 80.3597 131.594C84.4866 124.435 91.0281 120.353 98.124 115.96C102.148 113.469 99.8744 114.987 96.9279 114.232C94.5693 113.628 92.0984 113.793 89.8399 112.833C84.5987 110.607 80.9281 106.795 77.6131 102.548C65.0028 86.3953 71.1147 56.0246 90.1057 46.4328C99.2672 41.8056 110.321 40.8475 120.584 42.1542C125.685 42.8037 131.549 43.5198 136.266 45.5277C137.414 46.0162 140.772 47.618 139.722 46.9677C137.468 45.5724 139.271 39.8377 139.766 38.2047C142.35 29.6724 156.281 22.6862 164.086 19.0333C176.349 13.2943 190.06 12.204 203.602 12.204C217.601 12.204 228.4 14.4347 238.687 23.7233C240.474 25.336 246.289 32.6345 248.611 29.4007C251.143 25.8724 252.35 22.8507 256.319 20.3087C271.897 10.3313 298.558 7.03057 314.972 17.1408C322.412 21.7235 324.985 29.9474 327.553 37.3819C329.557 43.1852 331.493 36.3958 334.375 33.3502C348.148 18.7952 365.951 12.7276 386.339 17.7991C393.947 19.6917 403.299 25.4479 406.008 32.6096C407.302 36.03 407.372 39.7525 406.894 43.3062C406.772 44.2143 407.159 49.0254 406.495 49.6418C406.349 49.7773 405.692 48.4855 405.698 48.3253C405.778 46.2363 407.212 44.2653 408.09 42.4011C411.263 35.6654 417.853 29.5191 424.437 25.5746C433.595 20.0874 450.697 16.2266 459.124 24.0524C463.951 28.5358 468.038 30.9583 465.06 37.999C463.709 41.1922 460.463 44.7397 456.731 44.0467" stroke="white" stroke-width="2" stroke-linecap="round"/>
<path d="M119 117.269C126.991 109.203 137.384 99.8825 139.555 87.9425C140.487 82.8181 136.52 84.5337 134.948 87.7653C132.469 92.8603 131.875 100.3 131.758 105.928C131.633 111.934 130.708 118.991 133.752 124.401C140.444 136.298 159.251 101.131 161.084 97.334C163.115 93.128 165.422 79.2883 165.249 83.9556C164.93 92.5664 161.886 101.119 161.306 109.826C161.024 114.061 160.917 125.243 167.242 125.243C175.38 125.243 178.047 117.776 182.614 112.662C185.182 109.786 188.104 103.539 188.993 99.9034C189.884 96.2606 191.646 92.6873 192.316 89.0057C193.201 84.1358 191.141 88.9595 190.765 91.3093C190.188 94.9183 188.355 99.3356 190.145 102.916C191.414 105.454 197.265 104.947 199.359 104.156C204.073 102.375 208.578 98.9696 210.7 94.3216C211.532 92.4997 215.806 85.5164 212.295 83.9556C208.159 82.1176 205.225 95.3804 204.719 97.2897C202.295 106.451 198.98 134.703 199.536 125.243C199.799 120.783 202.376 116.211 204.144 112.219C205.178 109.882 211.83 99.9998 215.086 101.808C219.041 104.006 209.768 127.082 218.629 123.205C223.588 121.035 227.506 115.036 229.394 110.181C231.499 104.769 228.062 112.166 227.445 113.902C226.095 117.7 225.71 125.57 231.432 125.243C237 124.924 241.344 117.424 242.994 112.839C244.341 109.099 244.851 101.321 239.007 101.321C233.115 101.321 228.299 111.089 225.053 114.877" stroke="white" stroke-width="2" stroke-linecap="round"/>
<path d="M283.263 105.308C275.806 101.325 274.441 101.741 270.061 108.497C268.403 111.056 263.442 120.75 268.909 121.965C274.836 123.282 279.707 117.667 282.022 112.883C282.363 112.178 286.97 100.081 286.452 100.081C284.962 100.081 275.171 127.785 288.357 122.762C293.958 120.628 298.816 109.174 301.071 104.245C301.813 102.622 303.763 97.7719 302.577 99.106C300.992 100.89 300.543 106.054 300.008 108.232C298.86 112.905 298.096 117.703 297.66 122.496C297.507 124.179 298.336 121.518 298.413 121.211C300.073 114.57 304.625 107.424 309.399 102.65C319.41 92.6393 312.855 114.481 312.855 119.041C312.855 123.545 316.32 110.668 318.791 106.903C319.44 105.913 328.195 96.1648 328.537 96.891C330.001 100.002 325.964 109.057 325.126 112.13C324.492 114.454 324.522 124.308 322.335 122.851" stroke="white" stroke-width="2" stroke-linecap="round"/>
<path d="M355.027 98.9288C360.013 94.6985 368.95 89.0082 370.754 82.095C370.967 81.2765 370.266 80.3726 369.38 80.766C366.676 81.968 365.063 87.6808 364.596 90.2461C362.822 100.003 359.954 109.767 357.021 119.218C356.641 120.443 354.653 126.098 352.237 124.755C350.08 123.558 351.376 121.648 352.635 120.458C355.338 117.906 360.638 118.514 363.932 117.667C367.641 116.714 371.274 115.133 374.962 114.079" stroke="white" stroke-width="2" stroke-linecap="round"/>
<path d="M359.014 62.2488C359.48 61.6884 367.57 51.817 367.786 57.6417C367.885 60.3188 367.316 62.7325 365.837 64.9954C364.351 67.2676 362.514 69.1153 360.609 71.0201C359.921 71.7079 357.42 74.7858 357.42 74.2097" stroke="white" stroke-width="2" stroke-linecap="round"/>
<path d="M358.217 60.654C358.002 60.3715 352.593 51.7374 351.882 56.357C351.535 58.6138 352.47 61.8056 353.433 63.8436C354.91 66.971 357.781 71.4567 355.028 74.2097" stroke="white" stroke-width="2" stroke-linecap="round"/>
<path d="M398.087 86.968C397.492 79.3242 397.795 73.2991 404.377 68.3622C407.156 66.2778 412.063 65.3349 415.319 66.7674C423.292 70.2755 426.823 78.7018 424.356 86.9237C421.924 95.0318 414.635 95.8728 409.25 100.524C406.684 102.74 397.053 109.041 403.668 111.687" stroke="white" stroke-width="2" stroke-linecap="round"/>
<path d="M400.483 120.212C400.501 120.947 400.61 121.448 400.8 122.114" stroke="white" stroke-width="2" stroke-linecap="round"/>
</svg>
