<svg width="349" height="356" viewBox="0 0 349 356" fill="none" xmlns="http://www.w3.org/2000/svg">
<path d="M174.552 21.6334C172.681 20.2626 178.523 16.9254 179.083 16.7273C179.574 16.988 184.253 16.0668 184.775 15.5118C185.504 14.7372 186.252 13.9973 186.87 13.1209C188.392 10.965 195.449 12.5501 197.346 12.7293C204.989 13.4511 212.597 12.8847 220.102 15.0378C222.664 15.7727 224.936 16.6654 227.125 18.1295C227.657 18.4857 229.9 17.4016 229.841 18.6654C229.808 19.3559 227.396 21.5791 229.142 21.2418C230.178 21.0416 231.208 20.5245 231.373 22.1899C231.453 22.998 231.177 23.7281 230.83 24.4366C230.722 24.657 229.432 26.4153 229.879 26.4153C230.306 26.4153 233.798 25.2566 233.798 25.9412C233.798 27.5554 232.161 29.1059 231.063 29.9811C230.115 30.7362 234.485 30.3701 235.195 30.5376C237.21 31.0135 234.892 33.8168 234.186 34.4332C232.649 35.7748 232.052 36.4737 234.341 36.4737C235.914 36.4737 232.063 41.1682 231.664 41.6678C230.693 42.8829 228.884 44.2648 231.315 44.2648C232.245 44.2648 234.454 44.3779 232.712 45.7489C231.481 46.7171 229.346 46.975 228.327 48.0574C227.521 48.9144 230.586 49.0135 231.199 50.0361C232.206 51.7173 227.413 52.3587 226.717 52.4064C224.133 52.5835 223.434 52.8729 225.262 55.1683C227.264 57.6823 222.653 56.8791 221.111 56.8791C217.266 56.8791 223.778 64.066 218.278 59.5586C217.284 58.7434 216.685 58.4782 216.106 59.8471C215.395 61.5247 215.486 61.8409 213.584 60.9601C207.393 58.0931 212.525 63.9616 211.062 64.1343C209.542 64.3138 205.355 59.3173 203.884 62.4442C203.722 62.7888 204.014 65 203.612 65C202.925 65 200.952 61.9521 200.489 61.3312C198.024 58.0229 197.176 63.3807 197.152 63.3511C196.576 62.6367 195.775 61.8749 195.115 61.2487C194.724 60.8774 193.174 58.9328 192.632 58.899C192.216 58.873 191.357 61.2495 191.158 61.5373C188.675 65.1241 189.17 55.5065 187.743 56.2195C185.705 57.2387 184.264 62.0428 183.049 57.0646C182.953 56.6731 183.017 53.5499 182.331 54.1171C181.593 54.7267 181.242 56.2499 180.236 56.4875C178.435 56.9127 181.538 49.4335 178.645 50.7781C177.994 51.0807 177.096 52.0968 176.414 52.2003C175.921 52.2751 176.569 48.0809 176.569 47.6039C176.569 44.6924 172.763 48.2293 172.728 47.6039C172.647 46.1296 174.805 40.3292 174.397 39.8952C173.974 39.4465 172.416 40.5548 171.855 40.5548C170.824 40.5548 171.54 38.9479 171.681 38.3493C171.985 37.054 176.228 32.3926 173.427 32.3926C172.879 32.3926 171.288 32.9068 171.06 32.3926C170.672 31.5164 172.283 30.4565 172.728 30.0841C173.245 29.6513 175.172 28.2097 175.172 27.5695C175.172 27.0873 173.549 27.0389 173.155 26.91C170.592 26.0721 174.882 24.6015 175.948 24.6015C177.704 24.6015 177.775 24.3342 176.569 23.1175C175.965 22.508 175.23 22.1305 174.552 21.6334Z" stroke="white" stroke-width="2" stroke-linecap="round"/>
<path d="M314.725 62.189C313.435 61.1385 311.7 58.0426 310.214 59.6163C309.893 59.9561 308.074 62.5264 307.862 61.7398C307.815 61.5662 307.817 57.2616 307.072 57.6562C306.517 57.9502 304.977 60.7652 304.508 60.1268C303.771 59.1224 304.536 57.1701 303.891 55.941C303.27 54.7567 301.635 57.566 301.193 57.9829C300.16 58.9552 297.761 49.9444 297.761 56.2677C297.761 56.66 298.205 57.2404 297.993 57.6153C297.847 57.8734 295.678 56.4287 295.448 56.3086C295.058 56.1046 292.182 54.7615 292.692 56.1656C292.854 56.6113 293.684 58.9382 293.482 58.4321C292.726 56.5382 288.762 53.605 286.774 54.5526C285.842 54.9967 287.922 58.1215 288.143 58.6362C288.269 58.9302 283.035 56.4057 282.668 56.7169C282.137 57.167 284.955 60.1574 284.114 60.6372C282.699 61.4442 277.077 57.3082 275.941 59.9838C275.398 61.2606 278.559 63.982 279.256 64.7209C279.818 65.3156 279.106 64.8799 278.909 64.7617C277.74 64.06 276.205 64.0266 274.9 64.0266C272.734 64.0266 271.724 64.9059 273.589 66.5993C276.115 68.893 271.246 69.9611 269.522 70.785C266.053 72.4421 268.984 71.8449 270.852 72.1939C274.065 72.7946 269.211 76.2371 268.384 76.8084C267.791 77.2179 265.218 79.0952 267.189 79.0952C268.848 79.0952 269.29 80.2888 268.326 81.7292C268.029 82.1743 264.292 85.7964 265.184 86.1599C266.135 86.547 268.337 85.9292 268.712 87.2013C269.346 89.349 265.224 89.6578 264.143 90.0394C263.1 90.4077 266.646 92.0058 267.035 92.6121C267.722 93.685 264.027 96.0432 263.392 96.7161C261.757 98.4474 265.71 97.478 266.611 97.8595C268.193 98.5299 266.346 101.917 265.955 102.821C265.394 104.122 269.516 100.707 269.965 100.493C270.9 100.048 269.656 106.222 269.656 106.925C269.656 108.242 273.032 104.015 273.435 103.801C273.76 103.629 273.403 110.078 273.454 110.805C273.664 113.81 276.724 108.15 277.039 108.559C277.625 109.317 277.14 119.777 279.14 115.235C279.501 114.417 280.918 110.006 281.492 112.622C281.725 113.683 282.332 116.449 282.996 114.276C283.142 113.798 283.641 110.988 284.384 111.131C285.345 111.316 286.044 113.25 286.446 113.99C287.877 116.625 288.598 116.824 288.702 113.52C288.777 111.112 290.321 113.403 291.015 114.255C292.412 115.973 294.34 118.936 294.87 115.195C294.932 114.759 294.7 113.275 295.371 113.275C296.847 113.275 298.381 114.027 299.805 114.378C301.032 114.681 303.034 114.019 301.193 112.765C300.831 112.519 300.397 112.54 301.077 112.54C302.607 112.54 304.105 112.778 305.607 113.071C308.124 113.562 307.091 112.715 307.091 110.988C307.091 108.911 311.236 114.035 311.872 111.601C312.282 110.03 311.305 109.074 313.375 109.416C314.26 109.563 317.433 110.491 316.035 108.497C315.074 107.126 313.369 105.913 315.804 105.026C317.485 104.414 320.837 104.314 318.869 102.229C317.217 100.479 317.154 100.434 319.235 99.2276C321.158 98.1131 322.57 96.4752 321.51 94.1638C320.815 92.6488 321.687 92.1736 322.705 90.8561C324.541 88.4794 322.928 89.0626 321.895 87.3442C321.565 86.7936 327.977 81.3412 323.264 81.3412C321.83 81.3412 323.833 78.6275 324.016 77.3393C324.066 76.9821 324.366 75.2158 323.669 75.2158C322.915 75.2158 321.797 76.4845 322.281 74.9708C322.847 73.2027 323.181 70.0747 320.816 71.7447C318.916 73.0863 320.379 68.9369 320.257 67.5794C320.123 66.0896 318.253 69.9126 318.194 66.5993C318.158 64.567 317.109 63.9632 316.113 62.5565" stroke="white" stroke-width="2" stroke-linecap="round"/>
<path d="M286 90.6648C286 86.5581 287.391 84.6018 289.955 81.4107C290.326 81.8094 295.078 77.9832 295.729 77.5459C297.549 76.323 299.36 76 301.462 76C305.686 76 311.077 78.8495 309.812 84.2878C307.536 94.0764 298.218 99.0802 289.396 96.1828C287.6 95.5929 286 92.5744 286 90.6648Z" stroke="white" stroke-width="2" stroke-linecap="round"/>
<path d="M189.36 36.7313C190.788 32.1777 194.602 30.6463 198.473 28.7449C200.607 28.7449 205.145 28 207.412 28C210.19 28 212.648 29.017 214.325 31.3518C216.076 33.7902 216 35.811 216 38.759C216 41.5715 213.568 43.0714 211.482 44.1798C208.839 45.5835 204.533 44.8392 201.706 44.4695C198.053 43.9918 194.585 43.9894 191.132 42.3384C188.893 41.2682 188.638 39.031 189.36 36.7313Z" stroke="white" stroke-width="2" stroke-linecap="round"/>
<path d="M84.4561 66.7547C84.4561 75.2407 90.2355 67.972 90.4585 69.6561C90.5101 70.0456 88.9372 71.4663 88.7046 71.8427C87.845 73.2337 90.667 72.8099 91.355 72.8099C92.8175 72.8099 93.9456 72.7282 92.3684 74.0293C90.4592 75.6044 92.8436 76.2324 94.1224 77.2672C95.4113 78.31 94.3869 77.7858 93.7521 78.3184C92.6214 79.2672 95.4785 81.6063 95.9933 82.4393C96.9467 83.9821 94.597 82.6156 93.9275 83.1121C92.9 83.8742 95.6422 87.532 96.0323 88.2422C96.4295 88.9654 93.9543 88.4954 93.4208 88.7047C92.1542 89.2016 94.8269 93.3933 95.0968 94.1081C95.592 95.4193 95.3919 95.7056 94.2783 95.8953C92.1476 96.2582 96.6313 102.142 96.9288 102.623C98.1046 104.526 98.7833 105.678 96.4026 104.789C93.6945 103.777 96.3384 106.671 96.9288 107.69C97.9527 109.458 98.6962 110.836 96.3051 109.898C91.8302 108.142 98.7084 114.684 97.2796 115.785C96.6733 116.252 93.0438 113.946 92.8946 114.671C92.7687 115.282 94.1124 120.032 93.3623 120.032C92.4715 120.032 91.691 116.818 90.7704 118.308C90.5535 118.659 89.6494 122.076 89.3672 121.924C88.8558 121.648 87.8264 119.043 87.0675 120.011C86.701 120.478 84.9533 124.492 84.7874 122.702C84.6322 121.027 84.314 118.789 83.0529 121.251C82.886 121.577 81.7629 123.837 81.3769 123.648C81.1425 123.533 81.2989 121.923 81.2989 121.714C81.2989 119.241 80.2857 120.716 79.3501 122.008C79.1798 122.243 77.4791 124.192 77.4791 123.985C77.4791 122.997 77.8532 122.076 77.7715 121.062C77.5385 118.171 76.0872 120.725 75.0626 121.63C73.0485 123.408 73.7671 121.924 72.529 120.663C71.9468 120.069 69.3544 122.927 68.9237 123.249C68.4895 123.573 68.6833 121.973 68.6508 121.693C68.5437 120.768 66.9563 121.829 66.5655 121.987C64.0953 122.987 63.488 119.487 61.1282 120.705C58.5419 122.039 60.2123 120.772 60.2123 118.497C60.2123 118.456 58.0037 119.494 57.25 118.897C55.5249 117.528 54.3565 116.049 51.8322 116.416C49.6435 116.733 52.9306 116.894 52.8261 116.5C52.424 114.981 48.8594 114.439 47.7006 114.439C47.2712 114.439 47.8175 114.316 47.8175 113.977C47.8175 113.157 46.7343 112.367 46.2584 111.916C46.1398 111.804 43.8126 109.783 43.9978 109.604C44.3661 109.246 45.6619 109.539 46.1415 109.519C47.2449 109.475 42.6155 106.966 42.0879 106.681C40.8151 105.995 44.3173 105.972 44.0757 105.125C43.8395 104.297 40.5644 101.337 40.6847 101.278C42.2864 100.492 42.6791 101.595 41.5812 99.0069C41.1226 97.926 40.3978 97.1767 39.5349 96.4629C39.3713 96.3276 37.1176 94.6656 38.385 94.9912C40.5615 95.5502 41.4285 95.9578 40.2365 93.2251C39.5461 91.6425 36.775 88.4649 39.7492 89.8401C41.5236 90.6605 39.1413 83.9277 39.6323 83.2803C40.2472 82.4696 41.187 85.6665 41.815 83.3434C42.0389 82.5154 41.4193 78.0738 42.8869 78.9071C44.5203 79.8346 44.4823 79.1141 45.1671 77.2672C46.2878 74.2443 46.7982 77.462 47.5447 76.5103C47.7909 76.1964 48.6264 72.4751 48.8699 72.6627C50.6773 74.0555 51.0982 73.5054 51.9881 71.1489C52.7731 69.0701 53.4537 68.34 55.3401 69.8664C56.8472 71.0858 57.2363 70.8532 58.0685 68.731C58.3875 67.9177 59.5595 70.1292 60.0953 70.2869C61.4571 70.6876 62.0334 67.1752 62.9212 67.1752C64.4665 67.1752 64.7348 69.391 66.0199 67.6378C66.7918 66.5846 68.2874 63.6252 68.9431 66.3763C69.3609 68.1288 69.9046 67.3898 70.931 66.0188C72.8048 63.516 72.6068 66.1441 73.2306 68.3316C73.3756 68.84 75.9634 65.5419 76.3878 65.325C77.5845 64.7134 77.1943 69.7047 78.5705 69.3197C79.4756 69.0666 80.9018 66.7047 81.7277 67.5957C82.1936 68.0984 82.3491 69.3601 82.78 69.6982C83.2764 70.0876 84.3651 66.9672 84.4561 66.7547Z" stroke="white" stroke-width="2" stroke-linecap="round"/>
<path d="M66.9359 87C63.1687 88.5553 60.496 90.485 61.0802 94.9255C61.3376 96.8814 61.4753 98.9703 63.2077 100.141C66.3415 102.258 71.3106 105.839 75.3244 104.822C80.4692 103.519 82.4907 98.2478 79.8225 93.4061C77.5444 89.2723 74.8647 87 70.2184 87" stroke="white" stroke-width="2" stroke-linecap="round"/>
<path d="M204.158 136.588C201.435 133.03 198.84 129.373 196.125 125.816C194.993 124.334 192.888 123.237 192.011 121.615C190.418 118.666 185.154 116 182.155 116C175.867 116 171.337 117.738 166.943 122.572C165.48 124.18 163.857 126.784 163.373 129.018C163.315 129.284 162.573 131.511 162.519 131.472C161.801 130.959 162.45 130.599 161.316 130.599C158.704 130.599 156.331 131.82 154.137 133.302C150.456 135.79 149.044 137.838 148.549 142.494C147.936 148.26 147.489 155.651 150.256 160.878C152.18 164.514 153.796 167.958 156.581 170.943C157.654 172.093 158.761 173.214 159.802 174.396C161.587 176.421 158.674 175.786 157.435 176.184C155.351 176.854 152.897 178.323 151.343 179.927C149.062 182.281 146.589 185.776 146.104 189.244C145.743 191.82 145.686 194.412 145.367 196.98C145.075 199.322 146.574 201.802 147.152 203.968C147.483 205.212 149.037 206.526 148.976 207.711C148.933 208.537 146.724 210.745 146.259 211.454C145.742 212.242 145.485 213.467 145.134 214.366C144.574 215.798 143.637 217.042 143.116 218.483C142.637 219.81 141.748 222.94 142.068 224.265C143.258 229.185 145.963 231.704 150.295 233.54C151.8 234.178 153.299 234.779 154.835 235.328C155.684 235.631 157.725 235.453 158.328 236.243C158.927 237.028 158.405 240.487 158.405 241.401C158.405 243.862 158.688 246.541 158.328 248.97C157.613 253.785 158.184 258.772 159.278 263.465C161.662 273.686 172.992 278.877 181.98 276.38C186.214 275.203 190.384 274.074 193.855 271.181C194.456 270.679 194.321 271.562 194.573 271.908C195.389 273.033 196.44 272.806 197.677 272.865C200.464 272.998 202.129 272.945 204.837 271.929C211.789 269.321 217.693 263.476 219.35 255.584C219.846 253.224 219.879 250.872 220.049 248.471C220.256 245.545 220.969 242.048 220.379 239.155C219.889 236.758 218.477 229.631 218.477 232.084C218.477 232.794 218.828 233.124 218.652 233.124C218.023 233.124 220.48 230.687 220.747 230.337C221.397 229.485 221.647 228.384 222.338 227.55C223.412 226.256 224.805 225.397 225.598 223.828C226.218 222.6 226.889 221.357 227.383 220.064C227.785 219.011 228.789 217.788 228.935 216.695C228.963 216.485 228.826 215.257 229.149 215.405C230.058 215.823 231.046 215.023 231.884 214.657C233.75 213.842 235.303 212.184 236.871 210.851C238.679 209.314 240.641 208.007 242.401 206.401C245.593 203.487 245.728 200.024 245.37 195.899C245.291 194.996 244.012 188.848 244.884 188.225C246.479 187.086 247.019 184.582 248.164 183.005C249.535 181.115 250.526 178.244 249.696 175.872C248.866 173.497 247.378 171.159 246.243 168.968C245.943 168.39 246.46 167.728 246.786 167.262C247.719 165.929 248.364 164.102 248.493 162.438C248.922 156.928 247.462 150.866 242.207 148.754C239.38 147.618 236.616 146.338 233.864 145.011C231.632 143.934 232.152 144.156 231.904 141.85C231.726 140.195 229.187 137.634 227.907 136.796C225.933 135.503 223.136 134.753 220.902 134.155C217.305 133.191 212.809 135.45 209.261 136.027C208.814 136.099 203.734 137.496 204.158 136.588Z" stroke="white" stroke-width="2" stroke-linecap="round"/>
<path d="M199.374 161.86C197.47 164.25 194.26 164.764 192.313 162.536C192.669 165.693 191.204 163.322 191.129 163.57C190.862 164.458 193.026 168.97 191.244 167.985C190.465 167.553 188.372 164.415 188.706 165.598C188.991 166.609 189.397 171.01 188 171.216C186.831 171.388 185.036 170.216 183.954 169.843C183.829 169.8 181.736 169.493 182.427 169.843C183.199 170.235 186.39 173.746 185.29 173.476C184.467 173.274 178.682 170.809 180.099 172.884C180.611 173.635 183.977 179.55 180.976 177.278C180.761 177.114 178.61 175.402 178.61 176.095C178.61 177.414 179.649 179.03 180.099 180.192C180.336 180.805 181.571 183.581 180.881 184.268C180.368 184.779 178.004 183.147 177.427 182.917C175.318 182.077 178.394 187.544 178.686 188.514C179.142 190.026 174.649 187.126 175.022 188.07C175.679 189.733 176.923 191.283 177.885 192.738C178.364 193.462 180.831 195.97 178.877 195.779C178.558 195.748 176.519 195.203 176.606 196.075C176.781 197.813 179.099 200.01 180.079 201.228C180.346 201.559 182.654 203.522 181.11 203.002C180.732 202.875 178.965 202.149 179.679 203.277C180.565 204.677 181.697 205.983 182.828 207.142C183.726 208.062 184.074 208.199 182.637 207.965C182.303 207.911 178.879 207.686 180.175 208.62C181.864 209.837 183.744 210.742 185.48 211.873C189.707 214.624 185.268 212.74 184.908 214.534C184.889 214.629 187.058 214.615 187.16 214.618C188.478 214.659 190.312 214.91 191.206 216.139C192.066 217.321 189.319 219.42 189.526 219.476C190.451 219.725 196.843 218.453 196.588 219.962C196.303 221.642 194.39 224.565 197.141 221.968C197.777 221.368 201.739 216.008 200.71 219.751C200.639 220.01 199.911 221.44 200.271 221.208C201.328 220.525 202.305 219.428 203.095 218.42C203.966 217.311 204.609 215.881 204.947 218.124C205.108 219.197 205.042 220.58 205.443 221.588C205.751 222.363 207.654 216.227 208.115 216.012C209.311 215.455 210.508 221.587 211.283 221.672C211.54 221.701 211.196 214.405 211.206 214.407C211.906 214.536 214.642 219.096 214.642 218.166C214.642 217.499 214.213 211.534 215.405 212.802C215.725 213.142 217.828 216.42 218.001 215.885C218.204 215.255 218.704 208.916 219.795 210.056C220.841 211.15 222.54 215.089 221.989 210.458C221.709 208.104 220.987 205.556 223.631 207.627C227.829 210.919 223.993 204.67 223.993 202.77C223.993 202.433 227.86 205.501 228.134 204.649C228.325 204.06 224.94 197.146 226.818 198.144C227.807 198.671 231.364 202.526 229.871 198.778C229.124 196.902 228.161 195.125 227.505 193.202C227.087 191.979 228.71 193.13 229.07 193.329C229.543 193.591 231.477 195.238 232.009 194.976C232.544 194.713 231.243 192.708 231.131 192.484C230.954 192.132 229.486 188.932 230.291 189.337C230.972 189.68 231.761 189.773 232.467 190.076C234.252 190.845 231.03 186.125 230.444 185.557C228.007 183.197 232.365 186.472 232.257 185.874C232.091 184.957 228.059 182.978 228.096 182.874C228.205 182.573 232.332 183.654 230.406 182.114C229.851 181.671 226.615 180.366 227.295 179.791C227.452 179.658 231.169 177.32 231.016 177.13C229.488 175.227 227.221 176.582 225.501 175.82C225.464 175.804 226.258 174.413 226.321 174.236C226.426 173.943 226.966 172.402 226.589 172.124C226.199 171.837 222.924 174.687 222.886 173.941C222.866 173.542 224.854 169.455 223.84 169.843C223.172 170.099 219.701 173.198 219.871 172.166C219.975 171.534 221.602 166.925 219.795 168.639C218.766 169.615 217.233 170.823 217.581 168.259C217.685 167.488 218.159 164.579 217.886 164.838C217.205 165.484 215.488 168.463 214.336 167.985C213.355 167.577 214.62 162.032 213.611 162.62C213.157 162.885 211.267 166.493 210.939 164.479C210.841 163.872 211.185 159.93 210.443 160.719C210.063 161.124 207.001 164.65 206.817 164.183C206.585 163.593 206.54 159.202 205.634 160.128C204.758 161.022 204.222 162.831 203.229 163.507C202.088 164.284 201.619 161.161 200.901 160.719C200.254 160.322 199.695 161.457 199.374 161.86Z" stroke="white" stroke-width="2" stroke-linecap="round"/>
<path d="M191.396 182.957C192.494 179.448 196.784 179.322 199.792 179C212.578 179 222.633 200.944 207.124 200.944C203.94 200.944 201.092 201.493 198.707 199.165C196.56 197.07 194.852 194.69 193.341 192.13C191.598 189.176 190.319 186.396 191.396 182.957Z" stroke="white" stroke-width="2" stroke-linecap="round"/>
<path d="M293.864 209C294.194 210.537 294.179 214.551 295.276 213.486C296.146 212.641 296.858 211.705 297.844 210.932C299.645 209.518 298.784 213.293 298.726 214.483C298.629 216.525 298.153 218.99 299.903 216.622C300.321 216.057 301.596 213.61 302.491 213.881C304.111 214.371 302.399 221.599 304.825 219.8C306.307 218.701 307.64 217.483 308.962 216.186C310.155 215.016 309.357 218.22 309.315 218.554C309.193 219.512 308.48 221.452 309.825 221.711C311.918 222.114 314.111 222.074 316.138 222.832C317.697 223.415 314.41 223.965 314.04 224.141C311.878 225.171 315.831 227.676 316.609 228.232C317.105 228.586 321.207 231.011 319.354 231.057C318.571 231.076 316.077 230.528 316.883 232.054C318.197 234.539 320.151 236.578 320.883 239.406C321.619 242.247 318.674 239.8 317.668 239.821C315.927 239.859 319.127 244.615 319.452 245.305C319.856 246.16 320.754 247.647 320.57 248.669C320.421 249.496 318.273 248.186 317.825 248.129C316.967 248.02 319.662 253.459 319.962 254.215C321.26 257.48 319.897 256.305 318.001 255.398C315.329 254.12 315.326 255.672 315.746 257.974C315.869 258.648 317.187 263.48 315.374 261.463C314.831 260.86 312.421 257.396 312.295 258.597C312.069 260.754 313.036 264.311 310.452 262.003C308.572 260.324 308.541 260.194 307.825 263.021C307.653 263.697 307.072 267.648 306.217 265.534C305.963 264.907 305.553 262.637 304.628 262.855C303.061 263.223 302.121 268.104 301.472 269.48C300.165 272.248 299.955 262.896 298.099 266.406C297.91 266.764 296.758 270.15 296.687 268.566C296.606 266.769 296.502 264.814 294.923 266.946C290.801 272.511 294.77 265.112 292.374 264.412C290.641 263.906 288.117 264.199 286.334 264.35C284.341 264.519 287.465 264.358 288.001 264.308C290.175 264.108 286.576 262.402 286.177 262.252C284.219 261.517 278.072 260.542 280.001 261.359C280.139 261.418 282.123 262.492 282.06 261.92C281.86 260.124 276.088 260.603 275.119 260.591C273.07 260.565 274.378 260.049 274.06 258.701C273.59 256.711 270.08 256.182 268.609 255.357C267.729 254.864 272.122 255.442 271.55 254.775C270.898 254.016 266.141 250.832 266.589 249.978C266.929 249.331 270.05 250.133 270.06 250.04C270.09 249.755 269.13 248.978 269.001 248.835C267.798 247.513 266.832 245.993 265.687 244.619C263.95 242.534 265.884 243.444 267.315 243.685C269.467 244.047 266.726 238.27 266.413 237.495C265.935 236.315 265.524 235.101 265.275 233.84C264.961 232.246 266.64 233.301 267.511 233.404C270.168 233.717 268.355 230.665 267.824 229.271C267.027 227.177 267.925 227.061 269.805 227.526C272.047 228.08 269.663 226.525 269.001 225.262C266.071 219.675 274.62 226.021 274.393 222.542C274.361 222.044 273.035 217.327 274.609 218.138C275.127 218.405 278.543 221.278 278.256 219.758C278.061 218.728 277.679 217.681 277.275 216.726C277.218 216.59 276.192 214.967 276.628 215.044C277.94 215.275 279.148 217.456 278.962 214.525C278.848 212.731 278.169 210.808 280.021 212.635C280.555 213.161 282.549 215.356 283.119 213.777C283.491 212.743 282.962 211.619 282.962 210.578C282.962 209.877 285.783 212.608 286.295 212.946C287.802 213.94 288.083 210.502 288.197 209.415C288.313 208.314 288.724 210.582 289.197 211.243C289.756 212.024 289.607 211.228 289.648 210.641C289.734 209.418 293.361 210.065 293.864 209Z" stroke="white" stroke-width="2" stroke-linecap="round"/>
<path d="M274.817 243.848C271.146 236.239 280.761 231.618 285.505 228.69C287.467 227.263 293.729 228.413 294.506 228.906C296.009 229.858 296.752 230.967 297.506 232.577C299.607 237.06 294.536 243.273 291.11 245.403C286.54 248.245 277.787 250.003 274.817 243.848Z" stroke="white" stroke-width="2" stroke-linecap="round"/>
<path d="M35.8941 157.384C30.8401 151.603 27.0737 146.358 24 139.141C24.6308 138.167 25.4363 138.371 26.5004 138.143C28.0094 137.819 29.9659 137.275 31.0798 136.128C31.967 135.215 33.134 139.447 33.6435 140.38C35.5681 143.902 38.6453 147.545 41.5891 150.171C42.5797 151.055 43.8181 151.607 44.8965 152.347C45.4578 152.733 43.5819 152.702 42.9786 153.012C41.2368 153.909 39.3703 156.585 38.4774 158.331C37.6915 159.869 36.7928 158.412 35.8941 157.384Z" stroke="white" stroke-width="2" stroke-linecap="round"/>
<path d="M45.369 182.072C45.0563 184.464 42.3508 185.321 40.3148 186.105C40.2897 186.425 40.2046 189.264 40.0824 189.274C39.353 189.334 38.8004 188.41 38.1072 188.41C37.4091 188.41 39.0876 194.574 37.8168 194.912C36.9432 195.144 33.4868 192.709 34.273 194.912C34.7514 196.252 37.5356 201.407 34.6797 201.558C32.1127 201.695 30.6777 200.283 31.9686 203.884C32.1898 204.5 34.3502 209.769 33.7696 209.769C33.1392 209.769 31.9838 209.167 31.4071 209.522C31.0402 209.747 32.2249 212.188 32.3172 212.423C33.0441 214.277 35.3756 216.91 32.3172 216.477C28.6499 215.957 33.7034 219.888 34.6603 220.757C36.9118 222.802 34.4408 221.733 32.7239 222.115C31.081 222.48 36.4565 225.706 37.0228 226.025C39.8499 227.615 37.4393 227.377 35.7447 227.671C34.6528 227.86 36.3288 228.283 36.5581 228.391C37.6164 228.891 38.5954 229.53 39.6177 230.099C39.7743 230.186 36.3015 230.584 35.8222 231.128C35.273 231.75 37.4213 231.294 38.2234 231.333C39.6359 231.402 40.488 231.471 41.8833 231.683C42.7116 231.809 45.2173 231.951 45.6594 233.062C45.7832 233.373 44.9168 233.993 45.2334 233.967C46.6219 233.854 47.8745 232.863 49.3 232.774C50.1875 232.718 50.5644 233.243 50.6942 234.132C50.7331 234.398 50.6169 236.068 51.0041 235.881C51.7037 235.543 54.3232 232.597 55.09 233.412C56.1345 234.522 53.9238 239.015 54.4897 239.359C55.5249 239.987 57.3941 235.706 58.4013 236.375C59.6381 237.196 58.5316 239.89 59.3308 240.861C59.6648 241.266 61.7951 236.494 62.952 236.725C64.6643 237.066 63.7131 240.568 64.8885 240.984C65.866 241.33 67.0075 235.9 68.1611 236.951C69.1733 237.873 68.4105 242.279 69.9427 239.07C70.2997 238.323 71.4029 233.964 71.8404 235.408C72.1098 236.297 73.0853 240.852 73.5057 238.083C73.7513 236.465 73.7236 233.431 75.2486 235.531C78.3851 239.852 76.252 231.178 78.4631 232.856C79.4127 233.577 80.3144 234.742 80.6707 233.144C80.922 232.017 80.8863 228.639 82.6458 229.44C83.5747 229.863 85.6599 230.681 85.4343 228.844C85.3799 228.4 84.6043 224.819 85.6667 225.222C86.0814 225.379 88.8162 227.069 88.707 226.025C88.6513 225.492 86.4969 220.299 87.9905 220.633C88.6042 220.771 92.9424 223.851 92.3669 221.58C92.1345 220.663 89.8403 215.736 91.0501 215.736C91.8064 215.736 94.4608 217.096 94.7681 216.209C95.3417 214.555 91.7912 210.882 91.1082 209.542C90.2507 207.86 93.8714 209.629 94.5357 209.728C96.4054 210.006 92.052 205.154 91.631 204.707C90.5918 203.602 88.1003 202.145 90.5079 201.744C92.0397 201.488 93.6008 201.559 91.2437 200.015C90.4994 199.528 85.0858 197.26 85.0858 196.105C85.0858 195.284 88.31 195.043 87.2159 194.171C86.0971 193.28 82.2142 192.868 82.2973 190.838C82.3374 189.857 85.3359 187.166 84.9696 186.558C84.0321 185.001 79.9493 186.086 78.5599 185.508C77.1235 184.911 79.4577 182.634 79.8573 181.846C80.7425 180.099 77.469 181.485 77.0882 181.681C74.87 182.824 75.1711 182.332 75.1711 179.829C75.1711 176.891 74.6001 177.682 72.9442 179.767C71.2977 181.841 70.9578 182.668 70.4849 179.294C70.1538 176.932 70.1922 176.516 68.3354 177.977C67.6425 178.523 65.1808 181.549 64.5012 179.994C64.2094 179.326 63.6114 176.082 62.7777 176.002C62.0731 175.934 61.6168 177.954 61.4222 178.409L61.3896 178.486C60.4879 180.594 59.9562 181.838 58.2852 179.726C57.5561 178.805 56.8633 177.106 56.1938 178.492C55.7138 179.485 54.8542 182.618 53.7538 181.208C53.2945 180.619 51.8258 177.859 51.3914 179.603C51.0591 180.936 51.1822 183.003 50.152 184.006C49.9847 184.169 46.8167 180.922 46.3178 180.632C45.3898 180.091 45.4562 181.404 45.369 182.072Z" stroke="white" stroke-width="2" stroke-linecap="round"/>
<path d="M50.2365 199.654C50.5689 197.717 52.9957 196.3 54.2093 195.197C59.4748 194.345 64.3797 196.189 66.5135 202.122C68.019 206.309 69.3694 213.828 65.3178 216.957C61.6593 219.783 56.537 216.32 54.3636 213.068C52.9104 210.894 51.2097 208.207 50.4293 205.618C49.874 203.776 49.9111 201.55 50.2365 199.654Z" stroke="white" stroke-width="2" stroke-linecap="round"/>
<path d="M198.413 342.112C199.326 341.8 199.81 344.986 200.06 345.385C201.349 344.593 201.635 342.999 202.313 341.774C203.085 340.382 203.67 342.197 204.397 342.948C205.858 344.459 206.245 340.317 206.421 339.658C206.958 337.648 207.517 339.335 209.068 340.196C211.034 341.289 208.681 333.212 211.742 336.147C212.133 336.522 213.85 338.769 214.024 337.648C214.22 336.388 213.295 333.558 214.292 332.697C215.113 331.988 220.191 334.995 220.155 333.783C220.115 332.406 218.604 331.022 218.883 329.507C218.993 328.914 221.753 327.708 221.744 327.704C220.444 327.088 218.745 327.316 217.516 326.389C215.805 325.098 218.793 322.471 219.458 321.666C219.85 321.192 221.193 319.366 219.592 319.558C217.532 319.804 212.463 320.165 214.782 317.008C215.209 316.427 216.371 315.614 216.463 314.87C216.499 314.575 215.165 314.421 214.969 314.368C214.323 314.192 212.301 313.954 211.993 313.321C211.491 312.29 213.167 310.597 213.591 309.888C213.993 309.214 211.896 310.995 211.597 311.188C210.588 311.838 209.067 312.814 209.151 310.838C209.169 310.403 209.833 307.138 209.539 307.242C209.123 307.39 206.293 309.684 205.969 308.821C205.658 307.996 206.402 303.705 205.245 303.966C204.295 304.18 201.857 306.218 201.029 304.549C200.812 304.111 200.921 301.215 200.531 301.189C198.966 301.085 198.302 303.472 197.002 303.821C196.365 303.991 195.852 301.484 195.767 301.145C194.369 295.607 192.669 304.346 191.24 302.219C190.526 301.157 190.368 299.942 189.818 298.839C189.492 298.186 188.533 300.826 188.396 301.08C186.586 304.428 186.562 298.47 185.012 298.751C183.904 298.951 183.037 304.964 181.053 302.185C178.131 298.09 178.709 303.044 177.966 305.102C177.673 305.912 176.17 303.912 175.846 303.595C174.306 302.093 174.667 304.705 174.634 305.586C174.577 307.113 175.348 309.757 174.402 311.006C174.142 311.35 172.85 310.232 172.621 310.041C170.662 308.408 172.053 313.205 172.161 313.704C172.544 315.482 173.488 317.121 173.917 318.846C174.5 321.191 170.638 317.936 171.587 320.201C172.316 321.942 173.651 323.524 174.31 325.271C174.658 326.191 173.045 325.228 172.689 325.047C171.564 324.474 171.031 324.883 171.86 326.005C172.98 327.521 174.938 328.428 176.24 329.83C177.301 330.972 172.596 333.229 174.087 334.941C174.733 335.682 177.069 335.278 177.912 335.356C178.972 335.455 178.319 337.488 178.279 338C177.939 342.28 182.32 336.985 183.893 338.879C184.383 339.47 183.741 342.509 184.264 342.578C185.452 342.735 187.442 341.248 188.35 340.744C190.108 339.768 189.031 344.032 190.032 343.754C191.523 343.339 193.549 339.286 194.539 342.215C194.686 342.647 195.265 345.382 195.93 344.775C196.743 344.033 197.278 342.501 198.413 342.112Z" stroke="white" stroke-width="2" stroke-linecap="round"/>
<path d="M209.058 327.547C207.193 332.354 205.716 333.498 201.183 333.534C198.181 335.31 194.809 334.489 191.527 334.245C188.726 334.036 186.172 333.013 184.184 330.777C181.63 327.903 180.605 325.245 181.985 321.362C182.813 319.034 185.49 317.544 187.538 316.873C190.591 315.871 194.774 316.362 197.891 316.676C201.734 317.063 206.404 317.859 208.974 321.482C210.4 323.492 209.878 325.433 209.058 327.547Z" stroke="white" stroke-width="2" stroke-linecap="round"/>
<path d="M259.912 28.0547C262.908 24.8477 263.99 20.9701 265 16.5987C264.483 12.4893 262.648 11.8345 262.648 11.8345C262.648 11.8345 261.033 11.8362 259.698 11.4237C257.174 10.6439 254.472 9.84349 251.9 9.25352C247.872 8.32949 243.752 7.79949 239.716 6.81208C236.59 6.04724 233.602 4.76025 230.398 4.41237C223.458 3.65864 216.3 3.62554 209.326 3.43162C198.001 3.11674 187.335 1.66797 176.654 6.74948C175.154 7.46296 173.7 8.29849 172.346 9.29526C171.751 9.73322 171.061 10.564 170.26 10.3803C167.743 9.80296 165.492 8.31674 162.891 7.77197C152.805 5.65951 141.122 2.99307 132.013 9.92127C130.405 11.1444 128.421 11.8695 128.134 14.1781C127.859 16.3873 127.993 17.5442 128.68 19.6036C129.193 21.1417 130.94 22.9621 132.013 24.1109C133.99 26.2274 136.525 27.2082 139.265 27.5748C144.325 28.2519 148.937 30.6964 153.242 33.501C155.105 34.715 157.248 34.3408 159.032 35.2956C159.584 35.5913 157.941 36.9392 157.628 37.2571C156.443 38.4589 154.353 39.4382 152.91 40.2619C150.482 41.6482 148.789 43.8509 146.575 45.4996C141.86 49.0102 142.026 54.4104 142.969 59.9604C143.963 65.8165 146.44 73.0502 150.064 77.6348C151.475 79.4194 151.935 80.4934 153.963 81.5787C155.408 82.3521 156.56 83.4853 157.706 84.667C159.563 86.5815 162.043 87.5679 164.275 88.8821C165.614 89.67 167.688 90.2176 169.227 90.2176C170.975 90.2176 172.591 91.0176 174.276 90.9688C176.004 90.9189 178.083 90.2957 179.812 89.9255C182.492 89.3518 184.781 88.5624 187.083 86.8372C188.164 86.0269 188.685 84.6283 189.754 85.5643C191.4 87.0059 191.292 88.9087 192.015 90.8854C193.316 94.4447 194.949 97.8322 196.382 101.319C197.532 104.119 198.305 107.184 199.384 110.041C200.528 113.072 200.956 116.387 202.269 119.306C203.432 121.893 205.547 125.098 206.031 127.945C206.155 128.674 208.341 128.251 209.033 127.966C210.627 127.31 212.384 128.054 213.965 128.154C215.151 128.229 215.889 129.813 215.447 128.446C214.148 124.431 212.419 120.651 211.314 116.51C210.317 112.775 209.818 108.967 208.156 105.409C207.233 103.432 205.8 101.407 205.349 99.2322C205.076 97.917 203.845 96.6954 205.193 96.9577C209.229 97.7433 212.912 98.9803 217.006 97.1872C224.796 93.7759 228.993 83.2867 231.86 75.4438C233.665 70.5061 234.122 65.4426 234.122 60.19C234.122 58.2729 233.004 58.3138 234.902 57.5398C236.812 56.7607 238.31 55.5919 240.087 54.535C243.582 52.4563 246.866 47.6902 247.475 43.4546C247.746 41.5701 249.803 37.4621 248.586 35.6712C248.025 34.8454 250.624 34.1525 251.042 33.8766C253.904 31.9918 257.482 30.656 259.912 28.0547Z" stroke="white" stroke-width="2" stroke-linecap="round"/>
<path d="M296.463 11.6103C288.679 12.484 279.555 14.801 277.531 24.0801C276.833 27.2808 276.397 30.2615 276.397 33.5471C276.397 34.1279 276.604 39.8345 275.967 39.6777C269.801 38.1606 263.854 42.6795 259.069 46.142C256.882 47.7237 255.241 50.008 254.062 52.5228C253.59 53.5297 253.761 54.3235 253.495 55.317C253.458 55.4536 250.654 56.0779 250.131 56.4639C246.98 58.7897 244.287 61.3687 243.305 65.6181C242.339 69.7987 242.495 75.2556 244.889 78.9428C246.117 80.8338 247.86 82.36 249.368 83.9683C249.403 84.0057 249.297 83.8428 248.859 83.9683C248.122 84.18 247.487 84.3644 246.747 84.6355C243.626 85.7795 240.384 87.6025 237.848 89.8903C232.321 94.8773 228.422 101.096 227.111 108.783C226.497 112.386 228.566 116.264 230.006 119.334C230.312 119.987 231.469 120.862 231.257 121.669C230.823 123.325 230.632 124.528 230.632 126.299C230.632 129.563 232.663 133.004 234.895 135.119C236.622 136.756 238.64 138.195 240.762 139.144C243.004 140.146 245.287 141.512 247.686 141.938C253.758 143.017 259.304 139.621 264.212 136.245C266.827 134.447 269.425 133.33 271.703 130.928C273.238 129.309 274.442 127.851 276.397 126.924C277.627 126.341 276.495 129.644 276.397 130.219C276.006 132.51 275.693 134.641 275.693 136.975C275.693 141.007 277.516 146.319 279.565 149.653C283.052 155.328 287.023 157.427 293.393 155.012C294.685 154.523 295.967 154.017 297.246 153.49C297.707 153.3 298.947 153.295 299.26 152.906C299.698 152.361 301.413 150.453 301.92 151.426C304.391 156.168 311.622 151.9 314.848 150.029C317.805 148.313 320.794 146.571 322.69 143.502C324.682 140.277 325.051 136.954 326.23 133.409C327.634 129.192 328.46 124.865 329.203 120.46C330.043 115.477 329.907 110.301 329.907 105.259C329.907 99.9142 330.722 94.7162 330.924 89.3899C331.136 83.7975 330.909 78.4336 330.181 72.9165C329.64 68.8172 330.161 64.6846 329.829 60.5718C328.99 50.1687 329.526 39.6283 328.499 29.2306C327.641 20.5409 322.558 15.022 316.178 10.109C312.057 6.93572 306.606 8.00589 301.939 9.06634C300.027 9.50097 298.421 10.1377 296.678 11.0265C295.816 11.4663 295.81 11.3424 295.407 10.4843" stroke="white" stroke-width="2" stroke-linecap="round"/>
<path d="M29.3089 130.649C25.766 131.69 22.5631 125.942 19.1075 124.878C17.9287 126.75 16.6537 119.228 16.6451 118.301C16.6001 113.435 16.2629 108.273 16.821 103.43C17.3966 98.4352 17.8572 93.3676 17.6809 88.3313C17.5416 84.3498 16.561 80.5837 15.9416 76.6868C14.8028 69.5226 13.404 62.3937 12.5802 55.1766C11.7696 48.0748 11.3776 39.1581 14.3977 32.5288C16.5406 27.825 18.8081 23.8322 22.977 21.0084C26.6012 18.5536 29.3153 16.9805 33.6474 16.1686C37.3761 15.4698 41.007 15.38 44.7869 15.424C50.9086 15.4952 56.8416 18.5119 62.5318 20.6568C66.1265 22.0118 70.987 23.7598 72.401 27.9165C72.9396 29.4999 73.7657 31.1283 74.1207 32.7563C74.3527 33.8203 74.2218 37.1095 74.3357 36.0242C74.6022 33.486 74.7975 30.4359 75.7428 28.082C76.7316 25.6195 76.8248 22.5107 78.7328 20.4913C83.8431 15.0829 91.5953 12.2086 98.7838 13.1903C102.353 13.6776 105.407 15.4315 108.34 17.4716C110.796 19.1797 113.621 19.9381 114.868 22.8699C115.543 24.4591 114.356 23.9867 116.275 23.9867C118.651 23.9867 120.084 24.2399 122.294 25.2691C130.011 28.8629 132.082 37.5982 133.512 45.497C134.376 50.273 132.82 56.1863 130.795 60.4714C129.539 63.1295 127.87 65.9507 126.183 68.3309C124.686 70.4438 123.012 72.1201 121.141 73.8533C120.416 74.5242 119.039 75.126 118.464 75.7354C118.157 76.0595 119.281 76.1077 119.714 76.1077C120.845 76.1077 121.611 76.551 122.685 76.7696C125.799 77.4034 129.05 78.0311 132.202 78.3415C136.567 78.7712 143.886 80.1995 146.273 84.6911C147.09 86.229 148.921 88.2931 149.263 89.9239C149.942 93.1575 151.294 96.0979 151.804 99.3967C152.36 102.997 151.918 110.038 148.032 111.62C147.688 111.76 146.607 111.17 146.468 111.682C146.33 112.196 146.774 113.338 146.82 113.895C147.017 116.294 147.542 118.592 147.504 121.031C147.417 126.635 144.878 130.281 141.7 134.392C138.68 138.299 135.605 139.827 131.049 141.259C123.956 143.488 118.094 141.46 111.272 139.397C110.614 139.198 109.376 139.195 108.868 138.818C108.4 138.472 108.25 137.466 107.93 136.978C107.473 136.279 106.624 134.377 106.269 135.84C104.909 141.435 100.824 145.484 95.9892 148.043C91.3481 150.499 86.8323 147.976 84.8888 143.348C84.5197 142.469 79.7793 143.92 78.4788 143.41C75.0747 142.076 72.6162 139.531 70.3099 136.647C69.143 135.187 69.7733 134.734 68.2774 136.047C66.48 137.624 64.5091 138.774 62.5709 140.142C54.1865 146.058 44.8204 140.922 38.6504 134.392C37.7087 133.395 36.2479 128.58 35.8362 128.766C35.3641 128.981 33.8362 129.272 33.1784 129.346C31.8762 129.491 30.5689 130.278 29.3089 130.649Z" stroke="white" stroke-width="2" stroke-linecap="round"/>
<path d="M326.563 155.768C318.732 150.564 313.884 158.241 307.298 160.949C304.293 162.184 301.679 165.368 299.404 167.717C297.896 169.274 296.893 170.705 295.965 172.689C295.273 174.167 294.811 175.145 294.538 173.253C294.01 169.581 288.488 169.31 285.922 168.323C281.314 166.549 276.691 166.851 272.01 167.988C266.89 169.232 261.517 171.698 258.528 176.637C256.773 179.535 254.766 182.474 253.936 185.828C253.179 188.883 252.781 192.456 252.705 195.625C252.592 200.326 253.921 204.858 255.519 209.077C255.854 209.963 256.31 211.511 256.925 212.169C257.219 212.483 257.942 212.697 257.942 211.981C257.942 210.988 255.915 211.66 255.519 211.709C253.363 211.981 251.334 211.972 249.188 212.545C247.166 213.085 245.363 214.077 243.365 214.717C241.387 215.352 239.61 216.794 238.012 218.185C236.715 219.313 234.55 222.52 234.084 224.18C233.779 225.269 232.963 227.045 233.537 228.149C233.739 228.537 229.78 229.995 229.004 230.572C227.222 231.898 227.009 235.223 226.679 237.34C226.225 240.25 225.75 243.779 226.151 246.699C226.764 251.155 229.713 255.518 234.065 256.182C235.457 256.395 236.821 257.06 238.226 257.31C238.29 257.322 235.54 261.462 235.198 262.094C232.71 266.697 232.412 272.045 232.306 277.134C232.223 281.138 231.05 285.572 233.439 289.25C234.93 291.545 236.46 292.87 238.832 294.138C240.382 294.966 241.278 294.503 242.779 294.681C243.059 294.714 242.741 296.045 242.681 296.185C242.397 296.854 242.719 297.894 242.935 298.566C243.558 300.498 245.093 301.837 246.57 302.995C250.214 305.852 255.825 305.716 260.091 306.713C265.154 307.897 272.356 309.079 276.582 305.063C277.66 304.039 278.352 303.112 279.103 301.909C280.129 300.262 279.215 305.893 278.888 307.841C278.32 311.223 277.306 314.414 277.891 317.889C278.422 321.045 278.911 324.431 279.708 327.519C280.183 329.358 280.135 330.87 281.271 332.49C282.549 334.311 284.569 335.811 286.117 337.378C290.256 341.57 294.608 344.722 300.263 341.431C303.443 339.581 305.671 336.941 307.845 333.953C308.57 332.955 310.438 336.765 311.166 337.378C313.924 339.699 316.801 342.542 320.428 342.935C328.568 343.816 332.89 335.568 335.669 328.605C338.628 321.19 338.521 313.008 338.521 305.063C338.521 297.285 339.177 289.682 339.752 281.939C340.421 272.93 338.267 264.026 339.088 255.054C339.812 247.144 341.63 239.401 342.038 231.429C342.534 221.767 342.839 212.241 342.585 202.56C342.351 193.625 343.273 184.737 342.918 175.78C342.679 169.767 341.149 164.672 339.596 158.964C338.629 155.41 330.527 155.768 326.563 155.768Z" stroke="white" stroke-width="2" stroke-linecap="round"/>
<path d="M39.0469 169.515C32.169 162.157 26.8492 152.801 16.431 151.329C13.1826 147.272 12.3951 150.203 11.6738 151.746C10.4511 154.362 9.99865 157.329 9.68518 160.213C8.12894 174.53 5.45543 188.314 6.09782 202.842C6.58799 213.928 6.86263 224.754 8.67136 235.711C10.52 246.909 13.526 257.915 13.448 269.351C13.3733 280.303 14.6498 291.559 19.1605 301.531C20.5599 304.625 21.9183 298.729 22.3969 297.193C23.873 292.456 25.0961 287.951 27.2905 283.491C28.8556 280.31 30.4698 277.174 32.3791 274.21C34.421 271.042 35.8183 267.45 37.7602 264.2C39.317 261.594 39.3933 262.309 38.3646 264.679C37.5046 266.661 36.9233 268.762 36.0445 270.728C29.8223 284.645 27.8291 301.129 28.4408 316.506C28.8919 327.845 33.3952 340.375 43.7651 345.182C47.4399 346.886 54.2852 345.67 57.8221 343.889C60.615 342.483 62.7291 339.589 63.7295 336.486C63.8815 336.014 63.6627 335.012 64.178 335.839C64.5703 336.469 65.2701 337.084 65.7377 337.695C66.9794 339.319 70.6275 339.512 72.23 338.655C76.1167 336.576 77.9 331.855 79.8727 328.018C81.8872 324.1 82.9525 319.763 84.3374 315.546C86.1089 310.153 86.6899 304.129 87.8077 298.549C88.7505 293.843 87.0832 289.323 86.3455 284.763C85.9613 282.389 87.7375 285.171 88.5291 285.806C91.9985 288.59 95.032 291.781 98.3944 294.732C102.452 298.294 105.853 302.713 110.248 305.828C113.172 307.899 117.584 309.489 121.01 310.291C122.658 310.676 124.605 310.614 126.274 310.416C128.487 310.153 130.261 310.833 132.396 310.833C135.867 310.833 138.207 308.63 140.663 306.453C142.687 304.659 143.392 300.804 143.879 298.139L143.899 298.028C144.628 294.044 144.404 290.192 144.153 286.161C144.062 284.713 141.329 279.515 142.788 279.32C146.519 278.821 148.166 275.031 149.436 271.833C151.427 266.823 147.645 259.577 145.849 255.023L145.817 254.943C143.253 248.441 140.841 242.324 136.939 236.545C135.225 234.006 131.791 232.05 129.433 230.33C128.72 229.81 125.402 226.939 126.001 227.452C127.298 228.562 131.402 225.707 132.318 224.824C134.598 222.63 136.526 220.715 137.855 217.566C140.296 211.784 141.648 205.243 139.435 199.193C138.655 197.062 136.531 195.186 134.365 194.896C132.496 194.646 134.044 192.563 134.697 191.413C136.371 188.465 136.506 184.296 136.452 180.986C136.38 176.643 134.821 174.049 131.714 171.601C130.55 170.683 130.201 169.395 129.355 168.222C128.165 166.573 126.55 165.928 124.754 165.386C123.452 164.993 122.516 163.672 121.205 163.425C119.741 163.149 118.197 162.9 116.721 162.674C110.838 161.775 104.78 161.827 99.1742 164.092C97.7501 164.668 96.5307 164.885 95.3724 165.969C95.1529 166.175 93.6858 167.604 93.6372 166.72C93.4814 163.887 92.1415 162.314 91.2001 159.796C89.7794 155.997 86.5695 153.866 83.538 151.704C81.8636 150.51 79.9188 149.874 78.2739 148.701C76.6786 147.563 74.8528 148.039 73.0684 148.534C68.64 149.762 64.1271 149.52 59.7717 150.953C55.4512 152.375 51.4982 154.234 47.7424 156.96C45.0924 158.883 42.8652 162.194 41.4255 165.219C41.0026 166.107 39.9203 170.449 39.0469 169.515Z" stroke="white" stroke-width="2" stroke-linecap="round"/>
<path d="M136.76 346.358C134.303 346.358 132.081 346.325 129.663 345.847C127.624 345.444 121.404 346.351 120.318 343.803C119.668 342.277 120.216 338.888 120.216 337.161C120.216 329.378 125.644 324.898 132.522 324.898C133.78 324.898 135.534 324.857 136.505 323.876C137.806 322.561 140.731 323.581 142.377 323.337C144.467 323.027 144.113 321.462 144.113 319.391C144.113 317.89 143.471 313.943 144.215 312.749C145.746 310.29 147.128 306.881 148.198 304.204C150.149 299.325 155.219 292.3 160.428 293.191C162.972 293.626 164.847 295.751 167.347 296.256C168.526 296.495 169.188 297.388 170.283 298.073C171.879 299.071 171.332 298.662 171.789 297.193C172.676 294.345 176.968 291.802 179.193 290.664C183.916 288.249 188.122 283 193.542 283C196.314 283 198.507 285.484 201.125 286.066C202.386 286.346 204.295 287.121 205.235 288.166C206.48 289.55 205.407 291.461 206.256 292.594C208.059 294.999 213.473 295.942 215.958 297.477C217.333 298.326 218.521 298.27 220.043 298.328C222.19 298.411 224.93 300.35 226.988 300.997C231.22 302.328 237.67 303.005 239.958 307.809C242.164 312.444 244.144 316.253 248.204 319.164C250.979 321.153 253.911 323.468 257.064 324.671C258.057 325.05 258.354 325.043 259.03 325.92C260.388 327.682 259.923 329.955 259.923 332.193C259.923 335.189 258.747 336.673 256.502 338.381C256.16 338.641 253.258 340.079 254.153 341.021C255.371 342.304 258.001 341.396 258.085 344.2C258.139 346.015 257.695 347.157 256.298 347.891C254.364 348.906 252.564 348.912 250.477 348.912C248.288 348.912 246.194 349.587 244.043 349.906C239.778 350.538 235.079 350.445 230.766 350.445C226.141 350.445 221.58 350.956 216.954 350.956C206.733 350.956 196.512 350.956 186.291 350.956C181.909 350.956 177.106 350.305 172.861 351.354C171.191 351.766 169.488 351.41 167.806 351.865C165.642 352.45 163.166 353 160.938 353C157.789 353 154.641 353 151.492 353C147.99 353 144.751 351.467 141.356 351.467C138.256 351.467 137.943 348.771 137.22 346.358" stroke="white" stroke-width="2" stroke-linecap="round"/>
<path d="M92.7407 311.375C91.2299 316.925 90.0795 323.312 87.5086 328.256C86.7909 329.637 86.8712 329.657 87.5086 330.882C87.8107 331.463 88.3384 331.793 88.7613 332.237C89.4965 333.009 89.811 334.232 90.4931 335.092C91.4084 336.247 92.2931 339.091 92.3906 340.636C92.5056 342.458 92.7407 344.222 92.7407 346.055C92.7407 347.666 92.487 348.889 94.1408 348.889C95.149 348.889 97.1325 348.834 98.0465 348.347C99.4318 347.61 102.628 346.996 103.979 347.951C105.007 348.678 107 349.985 107 347.764C107 345.582 107 343.401 107 341.22C107 334.947 105.251 329.92 102.468 324.63C101.558 322.901 100.181 321.941 99.115 320.378C98.3527 319.261 96.8008 317.702 96.3884 316.419C95.7143 314.321 94.4609 312.794 93.4039 311" stroke="white" stroke-width="2" stroke-linecap="round"/>
</svg>
