<svg width="245" height="380" viewBox="0 0 245 380" fill="none" xmlns="http://www.w3.org/2000/svg">
<g clip-path="url(#clip0_233_22)">
<path d="M124.278 2.2926C122.742 1.23288 127.541 -1.34684 128 -1.5C128.403 -1.29846 132.246 -2.01062 132.675 -2.4396C133.274 -3.0384 133.888 -3.61035 134.396 -4.28787C135.646 -5.95448 141.442 -4.7291 143 -4.5906C149.277 -4.03265 155.526 -4.47043 161.69 -2.80607C163.794 -2.23792 165.66 -1.54784 167.458 -0.416068C167.895 -0.140687 169.737 -0.978733 169.688 -0.00180101C169.662 0.532022 167.681 2.25063 169.115 1.98987C169.966 1.83512 170.812 1.43533 170.947 2.7228C171.013 3.34745 170.786 3.91187 170.501 4.45953C170.412 4.62992 169.353 5.98914 169.72 5.98914C170.071 5.98914 172.939 5.09346 172.939 5.62267C172.939 6.8705 171.594 8.06905 170.692 8.7456C169.914 9.32937 173.503 9.04631 174.086 9.17581C175.741 9.54366 173.838 11.7107 173.258 12.1872C171.995 13.2243 171.505 13.7646 173.385 13.7646C174.677 13.7646 171.514 17.3936 171.186 17.7798C170.389 18.7191 168.902 19.7874 170.899 19.7874C171.663 19.7874 173.477 19.8748 172.047 20.9346C171.036 21.6831 169.282 21.8825 168.446 22.7191C167.783 23.3817 170.301 23.4583 170.804 24.2487C171.631 25.5484 167.695 26.0442 167.123 26.0811C165.001 26.218 164.427 26.4417 165.928 28.2162C167.573 30.1595 163.785 29.5386 162.518 29.5386C159.36 29.5386 164.709 35.0944 160.192 31.61C159.375 30.9798 158.884 30.7748 158.408 31.833C157.824 33.1298 157.898 33.3743 156.336 32.6934C151.252 30.4771 155.467 35.0136 154.265 35.1472C153.016 35.2859 149.578 31.4235 148.37 33.8406C148.236 34.107 148.476 35.8164 148.147 35.8164C147.582 35.8164 145.961 33.4602 145.581 32.9802C143.557 30.4228 142.86 34.5646 142.841 34.5417C142.367 33.9894 141.709 33.4006 141.168 32.9165C140.847 32.6295 139.573 31.1263 139.128 31.1001C138.787 31.08 138.081 32.9171 137.917 33.1396C135.879 35.9123 136.284 28.4776 135.113 29.0288C133.439 29.8166 132.255 33.5303 131.257 29.682C131.179 29.3794 131.231 26.9651 130.668 27.4035C130.062 27.8748 129.773 29.0523 128.947 29.2359C127.468 29.5646 130.016 23.7829 127.64 24.8223C127.106 25.0563 126.368 25.8418 125.808 25.9217C125.403 25.9796 125.935 22.7373 125.935 22.3686C125.935 20.118 122.809 22.8521 122.781 22.3686C122.714 21.2289 124.486 16.745 124.151 16.4095C123.804 16.0627 122.524 16.9194 122.064 16.9194C121.217 16.9194 121.805 15.6773 121.92 15.2145C122.171 14.2132 125.655 10.6098 123.354 10.6098C122.905 10.6098 121.597 11.0073 121.41 10.6098C121.092 9.93243 122.415 9.11313 122.781 8.82527C123.205 8.49067 124.788 7.37626 124.788 6.8814C124.788 6.50865 123.455 6.47119 123.131 6.37154C121.026 5.72385 124.55 4.587 125.426 4.587C126.868 4.587 126.926 4.3804 125.935 3.4398C125.44 2.96863 124.836 2.67687 124.278 2.2926Z" stroke="white" stroke-width="2" stroke-linecap="round"/>
<path d="M238.361 33.267C237.295 32.4472 235.861 30.0314 234.633 31.2594C234.368 31.5246 232.864 33.5303 232.689 32.9165C232.65 32.781 232.651 29.4219 232.036 29.7298C231.577 29.9592 230.304 32.156 229.916 31.6577C229.307 30.874 229.939 29.3505 229.407 28.3914C228.893 27.4672 227.542 29.6594 227.176 29.9847C226.322 30.7435 224.34 23.7119 224.34 28.6463C224.34 28.9525 224.707 29.4053 224.531 29.6979C224.41 29.8993 222.618 28.7719 222.428 28.6782C222.105 28.5191 219.728 27.471 220.149 28.5667C220.283 28.9145 220.97 30.7302 220.803 30.3353C220.177 28.8574 216.901 26.5685 215.258 27.3079C214.488 27.6545 216.206 30.0929 216.389 30.4946C216.493 30.724 212.168 28.754 211.864 28.9969C211.425 29.3481 213.754 31.6816 213.059 32.0561C211.89 32.6858 207.243 29.4583 206.303 31.5462C205.855 32.5425 208.467 34.6662 209.044 35.2427C209.508 35.7068 208.92 35.3669 208.757 35.2746C207.791 34.727 206.522 34.701 205.443 34.701C203.653 34.701 202.818 35.3871 204.359 36.7086C206.448 38.4985 202.423 39.332 200.997 39.9749C198.13 41.268 200.553 40.802 202.097 41.0743C204.753 41.5431 200.741 44.2295 200.057 44.6753C199.567 44.9949 197.44 46.4598 199.069 46.4598C200.44 46.4598 200.806 47.3912 200.01 48.5152C199.764 48.8625 196.675 51.6891 197.412 51.9728C198.198 52.2748 200.018 51.7927 200.328 52.7854C200.852 54.4614 197.445 54.7024 196.552 55.0001C195.69 55.2875 198.621 56.5346 198.942 57.0077C199.51 57.8449 196.456 59.6852 195.931 60.2103C194.58 61.5613 197.847 60.8049 198.591 61.1026C199.899 61.6257 198.372 64.2686 198.05 64.9744C197.586 65.9892 200.993 63.3249 201.364 63.158C202.137 62.8102 201.109 67.6286 201.109 68.177C201.109 69.2046 203.899 65.9056 204.232 65.7392C204.501 65.6045 204.206 70.6373 204.248 71.2043C204.422 73.5496 206.951 69.1329 207.211 69.4516C207.696 70.0437 207.294 78.2056 208.948 74.6618C209.246 74.0235 210.417 70.5814 210.892 72.6224C211.085 73.4505 211.586 75.6086 212.135 73.913C212.255 73.5404 212.668 71.3476 213.282 71.4592C214.077 71.6037 214.655 73.1125 214.987 73.6899C216.169 75.7461 216.765 75.9017 216.851 73.3234C216.914 71.4444 218.19 73.2322 218.763 73.897C219.918 75.2371 221.512 77.5496 221.95 74.63C222.001 74.2899 221.81 73.1322 222.364 73.1322C223.584 73.1322 224.852 73.7186 226.029 73.9926C227.043 74.2288 228.698 73.7124 227.176 72.7339C226.877 72.5419 226.518 72.5586 227.08 72.5586C228.345 72.5586 229.583 72.7442 230.825 72.9729C232.905 73.3561 232.052 72.6951 232.052 71.3477C232.052 69.7268 235.478 73.7248 236.003 71.8257C236.342 70.5996 235.535 69.8535 237.246 70.1208C237.977 70.2351 240.6 70.9592 239.445 69.4038C238.65 68.334 237.241 67.387 239.253 66.6952C240.643 66.2175 243.414 66.1393 241.787 64.5123C240.421 63.1465 240.369 63.1113 242.09 62.1701C243.679 61.3005 244.846 60.0223 243.97 58.2186C243.395 57.0363 244.116 56.6655 244.958 55.6374C246.475 53.7828 245.142 54.2379 244.288 52.8969C244.015 52.4672 249.315 48.2125 245.42 48.2125C244.234 48.2125 245.89 46.0948 246.041 45.0896C246.083 44.8109 246.33 43.4325 245.754 43.4325C245.131 43.4325 244.207 44.4225 244.607 43.2413C245.075 41.8615 245.351 39.4206 243.396 40.7238C241.826 41.7707 243.035 38.5327 242.934 37.4734C242.823 36.3108 241.278 39.2941 241.229 36.7086C241.199 35.1227 240.332 34.6515 239.508 33.5538" stroke="white" stroke-width="2" stroke-linecap="round"/>
<path d="M216 55.8825C216 52.835 217.11 51.3832 219.155 49.0152C219.451 49.311 223.24 46.4717 223.76 46.1472C225.212 45.2397 226.656 45 228.332 45C231.702 45 236.001 47.1146 234.993 51.1503C233.177 58.4142 225.745 62.1274 218.709 59.9773C217.276 59.5395 216 57.2996 216 55.8825Z" stroke="white" stroke-width="2" stroke-linecap="round"/>
<path d="M136.26 14.4657C137.429 10.959 140.549 9.7797 143.717 8.31542C145.463 8.31542 149.176 7.74182 151.031 7.74182C153.303 7.74182 155.315 8.52502 156.687 10.323C158.12 12.2008 158.057 13.757 158.057 16.0272C158.057 18.193 156.068 19.3481 154.361 20.2017C152.199 21.2826 148.675 20.7095 146.362 20.4248C143.373 20.0569 140.536 20.0551 137.71 18.7836C135.879 17.9595 135.67 16.2366 136.26 14.4657Z" stroke="white" stroke-width="2" stroke-linecap="round"/>
<path d="M50.5071 37.569C50.5071 44 55.2322 38.4915 55.4146 39.7678C55.4567 40.063 54.1708 41.1396 53.9806 41.4249C53.2778 42.479 55.585 42.1578 56.1475 42.1578C57.3432 42.1578 58.2655 42.0959 56.976 43.082C55.4151 44.2756 57.3645 44.7515 58.41 45.5357C59.4638 46.326 58.6263 45.9287 58.1073 46.3324C57.1829 47.0514 59.5188 48.824 59.9396 49.4553C60.7191 50.6245 58.798 49.5889 58.2507 49.9652C57.4106 50.5427 59.6526 53.3147 59.9715 53.8529C60.2963 54.401 58.2726 54.0448 57.8364 54.2034C56.8009 54.58 58.986 57.7566 59.2067 58.2983C59.6115 59.292 59.448 59.5089 58.5375 59.6526C56.7955 59.9277 60.4613 64.3866 60.7044 64.7513C61.6658 66.1933 62.2207 67.0662 60.2742 66.3924C58.0602 65.626 60.2218 67.819 60.7044 68.5913C61.5416 69.9307 62.1494 70.9751 60.1946 70.2643C56.536 68.9338 62.1595 73.8912 60.9912 74.7256C60.4956 75.0796 57.5282 73.3321 57.4062 73.8811C57.3033 74.3444 58.4019 77.9441 57.7886 77.9441C57.0603 77.9441 56.4222 75.5086 55.6695 76.6376C55.4922 76.9036 54.7531 79.4935 54.5223 79.3781C54.1042 79.1691 53.2626 77.195 52.6422 77.9282C52.3425 78.2823 50.9137 81.3245 50.778 79.9677C50.6511 78.6986 50.391 77.0025 49.3599 78.8683C49.2235 79.1152 48.3053 80.8281 47.9896 80.6847C47.798 80.5976 47.9259 79.3773 47.9259 79.2188C47.9259 77.3445 47.0975 78.4627 46.3326 79.4419C46.1934 79.62 44.803 81.0969 44.803 80.9396C44.803 80.191 45.1088 79.493 45.042 78.7249C44.8515 76.5342 43.6649 78.4697 42.8272 79.1551C41.1806 80.5023 41.7681 79.3781 40.7559 78.4221C40.2799 77.9725 38.1604 80.1381 37.8082 80.3819C37.4533 80.6276 37.6117 79.4154 37.5852 79.2029C37.4976 78.5021 36.1998 79.3061 35.8803 79.4259C33.8607 80.1833 33.3641 77.5313 31.4349 78.454C29.3204 79.4653 30.686 78.5047 30.686 76.781C30.686 76.7499 28.8804 77.5368 28.2642 77.0837C26.8538 76.0467 25.8985 74.9258 23.8347 75.2036C22.0453 75.4445 24.7327 75.5664 24.6473 75.2673C24.3186 74.1168 21.4042 73.7059 20.4568 73.7059C20.1058 73.7059 20.5524 73.6126 20.5524 73.3553C20.5524 72.7343 19.6668 72.1358 19.2778 71.7938C19.1808 71.7086 17.2781 70.1774 17.4295 70.0412C17.7307 69.7701 18.79 69.992 19.1822 69.9775C20.0842 69.944 16.2994 68.0421 15.868 67.8264C14.8275 67.3062 17.6907 67.2893 17.4932 66.6474C17.3001 66.0197 14.6224 63.7763 14.7208 63.7316C16.0304 63.1363 16.3514 63.9723 15.4537 62.0108C15.0789 61.1916 14.4863 60.6237 13.7807 60.0828C13.647 59.9803 11.8044 58.7208 12.8407 58.9675C14.6201 59.3912 15.3289 59.7 14.3543 57.6291C13.79 56.4298 11.5244 54.0217 13.956 55.0638C15.4067 55.6855 13.459 50.5832 13.8604 50.0926C14.3631 49.4782 15.1315 51.901 15.6449 50.1404C15.828 49.513 15.3214 46.147 16.5213 46.7785C17.8567 47.4814 17.8256 46.9354 18.3855 45.5357C19.3018 43.2449 19.7191 45.6833 20.3294 44.9621C20.5306 44.7242 21.2137 41.9041 21.4128 42.0463C22.8905 43.1018 23.2346 42.6849 23.9622 40.8991C24.604 39.3237 25.1604 38.7704 26.7027 39.9272C27.9348 40.8513 28.2529 40.675 28.9334 39.0668C29.1941 38.4504 30.1523 40.1263 30.5904 40.2458C31.7037 40.5495 32.1749 37.8877 32.9008 37.8877C34.1641 37.8877 34.3836 39.5669 35.4342 38.2382C36.0652 37.4401 37.2881 35.1974 37.8242 37.2822C38.1657 38.6103 38.6102 38.0503 39.4494 37.0114C40.9814 35.1146 40.8194 37.1063 41.3295 38.764C41.4481 39.1493 43.5637 36.6499 43.9107 36.4856C44.8891 36.0221 44.5701 39.8046 45.6952 39.5129C46.4352 39.321 47.6012 37.5311 48.2764 38.2064C48.6574 38.5873 48.7845 39.5434 49.1368 39.7997C49.5426 40.0948 50.4328 37.7301 50.5071 37.569Z" stroke="white" stroke-width="2" stroke-linecap="round"/>
<path d="M36.454 52.4827C33.4915 53.6896 31.3898 55.1871 31.8492 58.6329C32.0516 60.1508 32.1599 61.7718 33.5222 62.68C35.9865 64.3228 39.8941 67.1019 43.0504 66.3128C47.0961 65.3014 48.6858 61.2111 46.5876 57.4539C44.7962 54.246 42.6889 52.4827 39.0352 52.4827" stroke="white" stroke-width="2" stroke-linecap="round"/>
<path d="M148.019 90.627C145.783 87.9012 143.652 85.0988 141.423 82.3736C140.494 81.2379 138.764 80.398 138.045 79.155C136.737 76.8953 132.414 74.853 129.951 74.853C124.788 74.853 121.068 76.1844 117.459 79.888C116.258 81.1207 114.925 83.1152 114.527 84.8273C114.48 85.0307 113.871 86.7372 113.826 86.7074C113.236 86.3142 113.77 86.0382 112.838 86.0382C110.694 86.0382 108.745 86.9735 106.943 88.1096C103.92 90.0152 102.761 91.5844 102.354 95.1521C101.851 99.5695 101.484 105.232 103.756 109.237C105.337 112.023 106.663 114.662 108.951 116.949C109.831 117.83 110.741 118.689 111.596 119.594C113.061 121.146 110.669 120.659 109.652 120.964C107.94 121.478 105.925 122.603 104.649 123.832C102.776 125.635 100.745 128.313 100.347 130.97C100.05 132.944 100.003 134.93 99.7411 136.897C99.5018 138.692 100.733 140.592 101.207 142.251C101.479 143.204 102.755 144.211 102.705 145.119C102.67 145.752 100.856 147.444 100.474 147.987C100.05 148.591 99.8383 149.529 99.5499 150.218C99.0905 151.315 98.3204 152.268 97.8928 153.373C97.4995 154.389 96.7693 156.787 97.0324 157.802C98.0098 161.572 100.23 163.502 103.788 164.908C105.025 165.397 106.255 165.858 107.517 166.279C108.214 166.511 109.89 166.375 110.385 166.98C110.877 167.581 110.448 170.231 110.448 170.931C110.448 172.817 110.681 174.869 110.385 176.731C109.798 180.42 110.266 184.24 111.165 187.836C113.123 195.667 122.427 199.644 129.807 197.731C133.284 196.83 136.709 195.964 139.559 193.748C140.053 193.363 139.942 194.04 140.148 194.305C140.818 195.167 141.682 194.993 142.697 195.038C144.986 195.14 146.353 195.099 148.577 194.321C154.286 192.323 159.134 187.845 160.495 181.798C160.902 179.99 160.929 178.188 161.069 176.348C161.238 174.106 161.824 171.427 161.339 169.21C160.938 167.374 159.778 161.914 159.778 163.793C159.778 164.337 160.066 164.59 159.921 164.59C159.405 164.59 161.422 162.723 161.642 162.455C162.176 161.802 162.381 160.958 162.949 160.319C163.83 159.327 164.974 158.67 165.625 157.467C166.135 156.527 166.686 155.574 167.091 154.583C167.421 153.777 168.246 152.84 168.366 152.002C168.389 151.842 168.276 150.901 168.541 151.014C169.288 151.335 170.099 150.721 170.788 150.441C172.32 149.817 173.595 148.546 174.883 147.525C176.367 146.348 177.979 145.346 179.424 144.115C182.045 141.883 182.156 139.23 181.862 136.069C181.797 135.377 180.747 130.667 181.463 130.19C182.773 129.317 183.216 127.399 184.156 126.19C185.282 124.742 186.096 122.543 185.415 120.725C184.732 118.906 183.511 117.114 182.579 115.435C182.333 114.993 182.757 114.486 183.025 114.129C183.791 113.107 184.321 111.707 184.427 110.432C184.779 106.211 183.58 101.566 179.264 99.948C176.943 99.0774 174.674 98.0973 172.413 97.08C170.58 96.2554 171.008 96.4252 170.804 94.6582C170.658 93.3901 168.573 91.4286 167.522 90.7864C165.901 89.7958 163.603 89.2213 161.77 88.7628C158.816 88.0244 155.124 89.7553 152.21 90.1968C151.843 90.2524 147.671 91.3227 148.019 90.627Z" stroke="white" stroke-width="2" stroke-linecap="round"/>
<path d="M144.45 110.767C142.861 112.57 140.181 112.958 138.555 111.277C138.852 113.659 137.629 111.87 137.567 112.057C137.344 112.727 139.15 116.131 137.662 115.387C137.012 115.062 135.264 112.694 135.543 113.587C135.782 114.35 136.12 117.67 134.954 117.825C133.978 117.955 132.479 117.071 131.576 116.79C131.472 116.757 129.724 116.525 130.301 116.79C130.945 117.085 133.61 119.734 132.691 119.53C132.005 119.378 127.175 117.519 128.357 119.084C128.785 119.65 131.596 124.112 129.09 122.398C128.91 122.275 127.114 120.983 127.114 121.506C127.114 122.501 127.982 123.72 128.357 124.597C128.555 125.059 129.586 127.154 129.011 127.672C128.582 128.057 126.608 126.826 126.127 126.652C124.366 126.019 126.934 130.143 127.178 130.875C127.559 132.016 123.807 129.828 124.119 130.54C124.668 131.794 125.706 132.964 126.509 134.061C126.909 134.608 128.969 136.5 127.338 136.356C127.071 136.332 125.368 135.921 125.441 136.579C125.587 137.89 127.522 139.548 128.341 140.467C128.564 140.716 130.49 142.197 129.202 141.805C128.886 141.709 127.411 141.161 128.007 142.012C128.746 143.069 129.692 144.054 130.636 144.928C131.386 145.622 131.676 145.726 130.476 145.549C130.197 145.508 127.339 145.339 128.421 146.043C129.831 146.961 131.401 147.644 132.85 148.497C136.379 150.572 132.673 149.151 132.372 150.505C132.356 150.577 134.168 150.566 134.253 150.568C135.353 150.599 136.884 150.789 137.63 151.715C138.349 152.607 136.055 154.191 136.228 154.233C137 154.421 142.337 153.461 142.124 154.599C141.886 155.867 140.289 158.072 142.586 156.113C143.117 155.66 146.424 151.617 145.565 154.44C145.506 154.636 144.898 155.715 145.199 155.539C146.082 155.025 146.897 154.197 147.557 153.436C148.284 152.6 148.82 151.521 149.102 153.213C149.237 154.023 149.182 155.066 149.517 155.826C149.774 156.411 151.363 151.782 151.747 151.62C152.746 151.199 153.745 155.825 154.392 155.89C154.607 155.911 154.32 150.407 154.329 150.409C154.912 150.506 157.197 153.946 157.197 153.245C157.197 152.742 156.839 148.241 157.834 149.198C158.101 149.455 159.857 151.928 160.001 151.524C160.171 151.049 160.588 146.267 161.499 147.127C162.373 147.952 163.791 150.923 163.331 147.429C163.097 145.654 162.495 143.731 164.701 145.294C168.207 147.777 165.004 143.063 165.004 141.63C165.004 141.375 168.232 143.69 168.462 143.048C168.62 142.603 165.795 137.387 167.362 138.14C168.188 138.537 171.158 141.446 169.911 138.618C169.287 137.203 168.484 135.863 167.936 134.412C167.587 133.489 168.942 134.357 169.242 134.507C169.637 134.705 171.252 135.948 171.696 135.75C172.143 135.551 171.057 134.039 170.963 133.87C170.816 133.605 169.59 131.191 170.262 131.496C170.83 131.754 171.489 131.825 172.078 132.054C173.569 132.634 170.879 129.072 170.389 128.644C168.355 126.864 171.993 129.335 171.903 128.883C171.765 128.191 168.398 126.699 168.43 126.62C168.521 126.393 171.966 127.209 170.358 126.047C169.894 125.712 167.193 124.728 167.76 124.294C167.892 124.194 170.995 122.43 170.867 122.287C169.591 120.851 167.699 121.873 166.263 121.299C166.232 121.286 166.895 120.237 166.948 120.104C167.035 119.883 167.486 118.72 167.171 118.51C166.845 118.293 164.111 120.444 164.08 119.881C164.063 119.58 165.722 116.497 164.877 116.79C164.318 116.983 161.421 119.32 161.562 118.542C161.649 118.065 163.008 114.588 161.499 115.881C160.64 116.618 159.36 117.529 159.65 115.595C159.738 115.013 160.133 112.818 159.905 113.013C159.336 113.501 157.903 115.748 156.942 115.387C156.122 115.08 157.178 110.897 156.336 111.34C155.957 111.54 154.379 114.262 154.106 112.743C154.023 112.285 154.311 109.311 153.691 109.906C153.374 110.212 150.817 112.872 150.664 112.519C150.47 112.074 150.433 108.762 149.676 109.46C148.945 110.135 148.498 111.499 147.668 112.01C146.716 112.596 146.325 110.24 145.725 109.906C145.185 109.607 144.718 110.463 144.45 110.767Z" stroke="white" stroke-width="2" stroke-linecap="round"/>
<path d="M137.758 125.903C138.613 123.106 141.951 123.005 144.291 122.749C154.238 122.749 162.061 140.243 149.995 140.243C147.518 140.243 145.302 140.681 143.446 138.825C141.776 137.155 140.447 135.258 139.272 133.217C137.916 130.862 136.92 128.645 137.758 125.903Z" stroke="white" stroke-width="2" stroke-linecap="round"/>
<path d="M221.153 145.98C221.421 147.159 221.409 150.238 222.3 149.421C223.008 148.773 223.586 148.055 224.388 147.461C225.851 146.377 225.151 149.273 225.105 150.186C225.025 151.753 224.639 153.644 226.061 151.827C226.4 151.393 227.436 149.516 228.164 149.724C229.48 150.1 228.088 155.645 230.06 154.265C231.264 153.422 232.347 152.487 233.422 151.492C234.391 150.595 233.743 153.053 233.709 153.309C233.61 154.044 233.031 155.532 234.123 155.731C235.824 156.04 237.606 156.01 239.253 156.591C240.52 157.038 237.849 157.46 237.549 157.595C235.792 158.386 239.003 160.307 239.636 160.734C240.039 161.005 243.373 162.866 241.866 162.901C241.23 162.916 239.203 162.495 239.859 163.666C240.927 165.572 242.514 167.136 243.109 169.306C243.707 171.485 241.314 169.608 240.496 169.625C239.082 169.653 241.682 173.302 241.946 173.831C242.274 174.487 243.004 175.628 242.854 176.412C242.733 177.047 240.988 176.042 240.624 175.998C239.927 175.914 242.116 180.087 242.36 180.666C243.415 183.171 242.308 182.27 240.767 181.575C238.596 180.594 238.594 181.784 238.935 183.55C239.035 184.068 240.105 187.774 238.632 186.227C238.191 185.764 236.233 183.107 236.13 184.028C235.947 185.683 236.732 188.412 234.633 186.641C233.105 185.354 233.08 185.253 232.498 187.422C232.358 187.941 231.886 190.972 231.191 189.35C230.985 188.87 230.652 187.128 229.901 187.295C228.627 187.578 227.863 191.322 227.335 192.377C226.273 194.501 226.103 187.326 224.595 190.019C224.441 190.294 223.505 192.891 223.447 191.676C223.382 190.298 223.297 188.798 222.013 190.434C218.664 194.703 221.889 189.027 219.942 188.49C218.535 188.101 216.483 188.326 215.035 188.442C213.415 188.571 215.953 188.448 216.389 188.41C218.156 188.256 215.231 186.947 214.907 186.833C213.316 186.269 208.32 185.52 209.888 186.147C210 186.192 211.613 187.017 211.561 186.578C211.399 185.2 206.709 185.567 205.921 185.558C204.256 185.538 205.319 185.143 205.06 184.108C204.679 182.582 201.826 182.176 200.631 181.543C199.916 181.164 203.486 181.608 203.021 181.097C202.492 180.514 198.626 178.072 198.99 177.416C199.266 176.92 201.802 177.535 201.81 177.464C201.834 177.245 201.055 176.649 200.95 176.54C199.972 175.525 199.187 174.359 198.257 173.305C196.846 171.706 198.417 172.403 199.579 172.588C201.328 172.866 199.101 168.435 198.846 167.84C198.458 166.934 198.124 166.003 197.922 165.036C197.667 163.813 199.031 164.623 199.739 164.701C201.898 164.941 200.425 162.6 199.994 161.53C199.346 159.924 200.075 159.836 201.603 160.192C203.425 160.617 201.488 159.424 200.95 158.455C198.568 154.169 205.515 159.037 205.331 156.368C205.305 155.986 204.228 152.368 205.507 152.99C205.927 153.195 208.703 155.399 208.47 154.233C208.312 153.443 208.001 152.639 207.673 151.907C207.627 151.802 206.793 150.557 207.148 150.616C208.213 150.794 209.195 152.466 209.044 150.218C208.951 148.842 208.399 147.367 209.904 148.768C210.338 149.172 211.959 150.856 212.422 149.644C212.724 148.851 212.294 147.989 212.294 147.19C212.294 146.653 214.587 148.748 215.003 149.007C216.227 149.769 216.456 147.131 216.548 146.298C216.642 145.453 216.977 147.193 217.361 147.7C217.815 148.299 217.694 147.689 217.727 147.238C217.797 146.3 220.745 146.796 221.153 145.98Z" stroke="white" stroke-width="2" stroke-linecap="round"/>
<path d="M206.383 172.078C203.575 166.463 210.928 163.054 214.557 160.893C216.057 159.841 220.846 160.689 221.44 161.052C222.59 161.755 223.158 162.574 223.734 163.761C225.341 167.069 221.463 171.654 218.843 173.225C215.348 175.322 208.654 176.62 206.383 172.078Z" stroke="white" stroke-width="2" stroke-linecap="round"/>
<path d="M11.1837 106.927C7.06888 102.355 4.00244 98.2073 1.5 92.5C2.01354 91.7297 2.66934 91.891 3.53569 91.7105C4.76431 91.4546 6.35717 91.0241 7.26409 90.1172C7.9864 89.3949 8.93649 92.7416 9.35136 93.4791C10.9183 96.2647 13.4236 99.1456 15.8203 101.223C16.6268 101.922 17.635 102.358 18.513 102.944C18.97 103.248 17.4428 103.224 16.9516 103.469C15.5335 104.178 14.0139 106.294 13.2869 107.676C12.6471 108.891 11.9154 107.74 11.1837 106.927Z" stroke="white" stroke-width="2" stroke-linecap="round"/>
<path d="M18.8156 125.362C18.5583 127.214 16.3322 127.877 14.657 128.485C14.6363 128.732 14.5663 130.931 14.4658 130.938C13.8656 130.985 13.4109 130.269 12.8406 130.269C12.2661 130.269 13.6472 135.043 12.6016 135.304C11.8828 135.484 9.0388 133.599 9.68575 135.304C10.0794 136.342 12.3702 140.333 10.0203 140.451C7.90821 140.556 6.72751 139.463 7.78968 142.251C7.97162 142.729 9.74927 146.808 9.27148 146.808C8.75281 146.808 7.80217 146.342 7.32761 146.617C7.02575 146.792 8.00056 148.681 8.07648 148.863C8.67454 150.299 10.593 152.338 8.07648 152.002C5.05898 151.6 9.21706 154.643 10.0044 155.316C11.8569 156.9 9.82379 156.072 8.41108 156.368C7.05931 156.651 11.4824 159.149 11.9483 159.395C14.2744 160.627 12.291 160.442 10.8967 160.67C9.99819 160.817 11.3772 161.144 11.5659 161.228C12.4367 161.615 13.2422 162.11 14.0834 162.55C14.2122 162.618 11.3548 162.926 10.9604 163.347C10.5085 163.829 12.2761 163.476 12.9362 163.506C14.0983 163.56 14.7995 163.613 15.9476 163.777C16.6291 163.874 18.6908 163.985 19.0546 164.845C19.1564 165.085 18.4435 165.566 18.704 165.546C19.8465 165.458 20.8771 164.69 22.05 164.621C22.7803 164.579 23.0904 164.985 23.1972 165.673C23.2292 165.879 23.1336 167.172 23.4522 167.027C24.0278 166.766 26.1832 164.485 26.8141 165.115C27.6735 165.975 25.8546 169.454 26.3202 169.72C27.1719 170.207 28.7099 166.892 29.5387 167.41C30.5563 168.046 29.6459 170.132 30.3035 170.883C30.5783 171.197 32.3311 167.502 33.283 167.681C34.6919 167.945 33.9092 170.657 34.8764 170.979C35.6806 171.247 36.6199 167.042 37.5691 167.856C38.4019 168.57 37.7743 171.981 39.035 169.497C39.3288 168.918 40.2364 165.543 40.5964 166.661C40.8181 167.349 41.6208 170.877 41.9667 168.732C42.1688 167.479 42.1459 165.13 43.4007 166.757C45.9815 170.102 44.2263 163.386 46.0456 164.685C46.827 165.243 47.5689 166.146 47.862 164.908C48.0688 164.035 48.0395 161.42 49.4872 162.04C50.2515 162.368 51.9672 163.001 51.7816 161.578C51.7368 161.235 51.0986 158.462 51.9728 158.774C52.3141 158.896 54.5642 160.204 54.4744 159.395C54.4286 158.983 52.6559 154.962 53.8848 155.221C54.3899 155.327 57.9593 157.713 57.4858 155.954C57.2946 155.244 55.4069 151.429 56.4023 151.429C57.0246 151.429 59.2086 152.482 59.4615 151.795C59.9335 150.514 57.0121 147.67 56.4501 146.633C55.7445 145.33 58.7237 146.7 59.2703 146.776C60.8087 146.992 57.2267 143.235 56.8803 142.888C56.0252 142.033 53.9752 140.905 55.9562 140.594C57.2166 140.396 58.501 140.451 56.5616 139.256C55.9492 138.878 51.4948 137.122 51.4948 136.228C51.4948 135.592 54.1478 135.406 53.2475 134.731C52.327 134.04 49.1321 133.721 49.2004 132.149C49.2335 131.39 51.7006 129.306 51.3992 128.835C50.6279 127.63 47.2685 128.47 46.1253 128.023C44.9434 127.56 46.864 125.797 47.1928 125.186C47.9212 123.834 45.2277 124.907 44.9144 125.059C43.0892 125.944 43.337 125.563 43.337 123.625C43.337 121.35 42.8672 121.962 41.5046 123.577C40.1499 125.183 39.8702 125.823 39.4811 123.211C39.2087 121.381 39.2403 121.059 37.7125 122.191C37.1423 122.613 35.1169 124.957 34.5577 123.752C34.3176 123.235 33.8256 120.724 33.1396 120.661C32.5599 120.609 32.1844 122.173 32.0243 122.526L31.9974 122.585C31.2555 124.218 30.8181 125.18 29.4431 123.545C28.8432 122.832 28.2732 121.517 27.7223 122.589C27.3274 123.358 26.6201 125.784 25.7147 124.693C25.3367 124.237 24.1283 122.099 23.7708 123.45C23.4975 124.482 23.5987 126.082 22.7511 126.859C22.6134 126.986 20.0067 124.471 19.5963 124.246C18.8327 123.828 18.8874 124.845 18.8156 125.362Z" stroke="white" stroke-width="2" stroke-linecap="round"/>
<path d="M22.5599 138.905C22.8346 137.492 24.8395 136.459 25.8421 135.655C30.1924 135.033 34.2447 136.378 36.0076 140.706C37.2514 143.759 38.3671 149.242 35.0197 151.524C31.9972 153.585 27.7653 151.06 25.9696 148.688C24.769 147.102 23.3639 145.143 22.7192 143.255C22.2604 141.911 22.291 140.288 22.5599 138.905Z" stroke="white" stroke-width="2" stroke-linecap="round"/>
<path d="M113.316 235.174C111.581 231.34 109.974 228.359 109.891 224.164C109.846 221.933 110.085 219.906 110.384 217.711C110.697 215.422 111.216 213.581 112.599 211.657C114.92 208.427 117.847 206.826 121.347 205.076C124.414 203.543 129.309 201.722 132.755 202.83C134.285 203.322 135.765 203.966 137.137 204.79C138.43 205.565 139.424 207.252 140.785 205.985C142.408 204.474 144.191 203.915 146.298 203.403C149.62 202.597 154.162 201.96 157.34 203.515C158.743 204.202 159.94 205.254 161.052 206.335C162.295 207.542 163.717 208.375 165.004 209.49C167.551 211.697 167.765 214.898 168.971 217.839C170.697 222.045 170.994 227.301 167.521 230.872C167.152 231.253 165.613 232.571 165.944 232.306C166.928 231.52 167.87 230.728 168.955 230.012C170.441 229.031 172.532 228.898 174.277 228.865C175.945 228.833 178.29 228.769 179.838 229.311C180.666 229.601 181.25 230.3 182.053 230.649C183.345 231.212 184.596 231.576 185.813 232.306C187.705 233.442 189.407 235.452 190.752 237.182C192.253 239.112 191.899 241.629 191.899 243.922C191.899 244.732 192.087 245.803 191.836 246.583C191.545 247.484 190.852 248.26 190.529 249.164C190.117 250.319 189.64 250.34 191.055 250.693C193.046 251.191 194.668 252.46 195.692 254.167C196.804 256.021 198.112 257.302 198.783 259.393C199.49 261.599 199.89 265.136 199.038 267.328C198.093 269.756 197.102 272.626 194.64 273.892C192.019 275.24 188.882 277.047 185.861 277.047C185.022 277.047 182.586 276.58 182.021 277.334C181.957 277.42 183.023 280.672 183.009 281.222C182.88 286.112 180.209 289.204 176.317 291.833C175.541 292.357 174.807 292.945 173.974 293.379C173.365 293.697 172.712 293.604 172.11 293.905C171.233 294.343 172.063 298.486 172.254 299.402C172.607 301.097 172.245 304.042 171.823 305.727C171.258 307.991 169.84 309.949 168.812 312.005C165.589 318.451 159.613 323.677 152.225 324.306C151.156 324.397 150.132 324.499 149.071 324.64C148.291 324.744 148.801 325.292 149.023 325.835C149.848 327.853 150.764 330.045 151.238 332.177C151.68 334.166 152.334 336.489 153.118 338.359C153.921 340.274 154.706 342.365 155.619 344.19C155.96 344.872 157.38 347.235 155.763 346.517C153.791 345.64 150.951 346.21 148.911 346.437C147.69 346.573 148.434 347.165 148.258 346.198C147.827 343.829 146.467 341.59 145.502 339.41C144.446 337.027 143.609 334.669 142.761 332.208C140.085 324.443 137.362 316.662 133.679 309.296C132.748 307.435 132.433 310.074 131.48 310.667C130.336 311.379 128.756 311.327 127.465 311.479C125.013 311.768 122.621 312.442 120.168 312.738C110.348 313.923 99.9056 304.989 99.008 295.116C98.3546 287.927 103.592 282.018 108.791 277.908C109.301 277.505 110.009 277.124 110.273 276.49C110.466 276.027 107.939 275.315 107.564 275.167C104.074 273.789 100.33 272.221 97.1598 270.228C94.2464 268.396 91.2255 266.407 89.0975 263.663C87.1362 261.134 87.0056 257.398 86.2136 254.406C85.2967 250.942 85.5025 247.187 85.7196 243.619C86.0072 238.895 85.443 234.784 88.3805 230.745C91.93 225.864 99.6591 225.364 104.617 228.068C105.44 228.517 114.394 234.096 113.316 235.174Z" stroke="white" stroke-width="2" stroke-linecap="round"/>
<path d="M139.08 253.785C138.342 254.431 137.152 251.277 136.834 250.948C135.875 252.227 136 253.99 135.687 255.505C135.331 257.228 134.378 255.54 133.552 255.011C131.89 253.948 132.532 258.405 132.532 259.154C132.532 261.44 131.632 259.876 130.046 259.521C128.035 259.07 132.053 266.672 128.628 264.683C128.19 264.429 126.126 262.687 126.238 263.918C126.364 265.301 127.861 267.929 127.178 269.176C126.615 270.204 121.377 268.849 121.697 270.1C122.061 271.522 123.736 272.436 123.848 274.115C123.892 274.772 121.72 276.998 121.729 276.999C123.034 277.186 124.492 276.352 125.808 276.888C127.64 277.634 125.603 281.424 125.203 282.496C124.967 283.128 124.205 285.504 125.585 284.743C127.361 283.763 131.791 281.608 130.476 285.715C130.234 286.472 129.394 287.727 129.489 288.535C129.526 288.856 130.751 288.548 130.939 288.535C131.555 288.493 133.414 288.031 133.838 288.583C134.531 289.483 133.441 291.836 133.233 292.726C133.035 293.57 134.479 290.976 134.699 290.67C135.443 289.638 136.566 288.086 136.961 290.176C137.049 290.637 137.234 294.276 137.471 294.064C137.807 293.764 139.781 290.378 140.275 291.164C140.748 291.916 141.107 296.654 142.076 295.976C142.871 295.42 144.557 292.438 145.693 293.889C145.99 294.269 146.582 297.329 146.936 297.219C148.355 296.778 148.378 294.055 149.453 293.235C149.98 292.834 151.033 295.27 151.19 295.594C153.753 300.881 153.187 291.168 154.966 292.885C155.855 293.743 156.285 294.955 157.037 295.912C157.483 296.48 157.709 293.389 157.77 293.076C158.586 288.948 160.026 295.155 161.339 294.319C162.279 293.721 161.619 287.144 164.048 289.348C167.626 292.594 165.931 287.628 166.103 285.221C166.171 284.274 167.986 285.833 168.35 286.05C170.08 287.077 169.136 284.478 168.955 283.548C168.643 281.935 167.327 279.447 167.872 277.812C168.022 277.362 169.439 278.076 169.688 278.194C171.822 279.21 169.441 274.694 169.226 274.211C168.462 272.491 167.231 271.113 166.438 269.463C165.36 267.221 169.575 269.262 168.191 267.232C167.127 265.672 165.561 264.49 164.558 262.898C164.03 262.061 165.696 262.5 166.056 262.564C167.194 262.767 167.571 262.153 166.565 261.273C165.207 260.085 163.248 259.825 161.754 258.819C160.537 258 164.191 253.996 162.455 252.733C161.703 252.186 159.719 253.427 158.949 253.641C157.982 253.91 158.079 251.56 157.993 251.012C157.277 246.428 154.635 253.488 152.783 252.064C152.206 251.62 152.054 248.224 151.572 248.335C150.477 248.588 149.058 250.837 148.37 251.681C147.035 253.317 146.98 248.49 146.155 249.132C144.925 250.089 144.086 255.026 142.506 252.319C142.273 251.919 141.106 249.27 140.658 250.136C140.11 251.195 139.999 252.981 139.08 253.785Z" stroke="white" stroke-width="2" stroke-linecap="round"/>
<path d="M135.91 278.194C136.42 273.862 137.449 272.555 141.423 271.311C143.643 269.091 146.799 268.841 149.74 268.156C152.25 267.572 154.734 267.704 157.006 268.953C159.925 270.559 161.45 272.403 161.148 275.868C160.968 277.945 158.965 279.851 157.324 280.935C154.877 282.552 151.086 283.282 148.274 283.867C144.807 284.588 140.516 285.205 137.408 283.006C135.683 281.787 135.686 280.1 135.91 278.194Z" stroke="white" stroke-width="2" stroke-linecap="round"/>
<path d="M0.500056 358.785C3.02877 364.711 6.9829 367.172 11.5023 371.691C11.9192 372.108 13.7432 374.203 13.9242 373.54C14.1031 372.884 13.6887 372.274 13.9561 371.548C14.509 370.047 15.7731 368.816 16.6648 367.517C16.97 367.072 17.4222 366.349 17.8757 366.019C18.7706 365.368 18.7852 365.75 17.7642 364.601C16.1108 362.741 14.0994 360.942 12.8248 358.785C12.1938 357.717 11.7624 356.563 11.0881 355.503C10.5327 354.63 10.6577 353.107 9.14421 353.049C6.75453 352.957 4.47086 354.196 2.03795 354.196C1.12975 354.196 -2 358.785 -2 355.503C5.99988 353.075 -1.49982 357 0.500056 358.785Z" stroke="white" stroke-width="2" stroke-linecap="round"/>
<path d="M215.417 287.085C215.462 287.3 219.099 292.16 219.56 292.216C219.912 292.258 221.081 289.96 221.249 289.698C221.729 288.949 222.609 287.434 222.874 289.157C223.007 290.02 223.107 290.885 223.304 291.738C223.612 293.074 223.908 292.614 224.722 291.706C224.856 291.557 227.303 288.743 227.463 289.157C227.719 289.819 227.307 290.748 227.495 291.451C227.68 292.146 230.514 289.107 230.841 288.87C232.99 287.309 232.083 290.14 232.083 291.451C232.083 293.182 233.268 291.79 234.123 291.323C235.851 290.381 234.969 293.298 234.792 294.08C234.497 295.388 234.787 295.762 236.083 295.546C237.024 295.389 239.424 294.51 238.361 296.135C237.713 297.126 236.047 298.385 236.959 299.688C237.656 300.684 239.081 301.677 240.178 302.158C240.98 302.51 239.248 301.828 238.823 302.158C238.13 302.697 241.114 304.563 241.452 304.803C241.818 305.062 243.807 306.164 242.233 305.998C241.012 305.87 240.935 305.943 241.516 307.352C242.32 309.301 243.156 311.472 243.46 313.566C243.694 315.18 242.013 313.122 241.548 312.786C240.178 311.796 241.372 314.972 241.516 315.478C241.609 315.807 243.166 320.694 242.488 320.434C242.125 320.294 240.007 318.223 239.859 318.474C239.218 319.564 240.359 322.516 240.496 323.636C240.629 324.72 241.268 327.755 239.445 326.377C238.808 325.896 237.412 324.51 237.517 326.026C237.674 328.308 238.361 330.548 238.361 332.846C238.361 333.776 236.421 331.841 236.099 331.555C233.397 329.154 237.075 339.633 234.187 334.407C231.069 328.766 231.088 337.261 230.028 336.797C228.759 336.242 228.324 334.471 227.176 333.897C226.964 333.792 226.334 336.184 226.172 336.526C225.659 337.609 225.125 335.226 225.041 334.853C224.537 332.621 223.694 335.816 223.224 336.734C221.852 339.414 222.178 334.635 221.026 334.216C220.723 334.106 219.38 336.899 219.209 336.574C218.653 335.516 219.146 333.442 218.126 332.607C217.585 332.164 215.924 335.546 215.417 335.937C214.624 336.549 214.272 334.03 214.126 333.579C213.491 331.602 211.723 334.101 210.956 334.853C209.62 336.164 210.139 334.724 210.127 333.642C210.103 331.396 209.564 330.831 208.359 332.718C207.905 333.429 207.481 334.175 207.004 334.869C206.721 335.281 206.813 333.5 206.813 333.324C206.813 332.25 207.108 330.166 205.522 331.268C205.269 331.445 203.645 332.871 203.435 332.4C202.92 331.24 203.312 329.722 201.937 328.91C201.657 328.745 200.921 328.977 201.22 328.528C201.568 328.006 203.183 326.519 202.798 325.803C202.074 324.459 199.077 324.494 197.906 323.684C197.746 323.573 200.149 323.176 200.44 323.063C201.412 322.685 197.636 318.906 197.253 318.41C195.757 316.472 197.37 316.466 199.181 316.339C202.151 316.13 200.209 314.453 199.133 312.961C197.787 311.094 198.896 311.639 200.328 312.276C202.327 313.164 200.444 308.01 200.344 307.225C200.082 305.162 201.757 307.071 202.75 307.257C203.243 307.349 202.118 301.88 202.288 301.17C202.398 300.709 205.35 303.569 205.363 303.481C205.464 302.825 204.794 297.603 205.156 297.537C205.485 297.478 207.012 299.177 207.1 298.892C207.337 298.121 207.598 292.216 208.247 292.216C209.38 292.216 209.682 296.572 210.127 293.459C210.21 292.882 210.66 288.102 211.912 289.889C212.978 291.412 213.01 290.968 213.872 289.507C214.097 289.124 215.504 287.085 215.417 287.085Z" stroke="white" stroke-width="2" stroke-linecap="round"/>
<path d="M212.772 316.18C213.526 311.958 216.322 310.537 220.006 308.595C222.125 307.536 227.258 306.9 229.184 308.611C232.038 311.149 231.429 315.673 229.407 318.57C226.921 322.128 217.808 324.976 214.302 321.469C212.953 320.121 212.449 317.991 212.772 316.18Z" stroke="white" stroke-width="2" stroke-linecap="round"/>
<path d="M26.7026 301.138C26.9165 301.36 31.8095 303.248 32.4386 302.063C32.7426 301.49 32.6713 300.676 32.7891 300.055C33.1133 298.346 34.5043 300.475 34.9561 301.011C35.5378 301.701 35.9784 302.392 36.5813 301.393C36.9626 300.761 38.9558 296.907 39.4652 298.605C39.6612 299.258 39.8967 301.501 41.0585 300.804C42.0358 300.217 43.0565 298.334 44.2771 298.334C44.7621 298.334 44.831 301.506 44.9303 301.903C45.1716 302.868 47.3596 299.839 48.0851 299.545C48.7504 299.275 48.9269 302.106 49.0093 302.572C49.2976 304.206 50.4994 302.462 51.3037 301.903C52.6752 300.95 52.2278 302.877 52.2278 303.752C52.2278 305.704 52.021 306.329 53.6459 304.867C54.2092 304.36 55.4332 302.754 55.2073 304.516C54.9068 306.861 53.7784 309.155 56.5298 310.093C56.8716 310.209 60.8422 311.796 60.4813 312.26C60.2247 312.59 58.4288 311.537 58.1391 312.117C57.0678 314.259 64.5897 317.753 59.7483 318.633C56.9553 319.141 63.8406 322.033 60.7681 322.075C59.2448 322.096 58.4374 321.87 59.4615 323.509C60.191 324.676 63.1644 327.58 62.0746 329.165C61.4517 330.071 59.602 327.878 59.0473 328.592C58.6933 329.047 61.1275 331.999 61.3417 332.559C62.4812 335.539 58.3382 330.489 58.8879 333.101C59.025 333.752 61.1631 337.601 60.545 337.944C59.7786 338.37 57.4221 335.905 56.4342 335.905C54.7698 335.905 59.9699 342.601 54.5222 338.709C50.9271 336.141 54.667 343.411 51.224 340.717C49.6535 339.488 49.7969 341.29 49.5032 342.661C49.0847 344.614 48.513 343.365 47.6549 342.342C46.4788 340.94 46.2085 342.519 45.7907 343.696C45.0536 345.774 44.6916 343.726 43.9743 342.565C42.837 340.724 42.2941 342.472 41.7437 343.904C41.3219 345 40.5354 341.614 40.3097 341.163C39.602 339.748 38.3491 343.127 37.9515 343.617C37.6702 343.963 37.7146 340.602 37.0115 340.382C36.5599 340.241 34.7649 342.531 34.7649 342.501C34.7649 341.702 34.994 338.232 33.3786 339.378C32.9214 339.703 30.3592 342.787 30.6062 341.354C30.7083 340.763 31.5291 336.528 29.6662 338.072C29.403 338.29 26.83 341.317 26.83 340.685C26.83 339.6 28.0752 336.763 26.8141 336.032C25.6772 335.374 23.7594 336.563 22.7352 336.973C20.7944 337.749 22.5515 337.333 22.8467 336.574C23.4641 334.987 19.5941 333.92 18.6722 333.547C18.5787 333.509 16.8779 332.917 16.9195 332.75C16.9561 332.604 18.8665 333.111 18.9908 333.133C21.1346 333.511 20.8027 332.376 19.7556 331.029C18.9311 329.969 17.9788 328.997 17.0788 328.002C17.0151 327.932 15.3726 326.185 15.8838 326.281C17.0222 326.495 19.6716 328.249 18.1304 326.106C17.1593 324.756 16.1762 323.381 15.0872 322.123C14.8319 321.828 13.2731 320.16 13.3504 320.195C13.847 320.419 17.1835 322.134 17.047 320.609C16.9206 319.198 16.1102 317.719 15.7086 316.371C15.2161 314.718 15.0414 314.344 16.2822 315.797C16.3171 315.838 17.8881 317.797 18.0348 317.247C18.2197 316.554 17.5684 315.322 17.3656 314.714C17.1114 313.951 15.2446 310.133 17.286 311.814C18.5073 312.82 20.3889 315.203 19.8034 312.276C19.559 311.054 18.5543 307.76 20.871 308.723C23.0776 309.64 23.675 310.022 23.0379 307.448C22.8592 306.726 22.4643 305.745 22.4643 304.994C22.4643 304.588 25.3332 306.24 25.5872 306.396C27.448 307.545 27.154 307.141 26.8619 305.138C26.6684 303.811 26.7026 302.475 26.7026 301.138Z" stroke="white" stroke-width="2" stroke-linecap="round"/>
<path d="M30.3036 320.386C29.6855 316.677 33.3317 315.564 36.1671 314.331C36.9913 313.507 45.1633 317.466 45.9183 318.123C48.0939 320.017 50.2054 325.002 47.5754 327.237C43.6092 330.608 38.731 328.539 34.8287 326.186C32.4463 324.749 30.7765 323.223 30.3036 320.386Z" stroke="white" stroke-width="2" stroke-linecap="round"/>
<path d="M193.764 7.88519C196.213 5.4364 197.097 2.47562 197.922 -0.862216C197.5 -4 196 -4.5 196 -4.5C196 -4.5 194.68 -4.49874 193.589 -4.81369C191.526 -5.40912 189.317 -6.02028 187.215 -6.47075C183.923 -7.17631 180.555 -7.58101 177.257 -8.33495C174.702 -8.91896 172.259 -9.90166 169.641 -10.1673C163.968 -10.7428 158.118 -10.7681 152.417 -10.9162C143.16 -11.1566 134.443 -12.2628 125.713 -8.38275C124.487 -7.83797 123.298 -7.19999 122.191 -6.43889C121.705 -6.10447 121.141 -5.47012 120.486 -5.61035C118.429 -6.05123 116.59 -7.18605 114.464 -7.60202C106.219 -9.21502 96.6705 -11.251 89.2251 -5.96089C87.9108 -5.02698 86.2895 -4.47328 86.0544 -2.71048C85.8295 -1.02365 85.939 -0.140276 86.5005 1.43219C86.92 2.60665 88.348 3.99662 89.2251 4.87379C90.8412 6.48988 92.913 7.2388 95.1523 7.51872C99.2885 8.03575 103.058 9.90229 106.577 12.0438C108.099 12.9707 109.851 12.685 111.309 13.4141C111.76 13.6399 110.418 14.6691 110.162 14.9118C109.193 15.8295 107.485 16.5772 106.306 17.2062C104.321 18.2647 102.937 19.9466 101.127 21.2055C97.274 23.8861 97.4092 28.0095 98.1797 32.2473C98.9927 36.7188 101.017 42.2422 103.979 45.7428C105.132 47.1055 105.509 47.9256 107.166 48.7542C108.347 49.3448 109.288 50.21 110.225 51.1124C111.743 52.5742 113.77 53.3274 115.595 54.3309C116.689 54.9325 118.384 55.3506 119.642 55.3506C121.07 55.3506 122.392 55.9614 123.769 55.9242C125.181 55.8861 126.88 55.4103 128.294 55.1276C130.484 54.6895 132.355 54.0867 134.237 52.7694C135.121 52.1508 135.546 51.0828 136.42 51.7975C137.765 52.8982 137.677 54.3511 138.268 55.8605C139.331 58.5783 140.666 61.1649 141.837 63.8272C142.778 65.9649 143.409 68.3053 144.291 70.4873C145.226 72.8015 145.576 75.3324 146.649 77.5617C147.6 79.5365 149.329 81.9838 149.724 84.1581C149.825 84.7147 151.612 84.3916 152.178 84.174C153.48 83.6731 154.916 84.2414 156.209 84.3174C157.178 84.3744 157.781 85.5845 157.42 84.5405C156.359 81.4751 154.945 78.5882 154.042 75.4266C153.227 72.5744 152.819 69.6673 151.461 66.9501C150.706 65.4407 149.535 63.8943 149.166 62.2338C148.943 61.2296 147.938 60.2968 149.039 60.4971C152.338 61.0969 155.348 62.0415 158.695 60.6724C165.062 58.0676 168.492 50.0584 170.836 44.0698C172.311 40.2996 172.684 36.4333 172.684 32.4225C172.684 30.9588 171.77 30.99 173.321 30.399C174.883 29.8041 176.107 28.9116 177.56 28.1046C180.417 26.5174 183.101 22.8781 183.598 19.644C183.82 18.2051 185.501 15.0683 184.507 13.7009C184.048 13.0703 186.172 12.5413 186.514 12.3306C188.853 10.8914 191.778 9.87141 193.764 7.88519Z" stroke="white" stroke-width="2" stroke-linecap="round"/>
<path d="M223.161 -4.87739C216.819 -4.20983 209.386 -2.43941 207.737 4.65075C207.168 7.09642 206.813 9.37396 206.813 11.8845C206.813 12.3283 206.982 16.6887 206.463 16.5689C201.439 15.4096 196.595 18.8626 192.696 21.5082C190.915 22.7168 189.578 24.4623 188.617 26.3838C188.233 27.1532 188.372 27.7597 188.155 28.5189C188.125 28.6233 185.841 29.1003 185.415 29.3952C182.848 31.1723 180.654 33.143 179.854 36.39C179.067 39.5844 179.194 43.7539 181.144 46.5714C182.145 48.0163 183.564 49.1825 184.793 50.4113C184.822 50.4399 184.735 50.3154 184.379 50.4113C183.778 50.5731 183.261 50.714 182.658 50.9212C180.115 51.7953 177.474 53.1882 175.408 54.9364C170.905 58.7469 167.729 63.4985 166.661 69.372C166.16 72.1257 167.847 75.0889 169.019 77.4343C169.269 77.9333 170.212 78.6019 170.039 79.2188C169.685 80.4835 169.529 81.4033 169.529 82.756C169.529 85.2504 171.184 87.8794 173.003 89.4958C174.409 90.7462 176.054 91.8459 177.783 92.5709C179.608 93.3367 181.469 94.3803 183.423 94.706C188.37 95.5305 192.888 92.9358 196.887 90.3562C199.017 88.9821 201.133 88.1289 202.989 86.2932C204.24 85.0561 205.22 83.9418 206.813 83.234C207.815 82.7886 206.893 85.3121 206.813 85.7515C206.495 87.5023 206.24 89.1303 206.24 90.9139C206.24 93.9946 207.725 98.0536 209.394 100.601C212.235 104.937 215.47 106.541 220.659 104.696C221.712 104.322 222.757 103.935 223.798 103.533C224.174 103.388 225.184 103.384 225.439 103.087C225.796 102.67 227.193 101.212 227.606 101.956C229.619 105.579 235.511 102.318 238.138 100.888C240.547 99.5769 242.983 98.2465 244.527 95.901C246.15 93.4365 246.45 90.8974 247.411 88.1893C248.555 84.9672 249.228 81.6606 249.833 78.2947C250.518 74.4872 250.407 70.532 250.407 66.6793C250.407 62.5956 251.071 58.6238 251.235 54.554C251.408 50.2809 251.223 46.1823 250.63 41.9666C250.189 38.8344 250.613 35.6767 250.343 32.5341C249.659 24.5851 250.096 16.5312 249.26 8.58628C248.561 1.94647 244.419 -2.27055 239.222 -6.02459C235.864 -8.44926 231.424 -7.63154 227.622 -6.82126C226.064 -6.48916 224.756 -6.00263 223.336 -5.32352C222.633 -4.98745 222.628 -5.08209 222.3 -5.73779" stroke="white" stroke-width="2" stroke-linecap="round"/>
<path d="M5.7663 86.1816C2.87776 86.984 0.266402 82.5558 -2.5509 81.7362C-3.51205 83.178 -4.55151 77.3833 -4.5585 76.6694C-4.59526 72.9206 -4.87013 68.9446 -4.4151 65.2134C-3.94588 61.3657 -3.57034 57.4618 -3.71404 53.582C-3.82764 50.5148 -4.6271 47.6135 -5.13211 44.6115C-6.06054 39.0925 -7.20099 33.6006 -7.87264 28.0409C-8.53356 22.57 -8.85312 15.7008 -6.39084 10.5939C-4.64373 6.97023 -2.79508 3.89434 0.603899 1.71899C3.55867 -0.172067 5.77151 -1.38396 9.3035 -2.00941C12.3435 -2.54775 15.3038 -2.61688 18.3855 -2.58301C23.3766 -2.52817 28.2138 -0.2042 32.853 1.44812C35.7838 2.49196 39.7466 3.8386 40.8993 7.04073C41.3385 8.26053 42.012 9.51495 42.3015 10.7691C42.4906 11.5888 42.3838 14.1226 42.4767 13.2866C42.694 11.3312 42.8532 8.98158 43.6239 7.16819C44.4301 5.27123 44.5061 2.87628 46.0617 1.32066C50.2282 -2.84578 56.5485 -5.06005 62.4093 -4.30381C65.3191 -3.92836 67.8092 -2.57723 70.2007 -1.00561C72.2032 0.310266 74.5061 0.894476 75.5225 3.15299C76.0734 4.37729 75.1052 4.01339 76.6697 4.01339C78.6068 4.01339 79.7751 4.20838 81.5771 5.00126C87.8692 7.76977 89.5577 14.4991 90.7229 20.5841C91.4274 24.2633 90.1587 28.8187 88.5082 32.1198C87.4843 34.1675 86.1231 36.3408 84.7479 38.1745C83.5271 39.8022 82.163 41.0935 80.6371 42.4287C80.0464 42.9456 78.9237 43.4092 78.4542 43.8786C78.2045 44.1283 79.1209 44.1654 79.474 44.1654C80.3956 44.1654 81.0204 44.5069 81.8958 44.6753C84.4348 45.1635 87.0853 45.6471 89.6554 45.8862C93.2144 46.2173 99.181 47.3176 101.127 50.7778C101.794 51.9625 103.286 53.5526 103.565 54.8089C104.119 57.2999 105.221 59.5651 105.636 62.1064C106.09 64.8799 105.73 70.3042 102.561 71.523C102.281 71.6309 101.4 71.1759 101.287 71.5708C101.174 71.9664 101.536 72.8464 101.574 73.2756C101.734 75.1234 102.162 76.8935 102.131 78.7726C102.06 83.09 99.9903 85.8984 97.399 89.0656C94.9366 92.0751 92.4298 93.2527 88.7153 94.3555C82.9322 96.0723 78.153 94.5107 72.5907 92.9214C72.0542 92.7682 71.0451 92.7652 70.6309 92.4753C70.2496 92.2084 70.1268 91.4338 69.8661 91.0573C69.4934 90.5188 68.8016 89.054 68.5118 90.1809C67.4035 94.4908 64.073 97.6105 60.1309 99.5816C56.3469 101.474 52.6653 99.5299 51.0807 95.9647C50.7797 95.2875 46.9149 96.4052 45.8546 96.0125C43.0792 94.9846 41.0748 93.0245 39.1945 90.8023C38.2431 89.678 38.757 89.3289 37.5374 90.3402C36.072 91.5555 34.4651 92.4416 32.8849 93.495C26.0491 98.0522 18.4129 94.096 13.3824 89.0656C12.6146 88.2978 11.4237 84.5879 11.088 84.7317C10.7031 84.8967 9.4574 85.1214 8.9211 85.1778C7.85944 85.2896 6.7936 85.8963 5.7663 86.1816Z" stroke="white" stroke-width="2" stroke-linecap="round"/>
<path d="M248.399 105.541C242.013 101.571 238.06 107.427 232.689 109.492C230.239 110.435 228.108 112.863 226.252 114.655C225.022 115.842 224.204 116.934 223.448 118.447C222.884 119.575 222.507 120.32 222.285 118.877C221.854 116.077 217.351 115.87 215.258 115.117C211.501 113.764 207.731 113.994 203.913 114.862C199.739 115.81 195.357 117.691 192.919 121.458C191.489 123.669 189.852 125.91 189.175 128.469C188.558 130.8 188.233 133.524 188.171 135.942C188.079 139.527 189.163 142.984 190.466 146.203C190.739 146.878 191.111 148.059 191.613 148.561C191.852 148.8 192.441 148.964 192.441 148.417C192.441 147.66 190.789 148.172 190.466 148.21C188.708 148.417 187.053 148.41 185.303 148.848C183.655 149.26 182.184 150.016 180.555 150.505C178.942 150.988 177.493 152.088 176.189 153.15C175.132 154.01 173.367 156.456 172.987 157.722C172.738 158.553 172.073 159.907 172.541 160.75C172.705 161.046 169.477 162.157 168.844 162.598C167.391 163.609 167.217 166.145 166.948 167.76C166.578 169.98 166.19 172.671 166.518 174.899C167.018 178.298 169.423 181.625 172.971 182.132C174.107 182.295 175.219 182.802 176.365 182.993C176.417 183.001 174.174 186.159 173.895 186.641C171.867 190.152 171.623 194.232 171.537 198.113C171.469 201.167 170.513 204.549 172.461 207.355C173.677 209.106 174.924 210.116 176.859 211.083C178.122 211.715 178.853 211.361 180.077 211.497C180.306 211.523 180.046 212.538 179.997 212.645C179.766 213.154 180.028 213.948 180.205 214.461C180.713 215.934 181.964 216.956 183.168 217.839C186.14 220.018 190.715 219.914 194.194 220.675C198.323 221.578 204.196 222.479 207.642 219.416C208.521 218.635 209.086 217.928 209.697 217.01C210.535 215.754 209.789 220.05 209.522 221.535C209.059 224.115 208.232 226.549 208.709 229.199C209.143 231.607 209.541 234.189 210.191 236.545C210.578 237.948 210.539 239.101 211.466 240.337C212.507 241.725 214.155 242.869 215.417 244.065C218.792 247.262 222.341 249.667 226.953 247.156C229.546 245.745 231.362 243.732 233.135 241.452C233.727 240.691 235.25 243.597 235.844 244.065C238.093 245.836 240.438 248.004 243.396 248.303C250.034 248.976 253.558 242.685 255.824 237.373C258.237 231.718 258.151 225.477 258.151 219.416C258.151 213.483 258.686 207.684 259.154 201.778C259.7 194.906 257.943 188.115 258.613 181.272C259.203 175.238 260.685 169.332 261.019 163.251C261.422 155.882 261.672 148.616 261.465 141.231C261.274 134.416 262.025 127.637 261.736 120.805C261.541 116.218 260.293 112.332 259.027 107.978C258.238 105.268 251.631 105.541 248.399 105.541Z" stroke="white" stroke-width="2" stroke-linecap="round"/>
<path d="M13.6374 115.993C8.01645 110.372 3.6689 103.224 -4.84526 102.099C-7.5 99 -8.1435 101.239 -8.733 102.418C-9.73228 104.416 -10.102 106.684 -10.3582 108.887C-11.63 119.824 -13.8149 130.355 -13.2899 141.454C-12.8893 149.924 -12.6649 158.195 -11.1867 166.565C-9.67594 175.121 -7.21929 183.529 -7.28306 192.266C-7.34413 200.633 -6.30094 209.233 -2.61459 216.851C-1.47093 219.215 -0.360815 214.71 0.0303431 213.537C1.2367 209.918 2.23626 206.476 4.02961 203.069C5.30862 200.639 6.6278 198.242 8.18822 195.978C9.85691 193.558 10.9988 190.813 12.5858 188.33C13.8581 186.34 13.9204 186.886 13.0798 188.697C12.3769 190.211 11.9019 191.816 11.1837 193.317C6.09868 203.95 4.46978 216.544 4.96968 228.291C5.3383 236.954 9.01859 246.527 17.4933 250.2C20.4965 251.501 26.0907 250.572 28.9812 249.212C31.2637 248.138 32.9914 245.926 33.809 243.555C33.9332 243.195 33.7544 242.43 34.1755 243.061C34.4961 243.542 35.068 244.012 35.4502 244.479C36.4649 245.72 39.4463 245.867 40.756 245.212C43.9323 243.624 45.3897 240.018 47.0018 237.086C48.6482 234.093 49.5188 230.779 50.6506 227.558C52.0983 223.438 52.5732 218.836 53.4867 214.573C54.2572 210.977 52.8945 207.524 52.2917 204.041C51.9777 202.227 53.4293 204.352 54.0762 204.837C56.9116 206.964 59.3907 209.402 62.1385 211.657C65.4549 214.378 68.2336 217.754 71.826 220.133C74.2153 221.716 77.821 222.93 80.6212 223.543C81.9677 223.838 83.559 223.79 84.9232 223.639C86.7317 223.438 88.181 223.957 89.9263 223.957C92.763 223.957 94.6748 222.274 96.682 220.611C98.3364 219.241 98.9121 216.296 99.3102 214.26L99.3269 214.174C99.9225 211.13 99.7394 208.188 99.5341 205.108C99.4603 204.002 97.2267 200.031 98.4187 199.882C101.468 199.501 102.814 196.605 103.852 194.162C105.479 190.334 102.388 184.799 100.92 181.32L100.894 181.258C98.7989 176.291 96.8273 171.618 93.6387 167.203C92.2376 165.263 89.4318 163.769 87.5044 162.455C86.9222 162.058 84.21 159.864 84.7001 160.256C85.76 161.104 89.1134 158.922 89.8625 158.248C91.7253 156.572 93.3012 155.109 94.3876 152.703C96.3825 148.286 97.4869 143.288 95.6782 138.666C95.0414 137.039 93.3052 135.605 91.5355 135.384C90.0078 135.193 91.273 133.601 91.8064 132.723C93.1742 130.47 93.2848 127.285 93.2404 124.756C93.1822 121.438 91.9077 119.457 89.3686 117.586C88.4176 116.886 88.132 115.901 87.4407 115.005C86.4687 113.745 85.1488 113.252 83.6804 112.838C82.6169 112.538 81.8517 111.529 80.7805 111.34C79.5836 111.129 78.3218 110.939 77.1159 110.767C72.3078 110.08 67.3572 110.12 62.7758 111.85C61.612 112.29 60.6155 112.456 59.6688 113.284C59.4894 113.441 58.2905 114.533 58.2508 113.858C58.1235 111.693 57.0284 110.491 56.2591 108.568C55.098 105.665 52.4747 104.037 49.9973 102.386C48.6289 101.474 47.0396 100.988 45.6953 100.091C44.3916 99.2223 42.8994 99.5859 41.4411 99.964C37.8221 100.902 34.1339 100.717 30.5746 101.812C27.0437 102.899 23.8131 104.318 20.7437 106.401C18.578 107.871 16.7578 110.4 15.5813 112.711C15.2356 113.39 14.3512 116.707 13.6374 115.993Z" stroke="white" stroke-width="2" stroke-linecap="round"/>
<path d="M239.062 256.7C242.746 257.134 245.391 257.725 247.5 260.5C247.795 260.145 249.241 263.383 249.26 264.396C249.288 265.883 249.319 267.318 249.546 268.794C250.18 272.91 251.21 276.952 251.49 281.126C251.817 285.994 251.073 291.036 250.694 295.88C250.164 302.641 250.71 309.439 251.108 316.195C251.75 327.115 253.483 339.811 249.26 350.245C247.132 355.503 244.52 358.639 239.333 361.08C236.794 362.275 233.819 363.316 231.096 362.227C229.48 361.581 229.732 360.063 228.61 362.068C226.977 364.984 223.342 367.969 219.815 367.612C214.799 367.104 210.537 364.583 207.403 360.665C205.256 357.982 204.519 355.388 204.519 351.966V346.58C204.519 345.373 204.273 345.085 203.308 345.943C201.295 347.732 198.975 349.447 197.062 351.36C194.124 354.299 191.4 355.379 187.311 355.854C184.82 356.142 182.043 355.313 179.631 354.77C178.019 354.407 176.284 353.462 175.106 352.284C173.562 350.741 172.299 348.39 171.282 346.469C170.515 345.02 169.816 343.253 169.816 341.609C169.816 341.122 170.492 339.57 169.959 339.57C168.809 339.57 167.968 338.534 167.171 337.849C162.465 333.799 167.52 326.857 170.39 323.445C173.354 319.92 176.567 316.964 180.619 314.777C182.118 313.968 183.126 313.852 184.73 313.758C184.843 313.751 183.589 311.639 183.439 311.304C181.573 307.142 179.075 303.582 179.79 298.844C179.981 297.578 179.697 296.322 180.268 295.116C180.781 294.034 181.167 292.956 181.575 291.833C182.084 290.433 185.78 289.64 187.008 288.949C188.675 288.012 187.82 286.084 189.095 284.855C194.003 280.122 200.401 278.006 207.1 278.194C207.322 278.201 209.552 278.708 209.554 278.704C209.614 278.598 209.19 277.41 209.171 277.27C208.903 275.227 208.534 273.021 208.534 270.961C208.534 268.127 209.515 265.324 210.685 262.723C212.233 259.284 214.451 256.617 217.52 254.454C219.211 253.262 221.743 251.522 223.846 251.522C226.422 251.522 228.81 251.871 231.191 252.797C232.31 253.232 233.515 253.748 234.187 254.804C234.468 255.247 234.401 256.325 234.697 256.621C235.302 257.226 238.137 256.591 239.062 256.7Z" stroke="white" stroke-width="2" stroke-linecap="round"/>
<path d="M1.81483 258.182C-1.38996 259.357 -2.56944 262.676 -3.98491 265.575C-3.98491 269.75 -6.52236 278.481 -6.58204 279.883C-6.73616 283.505 -7.25819 287.125 -7.56991 290.734C-8.17629 297.755 -8.40266 304.798 -8.86051 311.83C-9.29349 318.479 -9.5251 325.054 -9.13138 331.714C-8.80589 337.221 -7.85638 343.51 -4.90904 348.333C-3.52063 350.605 -1.99475 351.3 0.667631 351.328C3.61679 351.36 6.2731 350.283 9.08044 349.448C9.69745 349.265 13.003 347.432 13.6214 347.775C13.9216 347.942 12.9235 349.995 12.9363 350.468C12.9898 352.449 15.2517 354.909 16.7922 355.853C20.5445 358.155 26.4102 355.764 30.3196 355.391C32.8663 355.149 35.1625 354.665 37.4418 353.479C37.7195 353.335 39.7831 352.038 39.8955 353.049C40.0404 354.353 41.1222 355.345 42.0625 356.14C43.2019 357.104 50.5071 361.523 50.5071 358.068C50.5071 355.65 51.046 356.857 52.8015 357.702C54.5417 358.54 56.9902 358.776 58.8881 358.435C62.3524 357.811 67.0931 356.668 69.2925 353.623C69.9603 352.698 70.7392 351.931 70.8699 350.755C70.9615 349.931 71.5771 350.717 72.0809 350.755C74.4551 350.931 76.6945 351.795 79.0278 352.173C80.2963 352.379 81.4086 352.868 82.6447 353.161C84.026 353.488 85.5075 353.312 86.9148 353.479C92.3075 354.121 97.7172 355.679 101.844 351.328C104.805 348.208 105.182 341.32 104.155 337.466C103.82 336.212 103.521 334.947 102.705 333.897C102.623 333.792 101.782 333.179 101.908 333.037C102.944 331.872 103.6 331.092 104.139 329.532C104.842 327.495 105.978 325.884 106.13 323.668C106.269 321.66 106.11 319.616 105.716 317.645C105.449 316.308 105.255 314.453 104.41 313.343C103.418 312.042 102.011 310.903 100.729 309.902C100.072 309.389 99.3331 308.042 98.5621 307.799C97.7505 307.542 96.8536 307.619 96.0446 307.321C94.3242 306.685 92.4808 306.488 90.6592 306.237C88.2098 305.899 85.5496 306.301 83.059 306.301C82.5847 306.301 79.3071 306.98 79.4899 306.157C79.698 305.221 81.2877 304.009 81.9914 303.433C84.0111 301.78 85.6377 299.551 86.9945 297.346C89.6214 293.077 91.7261 287.023 90.7866 281.923C90.3866 279.751 89.6746 277.061 88.4604 275.199C87.3681 273.524 85.5632 272.522 84.2858 271.024C83.6114 270.234 82.2973 270.228 81.37 269.877C80.6052 269.588 80.0472 269.077 79.3306 268.746C78.7896 268.496 77.9543 268.134 77.3548 268.204C77.0851 268.236 76.2343 269.135 76.0483 268.794C75.5 267.788 75.6027 266.352 75.395 265.257C75.2085 264.273 74.6825 263.284 74.3115 262.357C73.4273 260.146 72.012 258.638 70.2326 257.13C68.7692 255.89 66.333 255.421 64.401 255.266C61.8571 255.063 59.4752 255.684 57.0239 256.222C53.0537 257.094 50.9037 258.967 48.3402 262.07C45.9515 264.961 43.3679 268.028 42.7476 271.853C42.4668 273.584 42.0125 278.798 41.9031 277.047C41.8187 275.696 40.2747 273.688 39.6087 272.522C37.2099 268.324 34.9553 264.072 32.4069 259.967C30.5107 256.912 28.1447 256.081 24.8226 255.314C21.7653 254.609 18.6523 254.056 15.5175 253.832C11.5918 253.552 8.6439 254.992 5.12897 256.398C3.93888 256.874 3.05151 257.729 1.81483 258.182Z" stroke="white" stroke-width="2" stroke-linecap="round"/>
<path d="M24.5677 364.936C20.4504 370.24 18.6164 375.243 17.5251 382.016C20.3119 382.016 22.6821 388.205 25.7786 387.895C28.5235 387.621 31.2468 388.024 34.0002 388.039C37.6794 388.058 41.3505 387.993 45.0261 388.182C55.0952 388.701 65.0381 386.986 75.0923 387.163C79.0976 387.233 83.1196 387.465 87.122 387.465C88.9748 387.465 91.4448 387.362 92.7465 385.76C93.4893 384.846 92.0552 382.668 91.7905 381.697C91.3545 380.099 90.0711 378.331 88.9384 377.14C86.1103 374.167 81.0128 372.417 76.9884 371.914C73.7965 371.515 70.6561 371.785 67.4921 372.329C65.3239 372.701 63.0319 374.013 61.5968 375.675C61.4892 375.799 60.44 377.195 60.3221 377.077C59.9978 376.752 59.9911 375.772 59.9078 375.356C59.6844 374.239 59.3034 372.882 58.8084 371.851C57.6964 369.534 56.6237 366.361 54.1081 365.254C52.7462 364.655 51.0988 364.02 49.6627 363.661C47.4734 363.114 45.607 361.884 43.6399 360.825C42.6189 360.275 41.4078 360.573 40.2939 360.49C38.8567 360.384 37.4495 359.879 36.0078 359.709C33.5707 359.423 32.0366 360.32 29.7938 361.016C27.5678 361.707 26.0079 363.08 24.5677 364.936Z" stroke="white" stroke-width="2" stroke-linecap="round"/>
<path d="M103.278 368.313C105.272 373.824 121.854 398.58 125 403.5C125.52 402.98 177.799 388.883 178.197 388.198C179.195 386.48 180.4 384.873 181.272 383.084C182.757 380.035 184.356 375.899 184.092 372.408C183.869 369.451 181.218 367.293 179.79 364.872C178.94 363.43 177.012 361.462 175.201 361.366C173.947 361.3 172.536 361.275 171.314 361.59C171.073 361.651 170.79 361.908 170.549 361.908C170.311 361.908 169.245 359.612 169.099 359.343C168.374 358.004 167.906 356.581 167.251 355.216C166.526 353.707 165.922 353.443 164.392 352.774L164.367 352.762C161.208 351.381 156.989 351.975 153.66 352.412C152.157 352.609 150.262 352.818 149.023 353.782C148.586 354.122 147.622 355.21 147.031 355.041C146.274 354.824 145.173 352.895 144.578 352.38C143.612 351.545 143.091 350.85 142.57 349.671C141.495 347.24 138.54 345.997 137.184 343.808C136.355 342.468 134.933 341.92 134.109 340.589C133.345 339.355 131.711 339.29 130.492 338.709C126.83 336.965 122.51 338.74 119.18 340.43C117.165 341.453 114.415 342.944 113.603 345.178C113.256 346.132 113.111 347.483 113.46 348.46C113.825 349.483 113.182 349.321 112.328 349.321C107.003 349.321 102.705 354.62 102.705 359.805C102.705 362.467 102.361 365.777 103.278 368.313Z" stroke="white" stroke-width="2" stroke-linecap="round"/>
<path d="M201.348 377.443C198.321 379.461 197.655 382.157 197.062 385.744C198.546 384.261 209.294 385.718 211.115 385.808C214.085 385.956 216.975 386.038 219.942 385.744C222.417 385.5 224.783 385.181 227.272 385.458C231.256 385.9 235.28 385.744 239.285 385.744C242.926 385.744 247.545 385.662 250.279 382.876C251.719 381.41 251.628 379.167 251.777 377.268C251.974 374.761 251.231 370.756 248.814 369.461C246.82 368.393 244.011 368.882 241.93 369.413C237.449 370.557 232.572 371.202 229.773 375.26C229.198 376.094 228.367 378.408 227.144 378.272C225.139 378.049 223.16 377.562 221.137 377.443C218.795 377.305 216.424 377.372 214.143 376.694C211.729 375.977 209.672 375.308 207.116 375.436C204.85 375.549 203.212 376.201 201.348 377.443Z" stroke="white" stroke-width="2" stroke-linecap="round"/>
<path d="M131.704 375.754C130.776 378.537 132.398 386.337 140.562 388C150.137 388 163.669 378.602 162.36 377.555C161.462 376.836 159.899 379.947 159.38 379.371C158.666 378.578 159.902 374.468 157.803 376.567C156.693 377.677 157.253 376.05 157.134 374.973C156.857 372.483 156.245 374.838 155.54 375.515C155.236 375.808 154.924 372.025 154.457 371.643C153.724 371.044 152.765 374.693 152.178 373.651C151.313 372.112 151.789 369.927 149.932 372.233C148.091 374.518 148.297 372.827 146.586 371.213C145.08 369.793 144.636 373.936 143.304 373.492C142.226 373.133 141.734 370.239 140.563 370.369C139.389 370.499 139.178 373.996 138.619 374.814C137.95 375.795 135.948 372.104 135.464 372.456C134.857 372.898 135.462 376.423 135.385 377.236C135.263 378.516 131.973 374.949 131.704 375.754Z" stroke="white" stroke-width="2" stroke-linecap="round"/>
</g>
<defs>
<clipPath id="clip0_233_22">
<rect width="245" height="380" fill="white"/>
</clipPath>
</defs>
</svg>
