<svg width="445" height="160" viewBox="0 0 445 160" fill="none" xmlns="http://www.w3.org/2000/svg">
<path d="M56.6146 43.762C60.2527 39.6461 66.2929 36.7139 71.4411 37.0222C74.4812 37.0222 77.0988 38.3332 77.9556 38.7313C80.1271 39.7401 81.1564 41.0651 82.7329 43.0039C84.4701 45.1402 85.3387 46.422 86.6417 48.9856C87.9446 51.5491 89.9878 56.1024 91.0068 59.611C94.6344 72.1019 102.028 86.9307 99.4747 100.049C98.487 105.124 96.3472 109.902 92.5105 113.333C89.2646 116.236 84.7947 118.044 80.687 119.391C70.179 122.837 59.7149 122.902 52.3318 119.391C48.2118 117.432 42.7773 113.333 41.0401 109.657C39.7088 106.839 38 101.539 38 98.1207C38.0001 93.8481 38.7107 89.1482 39.3029 84.8756C40.4281 76.7576 43.9982 68.5535 47.5455 57.619C49.2044 52.5052 53.0675 47.7751 56.6146 43.762Z" stroke="white" stroke-width="2" stroke-linecap="round"/>
<path d="M133.615 43.6825C137.253 39.6149 143.293 36.7173 148.441 37.022C151.481 37.022 154.099 38.3175 154.956 38.7109C157.127 39.7078 158.156 41.0173 159.733 42.9333C161.47 45.0444 162.339 46.3112 163.642 48.8446C164.945 51.378 166.988 55.8777 168.007 59.345C171.634 71.6889 179.028 86.3433 176.475 99.3071C175.487 104.322 173.347 109.044 169.511 112.435C166.265 115.304 161.795 117.091 157.687 118.422C147.179 121.827 136.715 121.891 129.332 118.422C125.212 116.486 119.777 112.435 118.04 108.802C116.709 106.018 115 100.78 115 97.4016C115 93.1793 115.711 88.5347 116.303 84.3123C117.428 76.2899 120.998 68.1822 124.545 57.3764C126.204 52.3228 130.067 47.6484 133.615 43.6825Z" stroke="white" stroke-width="2" stroke-linecap="round"/>
<path d="M210.615 43.6825C214.253 39.6149 220.293 36.7173 225.441 37.022C228.481 37.022 231.099 38.3175 231.956 38.7109C234.127 39.7078 235.156 41.0173 236.733 42.9333C238.47 45.0444 239.339 46.3112 240.642 48.8446C241.945 51.378 243.988 55.8777 245.007 59.345C248.634 71.6889 256.028 86.3433 253.475 99.3071C252.487 104.322 250.347 109.044 246.511 112.435C243.265 115.304 238.795 117.091 234.687 118.422C224.179 121.827 213.715 121.891 206.332 118.422C202.212 116.486 196.777 112.435 195.04 108.802C193.709 106.018 192 100.78 192 97.4016C192 93.1793 192.711 88.5347 193.303 84.3123C194.428 76.2899 197.998 68.1822 201.545 57.3764C203.204 52.3228 207.067 47.6484 210.615 43.6825Z" stroke="white" stroke-width="2" stroke-linecap="round"/>
<path d="M286.314 43.6825C289.894 39.6149 295.837 36.7173 300.902 37.022C303.893 37.022 306.468 38.3175 307.311 38.7109C309.448 39.7078 310.46 41.0173 312.011 42.9333C313.721 45.0444 314.575 46.3112 315.857 48.8446C317.139 51.378 319.149 55.8777 320.152 59.345C323.721 71.6889 330.995 86.3433 328.483 99.3071C327.511 104.322 325.406 109.044 321.631 112.435C318.438 115.304 314.04 117.091 309.999 118.422C299.66 121.827 289.365 121.891 282.101 118.422C278.047 116.486 272.7 112.435 270.991 108.802C269.681 106.018 268 100.78 268 97.4016C268 93.1793 268.699 88.5347 269.282 84.3123C270.389 76.2899 273.901 68.1822 277.391 57.3764C279.024 52.3228 282.824 47.6484 286.314 43.6825Z" stroke="white" stroke-width="2" stroke-linecap="round"/>
<path d="M363.314 43.6825C366.894 39.6149 372.837 36.7173 377.902 37.022C380.893 37.022 383.468 38.3175 384.311 38.7109C386.448 39.7078 387.46 41.0173 389.011 42.9333C390.721 45.0444 391.575 46.3112 392.857 48.8446C394.139 51.378 396.149 55.8777 397.152 59.345C400.721 71.6889 407.995 86.3433 405.483 99.3071C404.511 104.322 402.406 109.044 398.631 112.435C395.438 115.304 391.04 117.091 386.999 118.422C376.66 121.827 366.365 121.891 359.101 118.422C355.047 116.486 349.7 112.435 347.991 108.802C346.681 106.018 345 100.78 345 97.4016C345 93.1793 345.699 88.5347 346.282 84.3123C347.389 76.2899 350.901 68.1822 354.391 57.3764C356.024 52.3228 359.824 47.6484 363.314 43.6825Z" stroke="white" stroke-width="2" stroke-linecap="round"/>
<path d="M23 88.2681C25.3205 88.1524 27.545 88.1543 29.8444 88.2681C30.196 88.2855 30.641 88.3259 30.9852 88.2502C31.9724 88.033 32.1259 87.7794 32.1259 88.9854C32.1259 90.7349 32.6289 92.4917 32.7597 94.2393C32.9055 96.1896 32.8011 98.0197 33.1761 99.9594C33.7907 103.138 33.9644 106.926 35.3128 109.893C35.7974 110.96 35.9598 112.167 36.363 113.265C36.7828 114.408 37.6388 115.372 37.9926 116.51C38.5745 118.383 41.0292 120.951 42.7004 121.854C43.9713 122.54 44.6352 123.43 46.1407 123.844C48.1858 124.407 50.2596 124.866 52.3333 125.386C54.4933 125.928 57.3982 126.765 59.6486 126.498C61.3151 126.3 62.946 127 64.6461 127C69.0253 127 73.4381 126.083 77.7918 125.691C81.0168 125.401 84.5227 125.267 87.5152 123.934C90.806 122.467 93.5215 119.898 96.6412 118.16C103.537 114.319 105.785 105.2 105.785 97.9511C105.785 94.8358 105.459 91.7261 105.459 88.6626C105.459 86.0261 105.328 82.7404 103.993 80.3604C102.67 78.0028 108.085 79.3954 108.863 79.5355C109.448 79.6408 110.339 79.3005 110.747 79.8045C111.122 80.2693 110.646 82.8273 110.747 83.4984C111.28 87.0433 110.348 90.9037 110.348 94.4724C110.348 97.9185 109.993 101.588 110.602 104.98C110.921 106.757 110.866 108.75 111.018 110.557C111.232 113.094 112.064 113.815 113.535 115.703C114.472 116.907 115.454 118.177 116.541 119.254C117.634 120.337 118 121.572 119.474 122.302C120.696 122.907 124.03 123.844 124.03 123.844C125.528 124.174 128.604 124.183 130.074 124.669C133.171 125.691 136.075 125.691 139.839 125.691C141.554 125.691 143.08 125.425 144.77 125.207C146.915 124.93 149.083 124.947 151.234 124.669C153.685 124.352 156.378 123.885 158.73 123.127C161.304 122.297 164.18 121.964 166.534 120.545C168.541 119.335 170.62 118.096 171.876 116.098C172.915 114.443 174.038 112.845 175.063 111.184C177.206 107.71 179.251 104.741 180.241 100.677C181.205 96.723 182.04 92.1076 181.418 88.1068C181.22 86.8341 181.619 85.4792 181.328 84.2156C181.139 83.3979 180.703 82.288 180.748 81.4901C180.848 79.7014 185.037 80.6273 185.963 80.2707C187.018 79.8642 186.615 81.9566 186.615 82.4763C186.615 85.5866 186.289 88.705 186.289 91.8365C186.289 97.4922 185.824 104.14 187.737 109.553C189.379 114.196 194.423 118.409 199 120.222" stroke="white" stroke-width="2" stroke-linecap="round"/>
<path d="M199 120.822C201.661 122.152 203.828 123.338 206.761 123.794C208.951 124.135 210.961 124.738 213.172 124.856C217.599 125.092 221.691 126.595 226.163 125.739C231.951 124.63 238.496 123.821 243.773 121.023C244.872 120.44 245.997 119.837 247.12 119.302C248.451 118.667 249.325 117.656 250.388 116.687C251.997 115.219 253.408 113.935 254.756 112.216C257.63 108.554 258.637 103.011 258.637 98.4818C258.637 93.6125 257.675 88.9598 256.798 84.2108C256.548 82.8554 256.461 81.5325 256.186 80.1764C255.879 78.6676 256.325 78.9342 257.661 79.2265C258.49 79.408 259.24 79.923 260.089 79.9753C261.024 80.0329 261.977 79.9865 262.914 79.9865C263.167 79.9865 265.788 80.2568 264.764 79.5841" stroke="white" stroke-width="2" stroke-linecap="round"/>
<path d="M264.418 81C263.78 85.2565 263.024 89.5936 263.024 93.9107C263.024 95.6237 262.876 97.3739 263.312 99.0495C263.837 101.063 264.321 103.122 265.06 105.08C265.532 106.33 265.777 107.722 266.41 108.902C266.872 109.765 267.37 110.726 267.649 111.663C268.015 112.894 268.954 113.75 269.596 114.827C270.322 116.046 271.65 117.642 272.671 118.649C273.725 119.689 274.834 120.729 275.968 121.696C278.712 124.037 282.328 124.922 285.813 125.622C289.025 126.268 292.033 126.541 294.904 127C296.894 127 299.21 127 302.081 127C303.995 127 306.866 126.082 306.866 126.082C306.866 126.082 309.258 125.622 310.694 125.163C312.608 124.551 313.565 124.245 315 123.786" stroke="white" stroke-width="2" stroke-linecap="round"/>
<path d="M315 124.199C318.151 121.992 321.299 119.798 324.022 117.06C324.975 116.102 325.966 115.133 327.064 114.344C329.25 112.775 330.712 110.501 332.104 108.247C332.824 107.08 333.158 105.966 333.641 104.726C334.257 103.143 334.373 101.928 334.559 100.239C334.725 98.7412 334.309 97.2021 334.207 95.7086C334.081 93.8794 333.836 92.0974 333.641 90.2874C333.418 88.2088 333.219 86.1665 333.054 84.0934C332.964 82.9678 332.519 81.8769 332.488 80.7226C332.47 80.0632 332.402 79.2081 332.146 78.5971C331.994 78.2337 331.009 76.0821 331.634 75.9026C333.925 75.2444 336.534 74.6004 338.915 74.9687C339.82 75.1087 340.736 75.3194 341.616 75.5162C342.177 75.6413 341.911 77.2593 341.905 77.6309C341.823 82.3206 341.712 87.0153 341.712 91.7152C341.712 94.6404 341.374 97.7879 341.947 100.668C342.188 101.878 342.16 103.139 342.567 104.307C342.898 105.258 343.139 106.584 343.239 107.592C343.421 109.415 343.589 111.315 344.125 113.088C345.118 116.367 347.898 119.133 349.976 121.73C352.262 124.588 355.241 125.32 358.731 125.745C363.059 126.272 367.321 126.711 371.692 126.711C375.984 126.711 380.116 126.252 384.333 125.552C386.816 125.139 389.29 124.704 391.774 124.296C394.147 123.905 395.692 122.713 397.54 121.215C399.057 119.984 400.73 119.037 402.013 117.522C403.102 116.237 404.121 114.787 404.981 113.335C406.741 110.365 407.866 106.691 408.974 103.427C410.386 99.2694 410.753 95.129 411.184 90.792C411.578 86.831 410.112 82.8236 410.554 78.8762C410.704 77.5415 410.476 76.4644 410.33 75.1404C410.228 74.2189 410.198 74.2505 411.28 74.0562C412.662 73.8082 413.627 74.4467 414.932 74.6896C416.179 74.9218 417.115 74.7601 418.348 74.7325C419.04 74.717 419.924 74.592 420.601 74.7433C421.424 74.9271 421.077 77.3829 421.124 77.9101C421.321 80.1364 421.703 82.3001 422.138 84.4906C422.665 87.139 422.619 90.0926 422.619 92.7887C422.619 98.0286 423.4 103.174 422.725 108.376C421.778 115.679 421.205 121.854 420.282 129.282C420.282 131.604 419.82 133.461 419.358 135.318C419.302 136.893 418.918 138.039 418.435 139.497C418.16 140.323 417.526 141.818 416.588 142.746C414.815 144.5 414.87 144.474 414.279 145.068C413.688 145.662 412.344 146.461 408.974 147C407.127 147 402.606 146.456 400.888 147C398.553 147 398.173 147 396.732 147" stroke="white" stroke-width="2" stroke-linecap="round"/>
<path d="M24.1949 89C23.7563 95.7602 24.195 102.399 24.195 110.346C24.1949 114.553 24.8009 119.2 25.1761 123.902C25.5872 129.054 28.4646 135.398 30.5972 140.101C31.5234 142.144 32.6434 144.524 34.418 145.216C36.0042 145.835 39.404 147.537 41.4125 148.315C43.421 149.093 48.1069 149.038 51.6712 148.954C55.8679 148.856 63.42 148.315 71.2189 148.315C82.3194 148.315 93.1722 148.315 104.83 148.315C113.69 148.315 120.44 148.315 127.679 148.315C134.492 148.315 140.448 147.928 147.263 148.315C154.089 148.702 160.515 147.695 167.315 148.315C175.242 148.315 184.449 148.113 192.495 148.315C205.94 148.652 217.209 148.856 230.836 148.856C239.592 148.954 246.12 148.954 255.912 148.954C265.705 148.954 270.368 149.2 285.756 148.315C307.672 149.667 311.869 147.651 326.324 148.315C330.791 148.52 339.992 147.928 344.51 148.315C351.726 148.933 356.408 147.889 363.628 148.315C369.893 148.684 375.74 148.223 382.014 147.651C384.876 147.39 391.248 147.528 393.938 147.528C397.052 147.528 396.875 147.429 400 147.429" stroke="white" stroke-width="2" stroke-linecap="round"/>
<path d="M36.7631 12.1522C44.645 12.4775 52.511 12.1522 60.2539 12.1522C60.6545 12.1522 61.141 11.8097 60.9617 12.1522C60.4614 13.1077 59.945 14.2152 59.2806 15.0598C56.9056 18.0789 54.18 20.8884 51.4946 23.6037C49.9837 25.1316 48.3101 26.4212 46.8053 27.9428C46.2034 28.5514 42.8297 24.1194 42.3372 23.4248C41.1227 21.712 39.4238 20.5065 38.4442 18.5937C37.6547 17.0521 37.0856 15.5676 36.0553 14.1652C35.3471 13.2011 34.6753 11.3571 35.1705 13.36" stroke="white" stroke-width="2" stroke-linecap="round"/>
<path d="M96.8367 13C91.7713 14.1921 85.9802 15.0118 85.043 21.4764C84.68 23.9799 86.6767 25.5339 88.6955 26.1956C91.3682 27.0717 94.5133 27.2674 97.2328 26.608C97.9049 26.445 102.284 25.269 101.985 24.9585" stroke="white" stroke-width="2" stroke-linecap="round"/>
<path d="M113.307 14.7112C112.349 19.4113 110.154 24.0986 115.197 26.3831C117.52 27.435 120.153 28.3816 122.711 27.845C126.231 27.1065 130.111 25.6683 130.84 21.5797C132.494 12.3099 120.91 9.82465 114.947 13.8758" stroke="white" stroke-width="2" stroke-linecap="round"/>
<path d="M138.182 12C138.182 16.3477 136.937 21.2267 140.963 23.794C142.88 25.0166 145.566 25.3201 147.718 24.9458C150.657 24.4345 153.283 23.7152 155.819 21.9512C157.059 21.0881 160.312 18.2816 159.814 16.3767C159.452 14.9922 158.833 19.118 158.843 19.6477C158.891 22.3771 160.407 24.6305 163.213 23.8171C164.575 23.4224 166.101 22.6729 165.995 24.1165C165.869 25.8155 164.799 27.3568 164.405 29" stroke="white" stroke-width="2" stroke-linecap="round"/>
<path d="M186.311 13.5577C181.708 13.0992 175.706 11.7488 172.603 16.1536C171.127 18.2486 169.973 20.6449 172.421 22.6209C175.038 24.7338 177.656 26 181.097 26C182.487 26 189.288 25.8335 190 24.4335" stroke="white" stroke-width="2" stroke-linecap="round"/>
<path d="M197.646 20.04C200.673 19.9182 207.763 20.8868 210.477 18.8192C211.045 18.3865 211.464 17.8261 211.769 17.1915C212.342 15.9982 211.513 14.3675 210.523 13.6195C207.066 11.0068 200.494 11.6729 197.646 14.7725C193.521 19.2625 197.937 23.9131 202.239 26.144C204.711 27.4261 207.506 28.2526 210.338 27.93C212.945 27.6331 215.357 26.551 218 26.551" stroke="white" stroke-width="2" stroke-linecap="round"/>
<path d="M224 13.2451C224.985 17.5573 227.035 30.5104 227.31 26.0953C227.345 25.5327 227.31 24.9546 227.31 24.3912C227.31 21.7312 227.225 18.7929 228.989 16.5844C230.412 14.8022 232.581 13.8087 234.759 14.0512C237.949 14.4063 239.488 19.5006 240.322 22.1574C240.707 23.385 242.143 28.0153 241.701 24.1609C241.287 20.5439 242.834 17.6992 245.103 14.9954C247.799 11.7841 251.117 12.839 253.793 15.4099C256.411 17.9247 257.999 21.3175 258.966 24.7596C259.107 25.2626 259.514 26.582 260 26.0953" stroke="white" stroke-width="2" stroke-linecap="round"/>
<path d="M270 12C270.663 17.698 271.602 26.0395 279.37 24.1622C282.718 23.3532 285.314 21.479 285.979 17.9009C286.103 17.2371 286.802 14.71 286.206 14.1171C285.928 13.8408 286.289 17.4614 286.387 17.7658C287.044 19.8064 287.918 21.5974 289.148 23.3514C290.114 24.7284 291.469 25.416 292 27" stroke="white" stroke-width="2" stroke-linecap="round"/>
</svg>
