<svg width="445" height="160" viewBox="0 0 445 160" fill="none" xmlns="http://www.w3.org/2000/svg">
<path d="M56.6146 43.762C60.2527 39.6461 66.2929 36.7139 71.4411 37.0222C74.4812 37.0222 77.0988 38.3332 77.9556 38.7313C80.1271 39.7401 81.1564 41.0651 82.7329 43.0039C84.4701 45.1402 85.3387 46.422 86.6417 48.9856C87.9446 51.5491 89.9878 56.1024 91.0068 59.611C94.6344 72.1019 102.028 86.9307 99.4747 100.049C98.487 105.124 96.3472 109.902 92.5105 113.333C89.2646 116.236 84.7947 118.044 80.687 119.391C70.179 122.837 59.7149 122.902 52.3318 119.391C48.2118 117.432 42.7773 113.333 41.0401 109.657C39.7088 106.839 38 101.539 38 98.1207C38.0001 93.8481 38.7107 89.1482 39.3029 84.8756C40.4281 76.7576 43.9982 68.5535 47.5455 57.619C49.2044 52.5052 53.0675 47.7751 56.6146 43.762Z" stroke="white" stroke-width="2" stroke-linecap="round"/>
</svg>
